<svg width="15" height="15" viewBox="0 0 15 15" fill="none" xmlns="http://www.w3.org/2000/svg">
<g clip-path="url(#clip0_570_12703)">
<path d="M7.50156 1.17188C11.0376 1.17188 13.9016 4.03588 13.9016 7.57188C13.9016 11.1079 11.0376 13.9719 7.50156 13.9719C6.66103 13.9721 5.82868 13.8068 5.05208 13.4852C4.27548 13.1637 3.56984 12.6923 2.97549 12.0979C2.38115 11.5036 1.90974 10.798 1.5882 10.0214C1.26666 9.24476 1.1013 8.41241 1.10156 7.57188C1.10156 4.03588 3.96556 1.17188 7.50156 1.17188ZM8.30156 4.37187C8.30156 3.93187 7.94156 3.57188 7.50156 3.57188C7.06156 3.57188 6.70156 3.93187 6.70156 4.37187C6.70156 4.81187 7.06156 5.17188 7.50156 5.17188C7.94156 5.17188 8.30156 4.81187 8.30156 4.37187ZM8.30156 11.5719V6.77187H6.70156V11.5719H8.30156Z" fill="#5F697A"/>
</g>
<defs>
<clipPath id="clip0_570_12703">
<rect width="14" height="14" fill="white" transform="translate(0.5 0.570312)"/>
</clipPath>
</defs>
</svg>
