<svg width="21" height="21" viewBox="0 0 21 21" fill="none" xmlns="http://www.w3.org/2000/svg">
<circle cx="10.333" cy="10.4062" r="9" fill="#49DCFF"/>
<path d="M10.2872 14.0213C9.54809 14.0213 8.91172 13.8539 8.37811 13.5192C7.8478 13.1811 7.44013 12.7154 7.1551 12.1222C6.87006 11.5289 6.72754 10.8494 6.72754 10.0838C6.72754 9.30824 6.87337 8.62382 7.16504 8.03054C7.45671 7.43395 7.86769 6.96828 8.39799 6.63352C8.9283 6.29877 9.55306 6.13139 10.2723 6.13139C10.8523 6.13139 11.3693 6.23911 11.8234 6.45455C12.2775 6.66667 12.6437 6.96496 12.9221 7.34943C13.2039 7.7339 13.3712 8.183 13.4243 8.69673H11.9775C11.898 8.33878 11.7157 8.03054 11.4307 7.77202C11.1489 7.51349 10.7711 7.38423 10.2971 7.38423C9.88284 7.38423 9.51992 7.49361 9.20836 7.71236C8.90012 7.92779 8.65983 8.23603 8.48748 8.63707C8.31513 9.0348 8.22896 9.50545 8.22896 10.049C8.22896 10.6058 8.31348 11.0864 8.48251 11.4908C8.65154 11.8951 8.89018 12.2083 9.19842 12.4304C9.50997 12.6525 9.87621 12.7635 10.2971 12.7635C10.5789 12.7635 10.8341 12.7121 11.0628 12.6094C11.2948 12.5033 11.4887 12.3525 11.6444 12.157C11.8035 11.9614 11.9146 11.7261 11.9775 11.451H13.4243C13.3712 11.9448 13.2105 12.3857 12.942 12.7734C12.6736 13.1612 12.314 13.4661 11.8632 13.6882C11.4157 13.9103 10.8904 14.0213 10.2872 14.0213Z" fill="#1C232E"/>
</svg>
