<svg width="24" height="18" viewBox="0 0 24 18" fill="none" xmlns="http://www.w3.org/2000/svg">
<path d="M2.8 1.15156H0.4C0.293913 1.15156 0.192172 1.10942 0.117157 1.03441C0.0421427 0.959391 0 0.857649 0 0.751563C0 0.645476 0.0421427 0.543735 0.117157 0.46872C0.192172 0.393705 0.293913 0.351563 0.4 0.351562H2.8C2.90609 0.351563 3.00783 0.393705 3.08284 0.46872C3.15786 0.543735 3.2 0.645476 3.2 0.751563C3.2 0.857649 3.15786 0.959391 3.08284 1.03441C3.00783 1.10942 2.90609 1.15156 2.8 1.15156Z" fill="#49DCFF"/>
<path d="M2.79844 17.1516C2.69235 17.1516 2.59061 17.1094 2.51559 17.0344C2.44058 16.9594 2.39844 16.8576 2.39844 16.7516V0.751563C2.39844 0.645476 2.44058 0.543735 2.51559 0.46872C2.59061 0.393705 2.69235 0.351562 2.79844 0.351562C2.90452 0.351562 3.00627 0.393705 3.08128 0.46872C3.15629 0.543735 3.19844 0.645476 3.19844 0.751563V16.7516C3.19844 16.8576 3.15629 16.9594 3.08128 17.0344C3.00627 17.1094 2.90452 17.1516 2.79844 17.1516Z" fill="#49DCFF"/>
<path d="M2.80078 8.75H1.20078C1.09469 8.75 0.992953 8.70786 0.917939 8.63284C0.842924 8.55783 0.800781 8.45609 0.800781 8.35V5.15C0.800781 5.04391 0.842924 4.94217 0.917939 4.86716C0.992953 4.79214 1.09469 4.75 1.20078 4.75H2.80078C3.02078 4.75 3.20078 4.93 3.20078 5.15V8.35C3.20078 8.45609 3.15864 8.55783 3.08362 8.63284C3.00861 8.70786 2.90687 8.75 2.80078 8.75ZM1.60078 7.95H2.40078V5.55H1.60078V7.95ZM2.80078 15.15H1.20078C1.09469 15.15 0.992953 15.1079 0.917939 15.0328C0.842924 14.9578 0.800781 14.8561 0.800781 14.75V11.55C0.800781 11.4439 0.842924 11.3422 0.917939 11.2672C0.992953 11.1921 1.09469 11.15 1.20078 11.15H2.80078C3.02078 11.15 3.20078 11.33 3.20078 11.55V14.75C3.20078 14.8561 3.15864 14.9578 3.08362 15.0328C3.00861 15.1079 2.90687 15.15 2.80078 15.15ZM1.60078 14.35H2.40078V11.95H1.60078V14.35ZM14.4008 17.15H5.60078C5.49469 17.15 5.39295 17.1079 5.31794 17.0328C5.24292 16.9578 5.20078 16.8561 5.20078 16.75V13.95C5.20078 13.8439 5.24292 13.7422 5.31794 13.6672C5.39295 13.5921 5.49469 13.55 5.60078 13.55H14.4008C14.5069 13.55 14.6086 13.5921 14.6836 13.6672C14.7586 13.7422 14.8008 13.8439 14.8008 13.95V16.75C14.8008 16.8561 14.7586 16.9578 14.6836 17.0328C14.6086 17.1079 14.5069 17.15 14.4008 17.15ZM6.00078 16.35H14.0008V14.35H6.00078V16.35Z" fill="#49DCFF"/>
<path d="M7.59922 17.1484C7.49313 17.1484 7.39139 17.1063 7.31638 17.0313C7.24136 16.9563 7.19922 16.8545 7.19922 16.7484V15.5484C7.19922 15.4424 7.24136 15.3406 7.31638 15.2656C7.39139 15.1906 7.49313 15.1484 7.59922 15.1484C7.70531 15.1484 7.80705 15.1906 7.88206 15.2656C7.95708 15.3406 7.99922 15.4424 7.99922 15.5484V16.7484C7.99922 16.8545 7.95708 16.9563 7.88206 17.0313C7.80705 17.1063 7.70531 17.1484 7.59922 17.1484ZM12.3992 17.1484C12.2931 17.1484 12.1914 17.1063 12.1164 17.0313C12.0414 16.9563 11.9992 16.8545 11.9992 16.7484V15.5484C11.9992 15.4424 12.0414 15.3406 12.1164 15.2656C12.1914 15.1906 12.2931 15.1484 12.3992 15.1484C12.5053 15.1484 12.607 15.1906 12.6821 15.2656C12.7571 15.3406 12.7992 15.4424 12.7992 15.5484V16.7484C12.7992 16.8545 12.7571 16.9563 12.6821 17.0313C12.607 17.1063 12.5053 17.1484 12.3992 17.1484ZM18.3992 17.1484C18.2931 17.1484 18.1914 17.1063 18.1164 17.0313C18.0414 16.9563 17.9992 16.8545 17.9992 16.7484V15.5484C17.9992 15.4424 18.0414 15.3406 18.1164 15.2656C18.1914 15.1906 18.2931 15.1484 18.3992 15.1484C18.5053 15.1484 18.607 15.1906 18.6821 15.2656C18.7571 15.3406 18.7992 15.4424 18.7992 15.5484V16.7484C18.7992 16.8545 18.7571 16.9563 18.6821 17.0313C18.607 17.1063 18.5053 17.1484 18.3992 17.1484ZM10.7992 17.1484C10.6931 17.1484 10.5914 17.1063 10.5164 17.0313C10.4414 16.9563 10.3992 16.8545 10.3992 16.7484V15.5484C10.3992 15.4424 10.4414 15.3406 10.5164 15.2656C10.5914 15.1906 10.6931 15.1484 10.7992 15.1484C10.9053 15.1484 11.007 15.1906 11.0821 15.2656C11.1571 15.3406 11.1992 15.4424 11.1992 15.5484V16.7484C11.1992 16.801 11.1889 16.853 11.1688 16.9015C11.1487 16.95 11.1192 16.9941 11.0821 17.0313C11.0449 17.0684 11.0008 17.0979 10.9523 17.118C10.9038 17.1381 10.8517 17.1484 10.7992 17.1484ZM9.19922 17.1484C9.09313 17.1484 8.99139 17.1063 8.91638 17.0313C8.84136 16.9563 8.79922 16.8545 8.79922 16.7484V15.5484C8.79922 15.4424 8.84136 15.3406 8.91638 15.2656C8.99139 15.1906 9.09313 15.1484 9.19922 15.1484C9.30531 15.1484 9.40705 15.1906 9.48206 15.2656C9.55708 15.3406 9.59922 15.4424 9.59922 15.5484V16.7484C9.59922 16.8545 9.55708 16.9563 9.48206 17.0313C9.40705 17.1063 9.30531 17.1484 9.19922 17.1484Z" fill="#49DCFF"/>
<path d="M20.0008 17.1484H16.8008C16.6947 17.1484 16.593 17.1063 16.5179 17.0313C16.4429 16.9563 16.4008 16.8545 16.4008 16.7484V13.9484C16.4008 13.8424 16.4429 13.7406 16.5179 13.6656C16.593 13.5906 16.6947 13.5484 16.8008 13.5484H20.0008C20.1069 13.5484 20.2086 13.5906 20.2836 13.6656C20.3586 13.7406 20.4008 13.8424 20.4008 13.9484V16.7484C20.4008 16.8545 20.3586 16.9563 20.2836 17.0313C20.2086 17.1063 20.1069 17.1484 20.0008 17.1484ZM17.2008 16.3484H19.6008V14.3484H17.2008V16.3484ZM2.80078 3.94844H1.20078C1.09469 3.94844 0.992953 3.90629 0.917939 3.83128C0.842924 3.75627 0.800781 3.65452 0.800781 3.54844C0.800781 3.44235 0.842924 3.34061 0.917939 3.26559C0.992953 3.19058 1.09469 3.14844 1.20078 3.14844H2.80078C2.90687 3.14844 3.00861 3.19058 3.08362 3.26559C3.15864 3.34061 3.20078 3.44235 3.20078 3.54844C3.20078 3.65452 3.15864 3.75627 3.08362 3.83128C3.00861 3.90629 2.90687 3.94844 2.80078 3.94844ZM2.80078 10.3484H1.20078C1.09469 10.3484 0.992953 10.3063 0.917939 10.2313C0.842924 10.1563 0.800781 10.0545 0.800781 9.94844C0.800781 9.84235 0.842924 9.74061 0.917939 9.66559C0.992953 9.59058 1.09469 9.54844 1.20078 9.54844H2.80078C2.90687 9.54844 3.00861 9.59058 3.08362 9.66559C3.15864 9.74061 3.20078 9.84235 3.20078 9.94844C3.20078 10.0545 3.15864 10.1563 3.08362 10.2313C3.00861 10.3063 2.90687 10.3484 2.80078 10.3484ZM8.40078 12.7484C7.23423 12.7471 6.11585 12.2831 5.29097 11.4582C4.4661 10.6334 4.0021 9.51498 4.00078 8.34844C4.00078 5.92244 5.97478 3.94844 8.40078 3.94844C10.8268 3.94844 12.8008 5.92244 12.8008 8.34844C12.8008 10.7744 10.8268 12.7484 8.40078 12.7484ZM8.40078 4.74844C7.44633 4.7495 6.53127 5.12912 5.85637 5.80402C5.18146 6.47892 4.80184 7.39398 4.80078 8.34844C4.80078 10.3334 6.41578 11.9484 8.40078 11.9484C10.3858 11.9484 12.0008 10.3334 12.0008 8.34844C12.0008 6.36344 10.3858 4.74844 8.40078 4.74844Z" fill="#49DCFF"/>
<path d="M8.40078 9.95C8.08433 9.95 7.77499 9.85616 7.51187 9.68035C7.24875 9.50454 7.04367 9.25466 6.92257 8.96229C6.80147 8.66993 6.76979 8.34823 6.83153 8.03786C6.89326 7.72749 7.04565 7.44239 7.26941 7.21863C7.49317 6.99487 7.77827 6.84248 8.08864 6.78074C8.39901 6.71901 8.72071 6.75069 9.01308 6.87179C9.30544 6.99289 9.55532 7.19797 9.73113 7.46109C9.90694 7.72421 10.0008 8.03355 10.0008 8.35C10.0008 9.232 9.28278 9.95 8.40078 9.95ZM8.40078 7.55C8.29566 7.55007 8.19158 7.57084 8.09448 7.61113C7.99739 7.65142 7.90918 7.71044 7.83489 7.78482C7.7606 7.8592 7.70169 7.94748 7.66152 8.04462C7.62136 8.14177 7.60072 8.24588 7.60078 8.351C7.60085 8.45612 7.62162 8.5602 7.66191 8.6573C7.7022 8.7544 7.76122 8.84261 7.8356 8.91689C7.90998 8.99118 7.99826 9.05009 8.09541 9.09026C8.19255 9.13043 8.29666 9.15107 8.40178 9.151C8.61409 9.15087 8.81764 9.0664 8.96767 8.91619C9.1177 8.76597 9.20191 8.56231 9.20178 8.35C9.20165 8.1377 9.11718 7.93414 8.96697 7.78411C8.81675 7.63408 8.61309 7.54987 8.40078 7.55Z" fill="#49DCFF"/>
<path d="M21.5984 14.3516H2.79844C2.69235 14.3516 2.59061 14.3094 2.51559 14.2344C2.44058 14.1594 2.39844 14.0576 2.39844 13.9516V2.75156C2.39844 2.53156 2.57844 2.35156 2.79844 2.35156H21.5984C22.9234 2.35156 23.9984 3.42756 23.9984 4.75156V11.9516C23.9984 13.2756 22.9224 14.3516 21.5984 14.3516ZM3.19844 13.5516H21.5984C22.4814 13.5516 23.1984 12.8336 23.1984 11.9516V4.75156C23.1984 4.32722 23.0299 3.92025 22.7298 3.62019C22.4298 3.32013 22.0228 3.15156 21.5984 3.15156H3.19844V13.5516Z" fill="#49DCFF"/>
<path d="M8.40078 7.55C8.29469 7.55 8.19295 7.50786 8.11794 7.43284C8.04292 7.35783 8.00078 7.25609 8.00078 7.15C8.00078 6.288 6.90078 5.55 6.00078 5.55C5.89469 5.55 5.79295 5.50786 5.71794 5.43284C5.64292 5.35783 5.60078 5.25609 5.60078 5.15C5.60078 5.04391 5.64292 4.94217 5.71794 4.86716C5.79295 4.79214 5.89469 4.75 6.00078 4.75C7.29578 4.75 8.80078 5.798 8.80078 7.15C8.80078 7.25609 8.75864 7.35783 8.68362 7.43284C8.60861 7.50786 8.50687 7.55 8.40078 7.55ZM10.8008 11.95C9.50578 11.95 8.00078 10.9 8.00078 9.55C8.00078 9.44391 8.04292 9.34217 8.11794 9.26716C8.19295 9.19214 8.29469 9.15 8.40078 9.15C8.50687 9.15 8.60861 9.19214 8.68362 9.26716C8.75864 9.34217 8.80078 9.44391 8.80078 9.55C8.80078 10.411 9.90078 11.15 10.8008 11.15C10.9069 11.15 11.0086 11.1921 11.0836 11.2672C11.1586 11.3422 11.2008 11.4439 11.2008 11.55C11.2008 11.6561 11.1586 11.7578 11.0836 11.8328C11.0086 11.9079 10.9069 11.95 10.8008 11.95ZM5.20078 11.15C5.09469 11.15 4.99295 11.1079 4.91794 11.0328C4.84292 10.9578 4.80078 10.8561 4.80078 10.75C4.80078 9.455 5.84878 7.95 7.20078 7.95C7.30687 7.95 7.40861 7.99214 7.48362 8.06716C7.55864 8.14217 7.60078 8.24391 7.60078 8.35C7.60078 8.45609 7.55864 8.55783 7.48362 8.63284C7.40861 8.70786 7.30687 8.75 7.20078 8.75C6.33878 8.75 5.60078 9.85 5.60078 10.75C5.60078 10.8561 5.55864 10.9578 5.48362 11.0328C5.40861 11.1079 5.30687 11.15 5.20078 11.15ZM9.60078 8.75C9.49469 8.75 9.39295 8.70786 9.31794 8.63284C9.24292 8.55783 9.20078 8.45609 9.20078 8.35C9.20078 8.24391 9.24292 8.14217 9.31794 8.06716C9.39295 7.99214 9.49469 7.95 9.60078 7.95C10.4628 7.95 11.2008 6.85 11.2008 5.95C11.2008 5.84391 11.2429 5.74217 11.3179 5.66716C11.393 5.59214 11.4947 5.55 11.6008 5.55C11.7069 5.55 11.8086 5.59214 11.8836 5.66716C11.9586 5.74217 12.0008 5.84391 12.0008 5.95C12.0008 7.245 10.9528 8.75 9.60078 8.75Z" fill="#49DCFF"/>
<path d="M4.43981 8.18813C4.36052 8.18847 4.28293 8.16519 4.21693 8.12124C4.15093 8.0773 4.09952 8.01469 4.06926 7.9414C4.039 7.86811 4.03126 7.78747 4.04704 7.70977C4.06281 7.63206 4.10137 7.56082 4.15781 7.50513C4.60281 7.06013 5.27181 6.74513 5.94781 6.66313C6.71081 6.56912 7.38081 6.76912 7.83381 7.22213C7.90572 7.29769 7.94528 7.39835 7.94404 7.50266C7.94279 7.60697 7.90085 7.70666 7.82716 7.78049C7.75346 7.85431 7.65384 7.89643 7.54954 7.89786C7.44523 7.89928 7.3445 7.85991 7.26881 7.78813C6.99681 7.51612 6.55181 7.39613 6.04481 7.45713C5.53981 7.51713 5.04681 7.74713 4.72381 8.07013C4.64846 8.14545 4.54635 8.18788 4.43981 8.18813ZM10.4918 10.0661C9.87881 10.0661 9.34581 9.86613 8.96581 9.48413C8.89686 9.40804 8.85982 9.30835 8.86235 9.2057C8.86488 9.10305 8.90678 9.00531 8.97938 8.9327C9.05199 8.8601 9.14973 8.81819 9.25238 8.81567C9.35503 8.81314 9.45472 8.85018 9.53081 8.91913C9.80281 9.19013 10.2488 9.31113 10.7558 9.24913C11.2598 9.18913 11.7538 8.95913 12.0758 8.63613C12.1509 8.56107 12.2527 8.5189 12.3588 8.5189C12.465 8.5189 12.5668 8.56107 12.6418 8.63613C12.7169 8.71118 12.759 8.81298 12.759 8.91913C12.759 9.02527 12.7169 9.12707 12.6418 9.20213C12.1968 9.64713 11.5278 9.96213 10.8518 10.0431C10.7324 10.0583 10.6122 10.066 10.4918 10.0661ZM7.83481 12.7131C7.78219 12.7131 7.73009 12.7026 7.68152 12.6824C7.63295 12.6621 7.58887 12.6325 7.55181 12.5951C6.63581 11.6801 6.31381 9.87413 7.26881 8.91813C7.30597 8.88096 7.35009 8.85148 7.39865 8.83137C7.44721 8.81125 7.49925 8.8009 7.55181 8.8009C7.60437 8.8009 7.65641 8.81125 7.70497 8.83137C7.75352 8.85148 7.79764 8.88096 7.83481 8.91813C7.87197 8.95529 7.90145 8.99941 7.92157 9.04797C7.94168 9.09652 7.95203 9.14857 7.95203 9.20113C7.95203 9.25368 7.94168 9.30573 7.92157 9.35428C7.90145 9.40284 7.87197 9.44696 7.83481 9.48413C7.22481 10.0941 7.48081 11.3931 8.11681 12.0291C8.1731 12.085 8.21152 12.1562 8.22722 12.234C8.24291 12.3117 8.23515 12.3923 8.20493 12.4656C8.17471 12.5389 8.1234 12.6015 8.0575 12.6456C7.9916 12.6897 7.91409 12.7132 7.83481 12.7131ZM9.24781 7.90513C9.16843 7.90567 9.0907 7.88253 9.02455 7.83867C8.9584 7.7948 8.90683 7.7322 8.87645 7.65887C8.84606 7.58554 8.83824 7.50481 8.85398 7.42701C8.86972 7.34921 8.90831 7.27788 8.96481 7.22213C9.57481 6.61212 9.31881 5.31212 8.68281 4.67613C8.64265 4.63974 8.61031 4.59558 8.58774 4.54632C8.56517 4.49706 8.55284 4.44372 8.55151 4.38955C8.55018 4.33538 8.55986 4.28151 8.57998 4.23119C8.6001 4.18088 8.63023 4.13518 8.66855 4.09686C8.70686 4.05855 8.75256 4.02842 8.80288 4.0083C8.85319 3.98818 8.90706 3.97849 8.96123 3.97983C9.0154 3.98116 9.06874 3.99349 9.118 4.01606C9.16726 4.03863 9.21142 4.07097 9.24781 4.11112C10.1638 5.02713 10.4858 6.83213 9.53081 7.78813C9.49363 7.82526 9.44951 7.8547 9.40095 7.87478C9.35239 7.89486 9.30035 7.90517 9.24781 7.90513ZM17.9998 12.7531C16.8333 12.7518 15.7149 12.2878 14.89 11.4629C14.0651 10.6381 13.6011 9.51967 13.5998 8.35313C13.5998 5.92713 15.5738 3.95312 17.9998 3.95312C20.4258 3.95312 22.3998 5.92713 22.3998 8.35313C22.3998 10.7791 20.4258 12.7531 17.9998 12.7531ZM17.9998 4.75313C17.0454 4.75418 16.1303 5.13381 15.4554 5.80871C14.7805 6.48361 14.4009 7.39867 14.3998 8.35313C14.3998 10.3381 16.0148 11.9531 17.9998 11.9531C19.9848 11.9531 21.5998 10.3381 21.5998 8.35313C21.5998 6.36813 19.9848 4.75313 17.9998 4.75313Z" fill="#49DCFF"/>
<path d="M17.9984 9.95C17.1164 9.95 16.3984 9.232 16.3984 8.35C16.3984 8.03355 16.4923 7.72421 16.6681 7.46109C16.8439 7.19797 17.0938 6.99289 17.3861 6.87179C17.6785 6.75069 18.0002 6.71901 18.3106 6.78074C18.621 6.84248 18.906 6.99487 19.1298 7.21863C19.3536 7.44239 19.506 7.72749 19.5677 8.03786C19.6294 8.34823 19.5977 8.66993 19.4766 8.96229C19.3555 9.25466 19.1505 9.50454 18.8874 9.68035C18.6242 9.85616 18.3149 9.95 17.9984 9.95ZM17.9984 7.55C17.7861 7.55027 17.5826 7.63486 17.4327 7.78517C17.2828 7.93548 17.1987 8.13919 17.1989 8.3515C17.1992 8.56381 17.2838 8.76731 17.4341 8.91725C17.5844 9.06718 17.7881 9.15127 18.0004 9.151C18.2127 9.15074 18.4162 9.06614 18.5662 8.91583C18.7161 8.76552 18.8002 8.56181 18.7999 8.3495C18.7997 8.13719 18.7151 7.93369 18.5648 7.78376C18.4145 7.63382 18.2107 7.54974 17.9984 7.55Z" fill="#49DCFF"/>
<path d="M17.9984 7.55C17.8924 7.55 17.7906 7.50786 17.7156 7.43284C17.6406 7.35783 17.5984 7.25609 17.5984 7.15C17.5984 6.288 16.4984 5.55 15.5984 5.55C15.4924 5.55 15.3906 5.50786 15.3156 5.43284C15.2406 5.35783 15.1984 5.25609 15.1984 5.15C15.1984 5.04391 15.2406 4.94217 15.3156 4.86716C15.3906 4.79214 15.4924 4.75 15.5984 4.75C16.8934 4.75 18.3984 5.798 18.3984 7.15C18.3984 7.25609 18.3563 7.35783 18.2813 7.43284C18.2063 7.50786 18.1045 7.55 17.9984 7.55ZM20.3984 11.95C19.1034 11.95 17.5984 10.901 17.5984 9.55C17.5984 9.44391 17.6406 9.34217 17.7156 9.26716C17.7906 9.19214 17.8924 9.15 17.9984 9.15C18.1045 9.15 18.2063 9.19214 18.2813 9.26716C18.3563 9.34217 18.3984 9.44391 18.3984 9.55C18.3984 10.411 19.4984 11.15 20.3984 11.15C20.5045 11.15 20.6063 11.1921 20.6813 11.2672C20.7563 11.3422 20.7984 11.4439 20.7984 11.55C20.7984 11.6561 20.7563 11.7578 20.6813 11.8328C20.6063 11.9079 20.5045 11.95 20.3984 11.95ZM14.7984 11.15C14.6924 11.15 14.5906 11.1079 14.5156 11.0328C14.4406 10.9578 14.3984 10.8561 14.3984 10.75C14.3984 9.455 15.4474 7.95 16.7984 7.95C16.9045 7.95 17.0063 7.99214 17.0813 8.06716C17.1563 8.14217 17.1984 8.24391 17.1984 8.35C17.1984 8.45609 17.1563 8.55783 17.0813 8.63284C17.0063 8.70786 16.9045 8.75 16.7984 8.75C15.9364 8.75 15.1984 9.85 15.1984 10.75C15.1984 10.8561 15.1563 10.9578 15.0813 11.0328C15.0063 11.1079 14.9045 11.15 14.7984 11.15ZM19.1984 8.75C19.0924 8.75 18.9906 8.70786 18.9156 8.63284C18.8406 8.55783 18.7984 8.45609 18.7984 8.35C18.7984 8.24391 18.8406 8.14217 18.9156 8.06716C18.9906 7.99214 19.0924 7.95 19.1984 7.95C20.0604 7.95 20.7984 6.85 20.7984 5.95C20.7984 5.84391 20.8406 5.74217 20.9156 5.66716C20.9906 5.59214 21.0924 5.55 21.1984 5.55C21.3045 5.55 21.4063 5.59214 21.4813 5.66716C21.5563 5.74217 21.5984 5.84391 21.5984 5.95C21.5984 7.245 20.5494 8.75 19.1984 8.75Z" fill="#49DCFF"/>
<path d="M14.0399 8.18498C13.9609 8.18485 13.8836 8.16128 13.8179 8.11725C13.7522 8.07323 13.7011 8.01073 13.6709 7.93764C13.6407 7.86455 13.6329 7.78416 13.6484 7.70661C13.6639 7.62907 13.702 7.55786 13.7579 7.50198C14.2029 7.05698 14.8719 6.74198 15.5479 6.65998C16.3109 6.56598 16.9819 6.76598 17.4339 7.21898C17.5059 7.29454 17.5454 7.39521 17.5442 7.49952C17.5429 7.60382 17.501 7.70352 17.4273 7.77734C17.3536 7.85117 17.254 7.89329 17.1497 7.89471C17.0454 7.89614 16.9446 7.85676 16.8689 7.78498C16.5979 7.51298 16.1509 7.39298 15.6449 7.45398C15.1399 7.51398 14.6469 7.74398 14.3239 8.06698C14.2486 8.14231 14.1465 8.18474 14.0399 8.18498ZM20.0919 10.063C19.4789 10.063 18.9459 9.86298 18.5659 9.48098C18.497 9.40489 18.46 9.3052 18.4625 9.20256C18.465 9.09991 18.5069 9.00216 18.5795 8.92956C18.6521 8.85695 18.7499 8.81505 18.8525 8.81252C18.9552 8.81 19.0549 8.84704 19.1309 8.91598C19.4029 9.18698 19.8489 9.30798 20.3559 9.24598C20.8599 9.18598 21.3539 8.95598 21.6759 8.63298C21.7131 8.59582 21.7572 8.56634 21.8058 8.54622C21.8543 8.52611 21.9064 8.51576 21.9589 8.51576C22.0115 8.51576 22.0635 8.52611 22.1121 8.54622C22.1607 8.56634 22.2048 8.59582 22.2419 8.63298C22.2791 8.67015 22.3086 8.71427 22.3287 8.76282C22.3488 8.81138 22.3592 8.86342 22.3592 8.91598C22.3592 8.96854 22.3488 9.02058 22.3287 9.06914C22.3086 9.1177 22.2791 9.16182 22.2419 9.19898C21.7969 9.64398 21.1269 9.95898 20.4519 10.04C20.3325 10.0552 20.2123 10.0628 20.0919 10.063ZM17.4339 12.71C17.3815 12.7098 17.3296 12.6993 17.2812 12.6791C17.2328 12.6588 17.1889 12.6292 17.1519 12.592C16.2359 11.677 15.9129 9.87098 16.8689 8.91498C16.944 8.83993 17.0458 8.79776 17.1519 8.79776C17.2581 8.79776 17.3599 8.83993 17.4349 8.91498C17.51 8.99004 17.5522 9.09184 17.5522 9.19798C17.5522 9.30413 17.51 9.40593 17.4349 9.48098C16.8249 10.091 17.0809 11.39 17.7169 12.026C17.7732 12.0818 17.8117 12.1531 17.8273 12.2308C17.843 12.3085 17.8353 12.3892 17.8051 12.4624C17.7748 12.5357 17.7235 12.5984 17.6576 12.6425C17.5917 12.6865 17.5132 12.71 17.4339 12.71ZM18.8479 7.90198C18.7687 7.90233 18.6911 7.87904 18.6251 7.8351C18.5591 7.79116 18.5077 7.72855 18.4774 7.65526C18.4471 7.58197 18.4394 7.50133 18.4552 7.42362C18.4709 7.34592 18.5095 7.27467 18.5659 7.21898C19.1749 6.60898 18.9199 5.30898 18.2829 4.67298C18.2428 4.6366 18.2104 4.59244 18.1879 4.54317C18.1653 4.49391 18.153 4.44058 18.1516 4.38641C18.1503 4.33224 18.16 4.27836 18.1801 4.22805C18.2002 4.17774 18.2304 4.13204 18.2687 4.09372C18.307 4.0554 18.3527 4.02527 18.403 4.00515C18.4533 3.98504 18.5072 3.97535 18.5614 3.97668C18.6155 3.97802 18.6689 3.99034 18.7181 4.01291C18.7674 4.03548 18.8116 4.06783 18.8479 4.10798C19.7639 5.02398 20.0869 6.82898 19.1309 7.78498C19.0938 7.82212 19.0496 7.85156 19.0011 7.87164C18.9525 7.89171 18.9005 7.90202 18.8479 7.90198Z" fill="#49DCFF"/>
</svg>
