<svg width="24" height="25" viewBox="0 0 24 25" fill="none" xmlns="http://www.w3.org/2000/svg">
<path d="M16.533 23.5781C16.922 23.5779 17.295 23.4233 17.5701 23.1482C17.8452 22.8732 17.9998 22.5001 18 22.1111V2.54513C17.9998 2.15611 17.8452 1.78309 17.5701 1.50802C17.295 1.23295 16.922 1.07832 16.533 1.07813H7.46775C7.07874 1.07812 6.70564 1.23256 6.43042 1.50749C6.15521 1.78242 6.0004 2.15536 6 2.54437V22.1119C6.0006 22.5007 6.15537 22.8734 6.43038 23.1483C6.70539 23.4231 7.07818 23.5777 7.467 23.5781H16.533ZM6.75 22.1111V2.54513C6.7502 2.35503 6.8258 2.17277 6.96022 2.03835C7.09464 1.90393 7.2769 1.82832 7.467 1.82812H16.533C16.723 1.82812 16.9053 1.90356 17.0397 2.03786C17.1742 2.17217 17.2498 2.35434 17.25 2.54437V22.1119C17.2498 22.3019 17.1742 22.4841 17.0397 22.6184C16.9053 22.7527 16.723 22.8281 16.533 22.8281H7.46775C7.37353 22.8282 7.28021 22.8098 7.19314 22.7738C7.10606 22.7378 7.02693 22.685 6.96027 22.6184C6.89361 22.5518 6.84073 22.4727 6.80465 22.3857C6.76857 22.2986 6.75 22.2053 6.75 22.1111Z" fill="#49DCFF"/>
<path d="M7.875 7.82812H16.125C16.2245 7.82812 16.3198 7.78862 16.3902 7.71829C16.4605 7.64796 16.5 7.55258 16.5 7.45312V2.95312C16.5 2.85367 16.4605 2.75829 16.3902 2.68796C16.3198 2.61763 16.2245 2.57812 16.125 2.57812H7.875C7.77554 2.57812 7.68016 2.61763 7.60983 2.68796C7.53951 2.75829 7.5 2.85367 7.5 2.95312V7.45312C7.5 7.55258 7.53951 7.64796 7.60983 7.71829C7.68016 7.78862 7.77554 7.82812 7.875 7.82812ZM15.75 7.07812H8.25V5.57812H15.75V7.07812ZM8.25 3.32812H15.75V4.82812H8.25V3.32812ZM13.3125 15.3049L12.9375 15.9536C13.295 16.16 13.5743 16.4786 13.7323 16.8599C13.8902 17.2412 13.9179 17.664 13.8111 18.0627C13.7043 18.4614 13.4689 18.8137 13.1414 19.065C12.814 19.3162 12.4128 19.4524 12 19.4524C11.5872 19.4524 11.186 19.3162 10.8586 19.065C10.5311 18.8137 10.2957 18.4614 10.1889 18.0627C10.0821 17.664 10.1098 17.2412 10.2677 16.8599C10.4257 16.4786 10.705 16.16 11.0625 15.9536L10.6875 15.3049C10.1871 15.5938 9.79595 16.0398 9.57482 16.5736C9.35368 17.1075 9.31489 17.6994 9.46444 18.2576C9.614 18.8158 9.94356 19.309 10.402 19.6607C10.8604 20.0125 11.4221 20.2032 12 20.2032C12.5779 20.2032 13.1396 20.0125 13.598 19.6607C14.0564 19.309 14.386 18.8158 14.5356 18.2576C14.6851 17.6994 14.6463 17.1075 14.4252 16.5736C14.204 16.0398 13.8129 15.5938 13.3125 15.3049Z" fill="#49DCFF"/>
<path d="M11.625 14.2031H12.375V17.5781H11.625V14.2031ZM10.125 21.3281H11.25V22.0781H10.125V21.3281ZM12.75 21.3281H13.875V22.0781H12.75V21.3281ZM12 8.57812C11.6684 8.57937 11.3466 8.69044 11.0848 8.89399C10.8231 9.09753 10.6361 9.38207 10.5533 9.70312H8.625V10.4531H10.5533C10.6348 10.775 10.8214 11.0604 11.0834 11.2643C11.3454 11.4682 11.668 11.5789 12 11.5789C12.332 11.5789 12.6546 11.4682 12.9166 11.2643C13.1786 11.0604 13.3652 10.775 13.4468 10.4531H15.375V9.70312H13.4468C13.3639 9.38207 13.1769 9.09753 12.9152 8.89399C12.6534 8.69044 12.3316 8.57937 12 8.57812ZM12 10.8281C11.8011 10.8281 11.6103 10.7491 11.4697 10.6085C11.329 10.4678 11.25 10.277 11.25 10.0781C11.25 9.87921 11.329 9.68845 11.4697 9.5478C11.6103 9.40714 11.8011 9.32812 12 9.32812C12.1989 9.32812 12.3897 9.40714 12.5303 9.5478C12.671 9.68845 12.75 9.87921 12.75 10.0781C12.75 10.277 12.671 10.4678 12.5303 10.6085C12.3897 10.7491 12.1989 10.8281 12 10.8281Z" fill="#49DCFF"/>
</svg>
