<svg width="24" height="25" viewBox="0 0 24 25" fill="none" xmlns="http://www.w3.org/2000/svg">
<mask id="mask0_570_12679" style="mask-type:luminance" maskUnits="userSpaceOnUse" x="0" y="0" width="24" height="25">
<path d="M0 0.28125H24V24.2812H0V0.28125Z" fill="white"/>
</mask>
<g mask="url(#mask0_570_12679)">
<path d="M10.9908 2.22075V11.958H23.9208V0.28125L10.9908 2.22075ZM23.1123 11.1502H11.7985V2.90775L23.1115 1.25025V11.1502H23.1123ZM0.0820312 12.0787H10.183V2.301L0.0820312 3.7965V12.0787ZM0.889781 4.48275L9.37453 3.23025V11.271H0.889781V4.48275ZM10.9908 22.3425L23.9208 24.2812V12.888H10.9908V22.3425ZM11.7993 13.6957H23.1123V23.3527L11.7985 21.6547V13.6957H11.7993ZM0.0820312 20.7668L10.183 22.2615V12.888H0.0820312V20.7668ZM0.889781 13.6957H9.37453V21.3323L0.889781 20.0798V13.6957Z" fill="#49DCFF"/>
</g>
</svg>
