<svg width="24" height="25" viewBox="0 0 24 25" fill="none" xmlns="http://www.w3.org/2000/svg">
<g clip-path="url(#clip0_570_12578)">
<path d="M20.4 2.98494V0.710938H19.6V2.74294C19.4676 2.72279 19.3339 2.71209 19.2 2.71094H18.4V0.710938H17.6V2.71094H16.4V0.710938H15.6V2.71094H14.4V0.710938H13.6V2.71094H12.4V0.710938H11.6V2.71094H10.4V0.710938H9.6V2.71094H8.4V0.710938H7.6V2.71094H6.4V0.710938H5.6V2.71094H4.8C4.66608 2.71209 4.5324 2.72279 4.4 2.74294V0.710938H3.6V2.98494C3.01939 3.26233 2.55139 3.73033 2.274 4.31094H0V5.11094H2.032C2.01185 5.24334 2.00115 5.37701 2 5.51094V6.31094H0V7.11094H2V8.31094H0V9.11094H2V10.3109H0V11.1109H2V12.3109H0V13.1109H2V14.3109H0V15.1109H2V16.3109H0V17.1109H2V18.3109H0V19.1109H2V19.9109C2.001 20.0449 2.012 20.1789 2.032 20.3109H0V21.1109H2.274C2.551 21.6909 3.019 22.1599 3.6 22.4369V24.7109H4.4V22.6789C4.532 22.6989 4.666 22.7089 4.8 22.7109H5.6V24.7109H6.4V22.7109H7.6V24.7109H8.4V22.7109H9.6V24.7109H10.4V22.7109H11.6V24.7109H12.4V22.7109H13.6V24.7109H14.4V22.7109H15.6V24.7109H16.4V22.7109H17.6V24.7109H18.4V22.7109H19.2C19.334 22.7099 19.468 22.6989 19.6 22.6789V24.7109H20.4V22.4369C20.9806 22.1595 21.4486 21.6915 21.726 21.1109H24V20.3109H21.968C21.988 20.1779 21.998 20.0449 22 19.9109V19.1109H24V18.3109H22V17.1109H24V16.3109H22V15.1109H24V14.3109H22V13.1109H24V12.3109H22V11.1109H24V10.3109H22V9.11094H24V8.31094H22V7.11094H24V6.31094H22V5.51094C21.9989 5.37701 21.9882 5.24334 21.968 5.11094H24V4.31094H21.726C21.4486 3.73033 20.9806 3.26233 20.4 2.98494ZM21.2 19.9109C21.1992 20.4411 20.9882 20.9494 20.6133 21.3243C20.2384 21.6992 19.7302 21.9101 19.2 21.9109H4.8C4.26981 21.9101 3.76156 21.6992 3.38666 21.3243C3.01176 20.9494 2.80079 20.4411 2.8 19.9109V5.51094C2.80079 4.98075 3.01176 4.4725 3.38666 4.0976C3.76156 3.7227 4.26981 3.51173 4.8 3.51094H19.2C19.7302 3.51173 20.2384 3.7227 20.6133 4.0976C20.9882 4.4725 21.1992 4.98075 21.2 5.51094V19.9109Z" fill="#49DCFF"/>
<path d="M18.8 4.71094H5.2C4.88174 4.71094 4.57652 4.83737 4.35147 5.06241C4.12643 5.28745 4 5.59268 4 5.91094V19.5109C4 19.8292 4.12643 20.1344 4.35147 20.3595C4.57652 20.5845 4.88174 20.7109 5.2 20.7109H18.8C19.1183 20.7109 19.4235 20.5845 19.6485 20.3595C19.8736 20.1344 20 19.8292 20 19.5109V5.91094C20 5.59268 19.8736 5.28745 19.6485 5.06241C19.4235 4.83737 19.1183 4.71094 18.8 4.71094ZM19.2 19.5109C19.2 19.617 19.1579 19.7188 19.0828 19.7938C19.0078 19.8688 18.9061 19.9109 18.8 19.9109H5.2C5.09391 19.9109 4.99217 19.8688 4.91716 19.7938C4.84214 19.7188 4.8 19.617 4.8 19.5109V5.91094C4.8 5.80485 4.84214 5.70311 4.91716 5.62809C4.99217 5.55308 5.09391 5.51094 5.2 5.51094H18.8C18.9061 5.51094 19.0078 5.55308 19.0828 5.62809C19.1579 5.70311 19.2 5.80485 19.2 5.91094V19.5109Z" fill="#49DCFF"/>
<path d="M17.6016 6.3125H18.4016V7.1125H17.6016V6.3125ZM5.60156 18.3125H6.40156V19.1125H5.60156V18.3125ZM5.60156 7.1125V8.3125H6.40156V7.1125H7.60156V6.3125H6.40156C6.18939 6.3125 5.98591 6.39679 5.83588 6.54681C5.68585 6.69684 5.60156 6.90033 5.60156 7.1125ZM17.6016 18.3125H16.4016V19.1125H18.4016V17.1125H17.6016V18.3125Z" fill="#49DCFF"/>
</g>
<defs>
<clipPath id="clip0_570_12578">
<rect width="24" height="24" fill="white" transform="translate(0 0.710938)"/>
</clipPath>
</defs>
</svg>
