<svg width="22" height="23" viewBox="0 0 22 23" fill="none" xmlns="http://www.w3.org/2000/svg">
<path d="M1.39922 0.859375C1.08096 0.859375 0.775734 0.985803 0.550691 1.21085C0.325647 1.43589 0.199219 1.74112 0.199219 2.05938C0.199219 2.37763 0.325647 2.68286 0.550691 2.9079C0.775734 3.13295 1.08096 3.25937 1.39922 3.25937C1.71748 3.25937 2.0227 3.13295 2.24775 2.9079C2.47279 2.68286 2.59922 2.37763 2.59922 2.05938C2.59922 1.74112 2.47279 1.43589 2.24775 1.21085C2.0227 0.985803 1.71748 0.859375 1.39922 0.859375ZM1.39922 2.45937C1.29313 2.45937 1.19139 2.41723 1.11638 2.34222C1.04136 2.2672 0.999219 2.16546 0.999219 2.05938C0.999219 1.95329 1.04136 1.85155 1.11638 1.77653C1.19139 1.70152 1.29313 1.65937 1.39922 1.65937C1.50531 1.65937 1.60705 1.70152 1.68206 1.77653C1.75708 1.85155 1.79922 1.95329 1.79922 2.05938C1.79922 2.16546 1.75708 2.2672 1.68206 2.34222C1.60705 2.41723 1.50531 2.45937 1.39922 2.45937ZM1.39922 20.0594C1.24163 20.0594 1.08559 20.0904 0.939999 20.1507C0.794408 20.211 0.662121 20.2994 0.550691 20.4108C0.43926 20.5223 0.350869 20.6546 0.290563 20.8002C0.230258 20.9457 0.199219 21.1018 0.199219 21.2594C0.199219 21.417 0.230258 21.573 0.290563 21.7186C0.350869 21.8642 0.43926 21.9965 0.550691 22.1079C0.662121 22.2193 0.794408 22.3077 0.939999 22.368C1.08559 22.4283 1.24163 22.4594 1.39922 22.4594C1.71748 22.4594 2.0227 22.3329 2.24775 22.1079C2.47279 21.8829 2.59922 21.5776 2.59922 21.2594C2.59922 20.9411 2.47279 20.6359 2.24775 20.4108C2.0227 20.1858 1.71748 20.0594 1.39922 20.0594ZM1.39922 21.6594C1.29313 21.6594 1.19139 21.6172 1.11638 21.5422C1.04136 21.4672 0.999219 21.3655 0.999219 21.2594C0.999219 21.1533 1.04136 21.0515 1.11638 20.9765C1.19139 20.9015 1.29313 20.8594 1.39922 20.8594C1.50531 20.8594 1.60705 20.9015 1.68206 20.9765C1.75708 21.0515 1.79922 21.1533 1.79922 21.2594C1.79922 21.3655 1.75708 21.4672 1.68206 21.5422C1.60705 21.6172 1.50531 21.6594 1.39922 21.6594ZM20.5992 22.4594C20.7568 22.4594 20.9128 22.4283 21.0584 22.368C21.204 22.3077 21.3363 22.2193 21.4477 22.1079C21.5592 21.9965 21.6476 21.8642 21.7079 21.7186C21.7682 21.573 21.7992 21.417 21.7992 21.2594C21.7992 21.1018 21.7682 20.9457 21.7079 20.8002C21.6476 20.6546 21.5592 20.5223 21.4477 20.4108C21.3363 20.2994 21.204 20.211 21.0584 20.1507C20.9128 20.0904 20.7568 20.0594 20.5992 20.0594C20.281 20.0594 19.9757 20.1858 19.7507 20.4108C19.5256 20.6359 19.3992 20.9411 19.3992 21.2594C19.3992 21.5776 19.5256 21.8829 19.7507 22.1079C19.9757 22.3329 20.281 22.4594 20.5992 22.4594ZM20.5992 20.8594C20.7053 20.8594 20.807 20.9015 20.8821 20.9765C20.9571 21.0515 20.9992 21.1533 20.9992 21.2594C20.9992 21.3655 20.9571 21.4672 20.8821 21.5422C20.807 21.6172 20.7053 21.6594 20.5992 21.6594C20.4931 21.6594 20.3914 21.6172 20.3164 21.5422C20.2414 21.4672 20.1992 21.3655 20.1992 21.2594C20.1992 21.1533 20.2414 21.0515 20.3164 20.9765C20.3914 20.9015 20.4931 20.8594 20.5992 20.8594ZM20.5992 0.859375C20.4416 0.859375 20.2856 0.890414 20.14 0.950719C19.9944 1.01103 19.8621 1.09942 19.7507 1.21085C19.6393 1.32228 19.5509 1.45456 19.4906 1.60015C19.4303 1.74575 19.3992 1.90179 19.3992 2.05938C19.3992 2.21696 19.4303 2.373 19.4906 2.51859C19.5509 2.66419 19.6393 2.79647 19.7507 2.9079C19.8621 3.01933 19.9944 3.10772 20.14 3.16803C20.2856 3.22834 20.4416 3.25937 20.5992 3.25937C20.9175 3.25937 21.2227 3.13295 21.4477 2.9079C21.6728 2.68286 21.7992 2.37763 21.7992 2.05938C21.7992 1.74112 21.6728 1.43589 21.4477 1.21085C21.2227 0.985803 20.9175 0.859375 20.5992 0.859375ZM20.5992 2.45937C20.4931 2.45937 20.3914 2.41723 20.3164 2.34222C20.2414 2.2672 20.1992 2.16546 20.1992 2.05938C20.1992 1.95329 20.2414 1.85155 20.3164 1.77653C20.3914 1.70152 20.4931 1.65937 20.5992 1.65937C20.7053 1.65937 20.807 1.70152 20.8821 1.77653C20.9571 1.85155 20.9992 1.95329 20.9992 2.05938C20.9992 2.16546 20.9571 2.2672 20.8821 2.34222C20.807 2.41723 20.7053 2.45937 20.5992 2.45937ZM0.862219 10.2994C0.910564 10.3443 0.969287 10.3766 1.03315 10.3934C1.09701 10.4101 1.16403 10.4108 1.22822 10.3954C3.16003 9.93178 5.19538 10.2075 6.93422 11.1684C4.66091 11.4162 2.5752 12.5449 1.12422 14.3124C1.08206 14.3632 1.05315 14.4237 1.04006 14.4884C1.02697 14.5532 1.03012 14.6202 1.04922 14.6834C1.64178 16.643 2.80157 18.3832 4.38222 19.6844C4.43314 19.7269 4.49383 19.7561 4.55883 19.7693C4.62383 19.7825 4.6911 19.7793 4.75457 19.7601C4.81805 19.7408 4.87575 19.7061 4.92247 19.659C4.96919 19.612 5.00347 19.554 5.02222 19.4904C5.58605 17.5852 6.84245 15.9599 8.54422 14.9344C8.05151 16.0442 7.79768 17.2451 7.79922 18.4594C7.79922 19.5114 7.98922 20.5544 8.35922 21.5394C8.38225 21.6012 8.42024 21.6565 8.46979 21.7001C8.51935 21.7437 8.57893 21.7744 8.64322 21.7894C10.6364 22.2531 12.7222 22.1185 14.6392 21.4024C14.7011 21.3792 14.7563 21.3411 14.7998 21.2914C14.8434 21.2417 14.874 21.1821 14.8888 21.1177C14.9037 21.0533 14.9024 20.9862 14.885 20.9225C14.8676 20.8587 14.8347 20.8003 14.7892 20.7524C13.4218 19.3113 12.6431 17.4107 12.6062 15.4244C13.9571 17.269 15.9766 18.5113 18.2322 18.8854C18.2973 18.8961 18.3641 18.8906 18.4265 18.8694C18.489 18.8481 18.5452 18.8117 18.5902 18.7634C19.9894 17.2695 20.9165 15.3959 21.2552 13.3774C21.2661 13.3122 21.2607 13.2453 21.2395 13.1827C21.2182 13.1201 21.1818 13.0638 21.1335 13.0187C21.0852 12.9737 21.0264 12.9413 20.9625 12.9245C20.8986 12.9076 20.8315 12.9069 20.7672 12.9224C18.8355 13.386 16.8003 13.1106 15.0612 12.1504C17.3345 11.9014 19.4201 10.773 20.8722 9.00638C20.9144 8.95533 20.9432 8.89463 20.9561 8.8297C20.969 8.76478 20.9656 8.69766 20.9462 8.63438C20.3542 6.67548 19.1955 4.93569 17.6162 3.63437C17.5653 3.59232 17.5048 3.56353 17.44 3.55057C17.3753 3.53761 17.3083 3.54088 17.2451 3.56009C17.182 3.5793 17.1245 3.61386 17.0779 3.66067C17.0314 3.70748 16.9971 3.7651 16.9782 3.82838C16.415 5.73331 15.1593 7.35854 13.4582 8.38438C14.3784 6.29074 14.4434 3.92026 13.6392 1.77937C13.6162 1.7175 13.5782 1.66229 13.5286 1.61867C13.4791 1.57505 13.4195 1.54437 13.3552 1.52937C11.3619 1.06635 9.27643 1.20096 7.35922 1.91637C7.29733 1.93952 7.24215 1.97764 7.19859 2.02732C7.15503 2.077 7.12446 2.1367 7.1096 2.20108C7.09475 2.26546 7.09607 2.33252 7.11345 2.39626C7.13083 2.46 7.16374 2.51845 7.20922 2.56638C8.57701 4.00734 9.3561 5.90796 9.39322 7.89437C8.04223 6.04983 6.02278 4.80751 3.76722 4.43338C3.70213 4.42236 3.63532 4.42755 3.57271 4.44848C3.5101 4.46941 3.4536 4.50543 3.40822 4.55338C2.00775 6.04776 1.07993 7.92254 0.741219 9.94238C0.730494 10.0072 0.735925 10.0738 0.75703 10.136C0.778135 10.1983 0.814263 10.2544 0.862219 10.2994ZM10.9992 8.45938C11.7544 8.45932 12.4852 8.7265 13.0623 9.21361C13.6393 9.70072 14.0254 10.3763 14.1521 11.1208C14.2788 11.8652 14.138 12.6305 13.7546 13.2811C13.3712 13.9317 12.7699 14.4256 12.0572 14.6754L12.0512 14.6784C11.6114 14.8329 11.1432 14.8895 10.6792 14.8442C10.2153 14.7989 9.76686 14.6528 9.36529 14.4161C8.96372 14.1793 8.61871 13.8577 8.3544 13.4738C8.09009 13.0898 7.91287 12.6527 7.83512 12.1931C7.75737 11.7335 7.78097 11.2624 7.90429 10.8129C8.0276 10.3633 8.24763 9.94614 8.54901 9.59052C8.85038 9.23489 9.22581 8.9494 9.64904 8.75402C10.0723 8.55863 10.5331 8.45808 10.9992 8.45938ZM4.44922 18.6794C3.26731 17.5763 2.38328 16.1925 1.87922 14.6564C2.45802 13.9885 3.14408 13.4217 3.90922 12.9794C4.86213 12.4273 5.92024 12.0812 7.01522 11.9634C7.08122 12.8374 7.43522 13.6644 8.01922 14.3174C6.38015 15.3372 5.12483 16.871 4.44922 18.6794ZM9.03522 21.0554C8.38091 19.1632 8.46556 17.0938 9.27222 15.2614C10.0609 15.644 10.9541 15.7544 11.8122 15.5754C11.8769 17.5026 12.5769 19.3543 13.8032 20.8424C12.2571 21.3132 10.6172 21.3865 9.03522 21.0554ZM20.3552 13.8224C19.9902 15.3974 19.2335 16.8548 18.1552 18.0594C16.1892 17.683 14.4406 16.5716 13.2652 14.9514C13.9833 14.4556 14.5204 13.7395 14.7952 12.9114C16.497 13.82 18.4515 14.1403 20.3542 13.8224H20.3552ZM17.5492 4.63937C18.7312 5.74242 19.6152 7.12626 20.1192 8.66238C19.5404 9.33023 18.8543 9.89699 18.0892 10.3394C17.1364 10.8917 16.0783 11.2379 14.9832 11.3554C14.9171 10.4815 14.5642 9.65395 13.9792 9.00138C15.6183 7.98154 16.8736 6.44774 17.5492 4.63937ZM12.9632 2.26338C13.6175 4.15552 13.5329 6.22499 12.7262 8.05737C11.9375 7.67482 11.0443 7.5644 10.1862 7.74337C10.1218 5.81631 9.42219 3.96458 8.19622 2.47637C9.74203 2.00569 11.3816 1.93243 12.9632 2.26338ZM2.68522 6.85938C3.01522 6.28737 3.40522 5.75137 3.84522 5.25937C5.81049 5.63483 7.5586 6.74564 8.73322 8.36538C8.01514 8.8611 7.47806 9.57722 7.20322 10.4054C5.50157 9.49751 3.54754 9.17758 1.64522 9.49538C1.8593 8.57001 2.2098 7.68163 2.68522 6.85938Z" fill="#49DCFF"/>
</svg>
