<svg width="24" height="25" viewBox="0 0 24 25" fill="none" xmlns="http://www.w3.org/2000/svg">
<path d="M2.43811 18.9521C2.47286 18.987 2.51415 19.0146 2.55963 19.0335C2.60511 19.0524 2.65386 19.0621 2.70311 19.0621C2.75235 19.0621 2.80111 19.0524 2.84659 19.0335C2.89206 19.0146 2.93336 18.987 2.96811 18.9521L3.26511 18.6551C3.27911 18.6388 3.29632 18.6256 3.31567 18.6163C3.33501 18.607 3.35607 18.6017 3.37752 18.6009C3.39897 18.6001 3.42036 18.6038 3.44035 18.6116C3.46033 18.6194 3.47848 18.6313 3.49366 18.6465C3.50884 18.6617 3.52073 18.6798 3.52857 18.6998C3.53641 18.7198 3.54005 18.7412 3.53925 18.7627C3.53844 18.7841 3.53322 18.8052 3.5239 18.8245C3.51459 18.8438 3.50138 18.8611 3.48511 18.8751L3.18711 19.1721C3.11688 19.2424 3.07744 19.3377 3.07744 19.4371C3.07744 19.5364 3.11688 19.6318 3.18711 19.7021L4.12511 20.6401C4.19543 20.7103 4.29071 20.7499 4.39011 20.7501C4.43951 20.7502 4.48846 20.7406 4.53412 20.7217C4.57977 20.7028 4.62123 20.6751 4.65611 20.6401L4.92011 20.3741C4.93455 20.3596 4.95171 20.3482 4.97059 20.3405C4.98948 20.3328 5.00971 20.3289 5.03011 20.3291C5.06088 20.3289 5.091 20.3379 5.11664 20.3549C5.14228 20.372 5.16227 20.3962 5.17407 20.4246C5.18586 20.4531 5.18893 20.4844 5.18289 20.5145C5.17684 20.5447 5.16195 20.5724 5.14011 20.5941L4.87511 20.8591C4.80488 20.9294 4.76544 21.0247 4.76544 21.1241C4.76544 21.2234 4.80488 21.3188 4.87511 21.3891L7.23511 23.7491C7.30511 23.8191 7.40111 23.8591 7.50011 23.8591H7.50211C7.55173 23.8589 7.60082 23.8488 7.6465 23.8294C7.69217 23.81 7.73352 23.7816 7.76811 23.7461L23.1431 7.99606C23.212 7.92548 23.2504 7.83059 23.2498 7.73195C23.2492 7.63331 23.2098 7.53886 23.1401 7.46906L20.8901 5.21906C20.8198 5.14884 20.7245 5.10939 20.6251 5.10939C20.5257 5.10939 20.4304 5.14884 20.3601 5.21906L20.1401 5.43906C20.1257 5.45351 20.1085 5.46497 20.0896 5.47279C20.0708 5.4806 20.0505 5.48463 20.0301 5.48463C20.0097 5.48463 19.9895 5.4806 19.9706 5.47279C19.9517 5.46497 19.9346 5.45351 19.9201 5.43906C19.9057 5.42462 19.8942 5.40747 19.8864 5.3886C19.8786 5.36972 19.8745 5.34949 19.8745 5.32906C19.8745 5.30863 19.8786 5.28841 19.8864 5.26953C19.8942 5.25066 19.9057 5.23351 19.9201 5.21906L20.1401 4.99906C20.2103 4.92875 20.2498 4.83344 20.2498 4.73406C20.2498 4.63469 20.2103 4.53938 20.1401 4.46906L19.3901 3.71906C19.3198 3.64884 19.2245 3.60939 19.1251 3.60939C19.0257 3.60939 18.9304 3.64884 18.8601 3.71906L18.6401 3.93906C18.6109 3.96824 18.5714 3.98463 18.5301 3.98463C18.4889 3.98463 18.4493 3.96824 18.4201 3.93906C18.3909 3.90989 18.3745 3.87032 18.3745 3.82906C18.3745 3.78781 18.3909 3.74824 18.4201 3.71906L18.6401 3.49906C18.7103 3.42875 18.7498 3.33344 18.7498 3.23406C18.7498 3.13469 18.7103 3.03938 18.6401 2.96906L17.1401 1.46906C17.0703 1.39935 16.9759 1.35994 16.8772 1.35938C16.7786 1.35882 16.6837 1.39715 16.6131 1.46606L0.863108 16.8411C0.827567 16.8757 0.799264 16.917 0.779846 16.9626C0.760429 17.0083 0.750285 17.0573 0.750006 17.1069C0.749727 17.1565 0.759318 17.2057 0.77822 17.2516C0.797122 17.2974 0.824959 17.3391 0.860108 17.3741L2.43811 18.9521ZM19.1461 9.78506L19.7541 10.3941L19.1671 10.9961L18.5601 10.3891L19.1461 9.78506ZM19.6681 9.24706L20.2541 8.64306L20.8661 9.25506L20.2781 9.85706L19.6681 9.24706ZM18.0381 10.9271L18.6431 11.5331L18.0551 12.1341L17.4521 11.5301L18.0381 10.9271ZM16.9291 12.0691L17.5321 12.6711L16.9441 13.2731L16.3441 12.6731L16.9291 12.0691ZM15.8211 13.2111L16.4211 13.8101L15.8331 14.4111L15.2351 13.8141L15.8211 13.2111ZM14.7131 14.3521L15.3091 14.9481L14.7211 15.5501L14.1271 14.9561L14.7131 14.3521ZM13.6051 15.4941L14.1971 16.0871L13.6101 16.6881L13.0191 16.0981L13.6051 15.4941ZM12.4961 16.6361L13.0861 17.2261L12.4981 17.8271L11.9111 17.2401L12.4961 16.6361ZM11.3881 17.7781L11.9741 18.3641L11.3871 18.9661L10.8021 18.3811L11.3881 17.7781ZM10.2801 18.9191L10.8631 19.5011L10.2751 20.1031L9.69511 19.5231L10.2801 18.9191ZM9.17211 20.0601L9.75211 20.6401L8.97911 21.4311L8.40111 20.8541L9.17111 20.0601H9.17211ZM16.8721 2.26006L17.8461 3.23506C17.695 3.40787 17.6152 3.63163 17.6229 3.86105C17.6306 4.09047 17.7251 4.3084 17.8875 4.47071C18.0498 4.63303 18.2677 4.7276 18.4971 4.73528C18.7265 4.74295 18.9503 4.66316 19.1231 4.51206L19.3461 4.73506C19.195 4.90787 19.1152 5.13163 19.1229 5.36105C19.1306 5.59047 19.2251 5.8084 19.3875 5.97071C19.5498 6.13303 19.7677 6.2276 19.9971 6.23528C20.2265 6.24295 20.4503 6.16316 20.6231 6.01206L22.3481 7.73606L21.3901 8.71806L20.5151 7.84306C20.4804 7.80819 20.4391 7.78052 20.3936 7.76164C20.3481 7.74276 20.2993 7.73305 20.2501 7.73306H20.2471C20.1974 7.7335 20.1483 7.7438 20.1027 7.76337C20.057 7.78294 20.0157 7.81139 19.9811 7.84706L7.60611 20.5981C7.53763 20.6687 7.49967 20.7635 7.50042 20.8619C7.50116 20.9603 7.54056 21.0544 7.61011 21.1241L8.45511 21.9691L7.49711 22.9511L5.67011 21.1241C5.7967 20.9975 5.88292 20.8362 5.91785 20.6607C5.95278 20.4851 5.93486 20.3031 5.86635 20.1377C5.79784 19.9723 5.68182 19.831 5.53297 19.7315C5.38412 19.6321 5.20912 19.579 5.03011 19.5791C4.91121 19.5788 4.79344 19.602 4.68359 19.6475C4.57374 19.693 4.47399 19.7598 4.39011 19.8441L3.98311 19.4371L4.01511 19.4041C4.09915 19.32 4.16582 19.2202 4.21131 19.1104C4.25679 19.0006 4.28021 18.8829 4.28021 18.7641C4.28021 18.6452 4.25679 18.5275 4.21131 18.4177C4.16582 18.3079 4.09915 18.2081 4.01511 18.1241C3.93106 18.04 3.83129 17.9733 3.72147 17.9279C3.61166 17.8824 3.49397 17.859 3.37511 17.859C3.25625 17.859 3.13855 17.8824 3.02874 17.9279C2.91893 17.9733 2.81915 18.04 2.73511 18.1241L2.70311 18.1561L1.65911 17.1121L16.8721 2.26206V2.26006Z" fill="#49DCFF"/>
<path d="M6.48467 19.999C6.55498 20.0693 6.65029 20.1087 6.74967 20.1087C6.84905 20.1087 6.94436 20.0693 7.01467 19.999L12.6397 14.374C12.7097 14.3036 12.7489 14.2083 12.7489 14.109C12.7489 14.0098 12.7097 13.9145 12.6397 13.844L9.63967 10.844C9.56936 10.7738 9.47405 10.7344 9.37467 10.7344C9.27529 10.7344 9.17998 10.7738 9.10967 10.844L3.48467 16.469C3.41444 16.5394 3.375 16.6347 3.375 16.734C3.375 16.8334 3.41444 16.9287 3.48467 16.999L6.48467 19.999ZM9.37467 11.639L11.8447 14.109L10.4997 15.454L8.02967 12.984L9.37467 11.639ZM7.49967 13.514L9.96967 15.984L8.62467 17.329L6.15467 14.859L7.49967 13.514ZM5.62467 15.389L8.09467 17.859L6.74967 19.204L4.27967 16.734L5.62467 15.389ZM13.2347 13.249C13.305 13.3193 13.4003 13.3587 13.4997 13.3587C13.599 13.3587 13.6944 13.3193 13.7647 13.249L19.3897 7.62404C19.4597 7.5536 19.4989 7.45834 19.4989 7.35905C19.4989 7.25975 19.4597 7.16449 19.3897 7.09405L16.3897 4.09404C16.3194 4.02382 16.224 3.98438 16.1247 3.98438C16.0253 3.98438 15.93 4.02382 15.8597 4.09404L10.2347 9.71904C10.1647 9.78949 10.1254 9.88475 10.1254 9.98405C10.1254 10.0833 10.1647 10.1786 10.2347 10.249L13.2347 13.249ZM16.1247 4.88905L18.5947 7.35905L17.2497 8.70405L14.7797 6.23405L16.1247 4.88905ZM14.2497 6.76405L16.7197 9.23405L15.3747 10.579L12.9047 8.10905L14.2497 6.76405ZM12.3747 8.63904L14.8447 11.109L13.4997 12.454L11.0297 9.98405L12.3747 8.63904Z" fill="#49DCFF"/>
</svg>
