<svg width="14" height="21" viewBox="0 0 14 21" fill="none" xmlns="http://www.w3.org/2000/svg">
<path d="M13.2 0.96875H0.4C0.293913 0.96875 0.192172 1.01089 0.117157 1.08591C0.0421424 1.16092 0 1.26266 0 1.36875V2.96875C0 3.18875 0.179 3.36875 0.4 3.36875H13.2C13.3061 3.36875 13.4078 3.32661 13.4828 3.25159C13.5579 3.17658 13.6 3.07484 13.6 2.96875V1.36875C13.6 1.26266 13.5579 1.16092 13.4828 1.08591C13.4078 1.01089 13.3061 0.96875 13.2 0.96875ZM12.8 2.56875H0.8V1.76875H12.8V2.56875ZM13.2 4.16875H0.4C0.293913 4.16875 0.192172 4.21089 0.117157 4.28591C0.0421424 4.36092 0 4.46266 0 4.56875V6.16875C0 6.38875 0.179 6.56875 0.4 6.56875H13.2C13.3061 6.56875 13.4078 6.52661 13.4828 6.45159C13.5579 6.37658 13.6 6.27484 13.6 6.16875V4.56875C13.6 4.46266 13.5579 4.36092 13.4828 4.28591C13.4078 4.21089 13.3061 4.16875 13.2 4.16875ZM12.8 5.76875H0.8V4.96875H12.8V5.76875ZM13.2 7.36875H0.4C0.293913 7.36875 0.192172 7.41089 0.117157 7.48591C0.0421424 7.56092 0 7.66266 0 7.76875V9.36875C0 9.58875 0.179 9.76875 0.4 9.76875H13.2C13.3061 9.76875 13.4078 9.72661 13.4828 9.65159C13.5579 9.57658 13.6 9.47484 13.6 9.36875V7.76875C13.6 7.66266 13.5579 7.56092 13.4828 7.48591C13.4078 7.41089 13.3061 7.36875 13.2 7.36875ZM12.8 8.96875H0.8V8.16875H12.8V8.96875ZM12.4 11.3687C12.0817 11.3687 11.7765 11.4952 11.5515 11.7202C11.3264 11.9453 11.2 12.2505 11.2 12.5688C11.2 12.887 11.3264 13.1922 11.5515 13.4173C11.7765 13.6423 12.0817 13.7687 12.4 13.7687C12.7183 13.7687 13.0235 13.6423 13.2485 13.4173C13.4736 13.1922 13.6 12.887 13.6 12.5688C13.6 12.2505 13.4736 11.9453 13.2485 11.7202C13.0235 11.4952 12.7183 11.3687 12.4 11.3687ZM12.4 12.9688C12.2939 12.9688 12.1922 12.9266 12.1172 12.8516C12.0421 12.7766 12 12.6748 12 12.5688C12 12.4627 12.0421 12.3609 12.1172 12.2859C12.1922 12.2109 12.2939 12.1688 12.4 12.1688C12.5061 12.1688 12.6078 12.2109 12.6828 12.2859C12.7579 12.3609 12.8 12.4627 12.8 12.5688C12.8 12.6748 12.7579 12.7766 12.6828 12.8516C12.6078 12.9266 12.5061 12.9688 12.4 12.9688ZM12.4 14.5688C12.0817 14.5688 11.7765 14.6952 11.5515 14.9202C11.3264 15.1453 11.2 15.4505 11.2 15.7688C11.2 16.087 11.3264 16.3922 11.5515 16.6173C11.7765 16.8423 12.0817 16.9688 12.4 16.9688C12.7183 16.9688 13.0235 16.8423 13.2485 16.6173C13.4736 16.3922 13.6 16.087 13.6 15.7688C13.6 15.4505 13.4736 15.1453 13.2485 14.9202C13.0235 14.6952 12.7183 14.5688 12.4 14.5688ZM12.4 16.1688C12.2939 16.1688 12.1922 16.1266 12.1172 16.0516C12.0421 15.9766 12 15.8748 12 15.7688C12 15.6627 12.0421 15.5609 12.1172 15.4859C12.1922 15.4109 12.2939 15.3687 12.4 15.3687C12.5061 15.3687 12.6078 15.4109 12.6828 15.4859C12.7579 15.5609 12.8 15.6627 12.8 15.7688C12.8 15.8748 12.7579 15.9766 12.6828 16.0516C12.6078 16.1266 12.5061 16.1688 12.4 16.1688ZM12.4 17.7688C12.0817 17.7688 11.7765 17.8952 11.5515 18.1202C11.3264 18.3453 11.2 18.6505 11.2 18.9688C11.2 19.287 11.3264 19.5922 11.5515 19.8173C11.7765 20.0423 12.0817 20.1688 12.4 20.1688C12.7183 20.1688 13.0235 20.0423 13.2485 19.8173C13.4736 19.5922 13.6 19.287 13.6 18.9688C13.6 18.6505 13.4736 18.3453 13.2485 18.1202C13.0235 17.8952 12.7183 17.7688 12.4 17.7688ZM12.4 19.3687C12.2939 19.3687 12.1922 19.3266 12.1172 19.2516C12.0421 19.1766 12 19.0748 12 18.9688C12 18.8627 12.0421 18.7609 12.1172 18.6859C12.1922 18.6109 12.2939 18.5688 12.4 18.5688C12.5061 18.5688 12.6078 18.6109 12.6828 18.6859C12.7579 18.7609 12.8 18.8627 12.8 18.9688C12.8 19.0748 12.7579 19.1766 12.6828 19.2516C12.6078 19.3266 12.5061 19.3687 12.4 19.3687ZM9.6 11.3687H2.4C2.18783 11.3687 1.98434 11.453 1.83431 11.6031C1.68429 11.7531 1.6 11.9566 1.6 12.1688V19.3687C1.6 19.5809 1.68429 19.7844 1.83431 19.9344C1.98434 20.0845 2.18783 20.1688 2.4 20.1688H9.6C9.81217 20.1688 10.0157 20.0845 10.1657 19.9344C10.3157 19.7844 10.4 19.5809 10.4 19.3687V12.1688C10.4 11.9566 10.3157 11.7531 10.1657 11.6031C10.0157 11.453 9.81217 11.3687 9.6 11.3687ZM9.6 19.3687H2.4V12.1688H9.6V19.3687Z" fill="#49DCFF"/>
</svg>
