<svg width="24" height="25" viewBox="0 0 24 25" fill="none" xmlns="http://www.w3.org/2000/svg">
<g clip-path="url(#clip0_570_12615)">
<mask id="mask0_570_12615" style="mask-type:luminance" maskUnits="userSpaceOnUse" x="0" y="0" width="32" height="33">
<path d="M0 0.515625H32V32.5156H0V0.515625Z" fill="white"/>
</mask>
<g mask="url(#mask0_570_12615)">
<path d="M21.3754 22.6756C21.2821 22.6756 21.1925 22.7127 21.1265 22.7787C21.0605 22.8447 21.0234 22.9343 21.0234 23.0276V23.8126H2.97744V3.50962C2.97744 3.41627 2.94035 3.32674 2.87434 3.26072C2.80833 3.19471 2.71879 3.15762 2.62544 3.15762C2.53208 3.15762 2.44255 3.19471 2.37654 3.26072C2.31052 3.32674 2.27344 3.41627 2.27344 3.50962V24.1636C2.27344 24.3586 2.43144 24.5156 2.62544 24.5156H21.3754C21.4688 24.5156 21.5583 24.4785 21.6243 24.4125C21.6904 24.3465 21.7274 24.257 21.7274 24.1636V23.0276C21.7274 22.9343 21.6904 22.8447 21.6243 22.7787C21.5583 22.7127 21.4688 22.6756 21.3754 22.6756ZM21.3754 0.515625H2.62544C2.53208 0.515625 2.44255 0.552711 2.37654 0.618723C2.31052 0.684736 2.27344 0.774269 2.27344 0.867625V1.99762C2.27344 2.09098 2.31052 2.18051 2.37654 2.24653C2.44255 2.31254 2.53208 2.34962 2.62544 2.34962C2.71879 2.34962 2.80833 2.31254 2.87434 2.24653C2.94035 2.18051 2.97744 2.09098 2.97744 1.99762V1.21863H21.0234V21.5096C21.0234 21.603 21.0605 21.6925 21.1265 21.7585C21.1925 21.8245 21.2821 21.8616 21.3754 21.8616C21.4688 21.8616 21.5583 21.8245 21.6243 21.7585C21.6904 21.6925 21.7274 21.603 21.7274 21.5096V0.867625C21.7274 0.774269 21.6904 0.684736 21.6243 0.618723C21.5583 0.552711 21.4688 0.515625 21.3754 0.515625Z" fill="#49DCFF"/>
<path d="M20.3207 17.8894C20.3207 17.7456 20.2778 17.6052 20.1977 17.4859C20.1176 17.3665 20.0037 17.2738 19.8707 17.2194C19.738 17.1643 19.592 17.1499 19.4511 17.178C19.3103 17.2061 19.181 17.2755 19.0797 17.3774L18.2657 18.1934L17.9117 17.6424L20.2017 15.3524C20.2345 15.3198 20.2606 15.281 20.2785 15.2382C20.2963 15.1955 20.3056 15.1497 20.3057 15.1034L20.3187 2.28938C20.3207 2.27438 20.3187 2.28938 20.3187 2.27438V2.26438L20.3177 2.23938L20.3137 2.21538C20.3137 2.21137 20.3137 2.20838 20.3117 2.20538C20.3098 2.1956 20.3075 2.18592 20.3047 2.17637V2.17238C20.3015 2.16255 20.2978 2.15287 20.2937 2.14337L20.2917 2.13938C20.2881 2.13054 20.2841 2.12187 20.2797 2.11338L20.2777 2.10838C20.2734 2.1005 20.2687 2.09283 20.2637 2.08538L20.2597 2.07937C20.255 2.07219 20.25 2.06518 20.2447 2.05838L20.2397 2.05137C20.2327 2.04304 20.2254 2.03503 20.2177 2.02738L20.2157 2.02637C20.2078 2.01796 20.1994 2.00994 20.1907 2.00237L20.1847 1.99837C20.1776 1.99274 20.1702 1.9874 20.1627 1.98237L20.1577 1.97938C20.1499 1.97407 20.1419 1.96907 20.1337 1.96437L20.1297 1.96237C20.1209 1.95766 20.1119 1.95332 20.1027 1.94937H20.0987C20.0889 1.94525 20.0788 1.94158 20.0687 1.93838H20.0657C20.0558 1.93495 20.0458 1.93194 20.0357 1.92937H20.0277L20.0017 1.92437C19.9901 1.92301 19.9784 1.92234 19.9667 1.92238H16.5087C16.4187 1.92718 16.334 1.9663 16.272 2.0317C16.21 2.09709 16.1754 2.18377 16.1754 2.27388C16.1754 2.36398 16.21 2.45066 16.272 2.51605C16.334 2.58145 16.4187 2.62057 16.5087 2.62537H16.6867V2.71938C16.6875 3.40922 16.9619 4.07059 17.4497 4.55839C17.9375 5.04619 18.5988 5.32058 19.2887 5.32137H19.6117L19.6017 14.9574L17.5217 17.0364L16.9617 16.1604C17.6522 15.4933 18.2015 14.6942 18.5767 13.8104C18.9519 12.9267 19.1454 11.9765 19.1457 11.0164C19.1457 7.07437 15.9397 3.86837 11.9977 3.86837C8.05569 3.86837 4.84969 7.07437 4.84969 11.0164C4.84969 14.9584 8.05569 18.1644 11.9977 18.1644C13.098 18.1642 14.1835 17.9103 15.1697 17.4224L15.7837 18.7744L14.5157 20.0434C14.4498 20.1091 14.4128 20.1983 14.4127 20.2914V22.4074H8.95869L4.38169 17.8304V5.32037H4.70769C5.39727 5.31985 6.05849 5.04581 6.54629 4.55839C7.03409 4.07097 7.30863 3.40996 7.30969 2.72038V2.62537H15.0097C15.0574 2.62792 15.1052 2.62072 15.15 2.6042C15.1949 2.58769 15.2359 2.56221 15.2706 2.52932C15.3053 2.49643 15.3329 2.45682 15.3518 2.4129C15.3707 2.36898 15.3804 2.32168 15.3804 2.27388C15.3804 2.22607 15.3707 2.17877 15.3518 2.13485C15.3329 2.09093 15.3053 2.05132 15.2706 2.01843C15.2359 1.98554 15.1949 1.96006 15.15 1.94355C15.1052 1.92703 15.0574 1.91983 15.0097 1.92238H4.03069C3.9375 1.92264 3.84823 1.95984 3.78243 2.02583C3.71664 2.09181 3.67969 2.18119 3.67969 2.27438V17.9754C3.67969 18.0684 3.71669 18.1584 3.78269 18.2244L8.56569 23.0074C8.6315 23.0731 8.72066 23.1102 8.81369 23.1104H14.7667C14.8129 23.1104 14.8587 23.1013 14.9014 23.0836C14.9441 23.0659 14.9829 23.04 15.0156 23.0073C15.0483 22.9746 15.0742 22.9358 15.0919 22.8931C15.1096 22.8504 15.1187 22.8046 15.1187 22.7584V20.4374L16.0967 19.4584L16.3807 20.0854L15.9987 20.4684C15.9222 20.5451 15.8616 20.6362 15.8204 20.7364C15.7792 20.8366 15.7582 20.944 15.7587 21.0524L15.7647 22.2904C15.7667 22.7404 16.1347 23.1064 16.5847 23.1064H19.4147C19.5349 23.1068 19.654 23.0833 19.7651 23.0373C19.8761 22.9913 19.977 22.9237 20.0617 22.8384C20.1469 22.7534 20.2144 22.6524 20.2602 22.5412C20.3061 22.4299 20.3293 22.3107 20.3287 22.1904L20.3217 17.8904L20.3207 17.8894ZM19.2887 4.61838C18.7851 4.61811 18.3023 4.41795 17.9462 4.06188C17.5901 3.7058 17.39 3.22294 17.3897 2.71938V2.62637H19.6147L19.6127 4.61938L19.2887 4.61838ZM4.38169 2.62537H6.60669V2.71938C6.60642 3.22294 6.40626 3.7058 6.05019 4.06188C5.69412 4.41795 5.21125 4.61811 4.70769 4.61838H4.38169V2.62537ZM14.3617 14.5104L14.5547 15.8604C14.5827 16.0594 14.6397 16.2534 14.7237 16.4374L14.8797 16.7824C13.9851 17.2293 12.9988 17.4621 11.9987 17.4624C10.2898 17.4603 8.65161 16.7804 7.44337 15.572C6.23513 14.3636 5.55554 12.7252 5.55369 11.0164C5.5558 9.3077 6.23551 7.66962 7.44372 6.46141C8.65194 5.2532 10.29 4.57349 11.9987 4.57137C13.7074 4.57349 15.3454 5.2532 16.5537 6.46141C17.7619 7.66962 18.4416 9.3077 18.4437 11.0164C18.4428 12.7167 17.7708 14.3479 16.5737 15.5554L16.5137 15.4624C16.4052 15.2929 16.2732 15.1397 16.1217 15.0074L15.0937 14.1114C15.0255 14.0513 14.9403 14.0137 14.8499 14.0039C14.7595 13.994 14.6683 14.0124 14.5887 14.0564C14.5086 14.0994 14.4437 14.1661 14.4029 14.2473C14.3621 14.3286 14.3484 14.4204 14.3617 14.5104ZM15.3637 16.1464C15.3078 16.0234 15.2698 15.8931 15.2507 15.7594L15.1557 15.0974L15.6597 15.5374C15.7617 15.6254 15.8497 15.7274 15.9227 15.8424L18.6147 20.0424L18.6737 20.1354C18.758 20.2942 18.776 20.4799 18.7237 20.652C18.6714 20.824 18.5531 20.9683 18.3947 21.0534C18.2368 21.1389 18.0517 21.1589 17.8792 21.1092C17.7067 21.0594 17.5607 20.9438 17.4727 20.7874L17.4287 20.6914L17.1267 20.0284L17.1257 20.0254L15.3637 16.1454V16.1464ZM19.5637 22.3414C19.5441 22.3611 19.5207 22.3768 19.4949 22.3875C19.4692 22.3981 19.4416 22.4035 19.4137 22.4034H16.5837C16.5527 22.4031 16.5231 22.3907 16.5012 22.3688C16.4794 22.3469 16.4669 22.3173 16.4667 22.2864L16.4607 21.0474C16.4607 21.0174 16.4727 20.9874 16.4947 20.9654L16.6907 20.7694L16.7897 20.9854L16.8407 21.0954C16.9573 21.3206 17.1339 21.5093 17.3509 21.6406C17.5679 21.7719 17.817 21.8407 18.0707 21.8394C18.2987 21.8394 18.5247 21.7834 18.7307 21.6704C19.0567 21.4934 19.2937 21.2004 19.3987 20.8454C19.4516 20.6675 19.4679 20.4807 19.4468 20.2963C19.4256 20.1119 19.3674 19.9337 19.2757 19.7724L19.2087 19.6654L18.6537 18.7994L19.5777 17.8744C19.5827 17.8684 19.5877 17.8634 19.6027 17.8694C19.6177 17.8754 19.6177 17.8824 19.6177 17.8904L19.6247 22.1924C19.6247 22.2201 19.6192 22.2475 19.6086 22.2731C19.5979 22.2986 19.5823 22.3219 19.5627 22.3414H19.5637Z" fill="#49DCFF"/>
<path d="M11.9999 7.85156C11.1611 7.85262 10.357 8.18631 9.76382 8.77945C9.17068 9.37258 8.837 10.1767 8.83594 11.0156C8.837 11.8544 9.17068 12.6585 9.76382 13.2517C10.357 13.8448 11.1611 14.1785 11.9999 14.1796C12.8388 14.1785 13.6429 13.8448 14.2361 13.2517C14.8292 12.6585 15.1629 11.8544 15.1639 11.0156C15.1629 10.1767 14.8292 9.37258 14.2361 8.77945C13.6429 8.18631 12.8388 7.85262 11.9999 7.85156ZM11.9999 13.4766C11.3477 13.4755 10.7224 13.2158 10.2613 12.7545C9.80013 12.2932 9.54073 11.6678 9.53994 11.0156C9.54099 10.3635 9.80051 9.73836 10.2616 9.27725C10.7227 8.81614 11.3478 8.55662 11.9999 8.55556C12.652 8.55662 13.2771 8.81614 13.7383 9.27725C14.1994 9.73836 14.4589 10.3635 14.4599 11.0156C14.4589 11.6677 14.1994 12.2928 13.7383 12.7539C13.2771 13.215 12.652 13.4745 11.9999 13.4756V13.4766Z" fill="#49DCFF"/>
<path d="M12.0022 9.72656C11.2922 9.72656 10.7122 10.3066 10.7122 11.0166C10.7122 11.7266 11.2922 12.3066 12.0022 12.3066C12.3353 12.2934 12.6504 12.1519 12.8814 11.9116C13.1124 11.6713 13.2415 11.3509 13.2415 11.0176C13.2415 10.6842 13.1124 10.3638 12.8814 10.1235C12.6504 9.88323 12.3353 9.74168 12.0022 9.72856V9.72656ZM12.0022 11.6026C11.9232 11.6058 11.8443 11.5929 11.7703 11.5649C11.6963 11.5368 11.6288 11.4941 11.5717 11.4392C11.5147 11.3844 11.4693 11.3186 11.4384 11.2458C11.4074 11.173 11.3915 11.0947 11.3915 11.0155C11.3916 10.9364 11.4077 10.8581 11.4388 10.7854C11.4698 10.7126 11.5153 10.6469 11.5725 10.5921C11.6296 10.5374 11.6972 10.4948 11.7712 10.4669C11.8453 10.4389 11.9242 10.4262 12.0032 10.4296C12.1546 10.4359 12.2976 10.5006 12.4024 10.61C12.5072 10.7194 12.5657 10.8651 12.5655 11.0165C12.5654 11.168 12.5067 11.3136 12.4017 11.4228C12.2967 11.532 12.1536 11.5964 12.0022 11.6026ZM4.87724 20.9306C4.60539 20.9424 4.34859 21.0587 4.16041 21.2553C3.97223 21.4518 3.86719 21.7134 3.86719 21.9856C3.86719 22.2577 3.97223 22.5193 4.16041 22.7158C4.34859 22.9124 4.60539 23.0287 4.87724 23.0406C5.1491 23.0287 5.40589 22.9124 5.59407 22.7158C5.78225 22.5193 5.8873 22.2577 5.8873 21.9856C5.8873 21.7134 5.78225 21.4518 5.59407 21.2553C5.40589 21.0587 5.1491 20.9424 4.87724 20.9306ZM4.87724 22.3366C4.78389 22.3366 4.69435 22.2995 4.62834 22.2335C4.56233 22.1675 4.52524 22.0779 4.52524 21.9846C4.52524 21.8912 4.56233 21.8017 4.62834 21.7357C4.69435 21.6696 4.78389 21.6326 4.87724 21.6326C4.9706 21.6326 5.06013 21.6696 5.12614 21.7357C5.19216 21.8017 5.22924 21.8912 5.22924 21.9846C5.22924 22.0779 5.19216 22.1675 5.12614 22.2335C5.06013 22.2995 4.9706 22.3366 4.87724 22.3366ZM18.1072 20.8166C18.2006 20.8166 18.2901 20.7795 18.3561 20.7135C18.4222 20.6475 18.4592 20.5579 18.4592 20.4646C18.4592 20.3712 18.4222 20.2817 18.3561 20.2157C18.2901 20.1496 18.2006 20.1126 18.1072 20.1126C18.0173 20.1174 17.9325 20.1565 17.8706 20.2219C17.8086 20.2873 17.774 20.374 17.774 20.4641C17.774 20.5542 17.8086 20.6409 17.8706 20.7062C17.9325 20.7716 18.0173 20.8118 18.1072 20.8166Z" fill="#49DCFF"/>
</g>
</g>
<defs>
<clipPath id="clip0_570_12615">
<rect width="24" height="24" fill="white" transform="translate(0 0.515625)"/>
</clipPath>
</defs>
</svg>
