<svg width="24" height="25" viewBox="0 0 24 25" fill="none" xmlns="http://www.w3.org/2000/svg">
<g clip-path="url(#clip0_570_12631)">
<mask id="mask0_570_12631" style="mask-type:luminance" maskUnits="userSpaceOnUse" x="0" y="0" width="24" height="25">
<path d="M0 0.46875H24V24.4688H0V0.46875Z" fill="white"/>
</mask>
<g mask="url(#mask0_570_12631)">
<path d="M7.19869 24.4688H10.3989C10.505 24.4688 10.6066 24.4266 10.6816 24.3517C10.7566 24.2767 10.7987 24.175 10.7987 24.069C10.7987 23.7507 10.9251 23.4455 11.1502 23.2205C11.3752 22.9954 11.6804 22.869 11.9987 22.869C12.3169 22.869 12.6222 22.9954 12.8472 23.2205C13.0723 23.4455 13.1987 23.7507 13.1987 24.069C13.1987 24.2895 13.3779 24.4688 13.5984 24.4688H16.7987C17.2412 24.4688 17.5989 24.1103 17.5989 23.6685V21.2685C17.5989 20.8267 17.2404 20.469 16.7987 20.469V19.6688C17.2412 19.6688 17.5989 19.3103 17.5989 18.8685V14.0685C17.5989 13.6267 17.2404 13.269 16.7987 13.269V12.4688C17.2412 12.4688 17.5989 12.1102 17.5989 11.6685V6.8685C17.5989 6.42675 17.2404 6.069 16.7987 6.069V5.26875C17.2412 5.26875 17.5989 4.91025 17.5989 4.4685V3.669C17.5989 3.2265 17.2404 2.86875 16.7987 2.86875V1.269C16.7987 0.8265 16.4409 0.46875 15.9984 0.46875H7.99894C7.55644 0.46875 7.19869 0.82725 7.19869 1.269V2.86875C6.75694 2.86875 6.39844 3.22725 6.39844 3.669V4.4685C6.39844 4.911 6.75694 5.26875 7.19869 5.26875V6.069C6.75694 6.069 6.39844 6.42675 6.39844 6.8685V11.6685C6.39844 12.111 6.75694 12.4688 7.19869 12.4688V13.269C6.75694 13.269 6.39844 13.6267 6.39844 14.0685V18.8685C6.39844 19.311 6.75694 19.6688 7.19869 19.6688V20.469C6.75694 20.469 6.39844 20.8267 6.39844 21.2685V23.6685C6.39844 24.111 6.75694 24.4688 7.19869 24.4688ZM7.99894 1.269H9.19894V1.66875C9.19894 1.77477 9.24105 1.87645 9.31602 1.95142C9.39099 2.02638 9.49267 2.0685 9.59869 2.0685C9.70471 2.0685 9.80639 2.02638 9.88135 1.95142C9.95632 1.87645 9.99844 1.77477 9.99844 1.66875V1.269H10.7987V1.66875C10.7987 1.77487 10.8408 1.87664 10.9159 1.95168C10.9909 2.02672 11.0927 2.06888 11.1988 2.06888C11.3049 2.06888 11.4067 2.02672 11.4817 1.95168C11.5568 1.87664 11.5989 1.77487 11.5989 1.66875V1.269H12.3984V1.66875C12.3984 1.77487 12.4406 1.87664 12.5156 1.95168C12.5907 2.02672 12.6924 2.06887 12.7986 2.06887C12.9047 2.06887 13.0065 2.02672 13.0815 1.95168C13.1565 1.87664 13.1987 1.77487 13.1987 1.66875V1.269H13.9989V1.66875C13.9989 1.77477 14.0411 1.87645 14.116 1.95142C14.191 2.02638 14.2927 2.0685 14.3987 2.0685C14.5047 2.0685 14.6064 2.02638 14.6814 1.95142C14.7563 1.87645 14.7984 1.77477 14.7984 1.66875V1.269H15.9984V2.86875H7.99894V1.269ZM7.19869 21.2685C7.64119 21.2685 7.99894 20.9107 7.99894 20.469V19.6688C7.99894 19.2262 7.64044 18.8685 7.19869 18.8685V14.0685C7.64119 14.0685 7.99894 13.7107 7.99894 13.269V12.4688C7.99894 12.0262 7.64044 11.6685 7.19869 11.6685V6.8685C7.64119 6.8685 7.99894 6.51075 7.99894 6.069V5.26875C7.99894 4.82625 7.64044 4.4685 7.19869 4.4685V3.669H16.7987V4.4685C16.3569 4.4685 15.9984 4.827 15.9984 5.26875V6.069C15.9984 6.51075 16.3569 6.8685 16.7987 6.8685V11.6685C16.3569 11.6685 15.9984 12.027 15.9984 12.4688V13.269C15.9984 13.7107 16.3569 14.0685 16.7987 14.0685V18.8685C16.3569 18.8685 15.9984 19.227 15.9984 19.6688V20.469C15.9984 20.9107 16.3569 21.2685 16.7987 21.2685V23.6685H13.9584C13.8661 23.2169 13.6207 22.811 13.2636 22.5195C12.9065 22.2279 12.4597 22.0687 11.9987 22.0687C11.5377 22.0687 11.0909 22.2279 10.7338 22.5195C10.3767 22.811 10.1312 23.2169 10.0389 23.6685H7.19869V21.2685Z" fill="#49DCFF"/>
<path d="M9.59713 10.4687H14.3971C14.8396 10.4687 15.1974 10.1102 15.1974 9.6685V5.269C15.1974 4.8265 14.8389 4.46875 14.3971 4.46875H9.59713C9.15538 4.46875 8.79688 4.82725 8.79688 5.269V9.6685C8.79688 10.111 9.15538 10.4687 9.59713 10.4687ZM9.59713 5.269H14.3971V9.6685H9.59713V5.269ZM9.59713 16.0682H10.7971C11.2396 16.0682 11.5974 15.7105 11.5974 15.2687V12.0685C11.5974 11.6267 11.2389 11.2682 10.7971 11.2682H9.59713C9.15538 11.2682 8.79688 11.6267 8.79688 12.0685V15.2687C8.79688 15.7105 9.15538 16.0682 9.59713 16.0682ZM9.59713 12.0685H10.7971V15.2687H9.59713V12.0685ZM14.3971 11.2682H13.1971C12.7554 11.2682 12.3969 11.6267 12.3969 12.0685V15.2687C12.3969 15.7105 12.7554 16.0682 13.1971 16.0682H14.3971C14.8396 16.0682 15.1974 15.7105 15.1974 15.2687V12.0685C15.1974 11.6267 14.8389 11.2682 14.3971 11.2682ZM13.1971 15.2687V12.0685H14.3971V15.2687H13.1971ZM15.1974 20.4685V17.6688C15.1974 17.2263 14.8389 16.8685 14.3971 16.8685H9.59713C9.15538 16.8685 8.79688 17.227 8.79688 17.6688V20.4685C8.79688 20.911 9.15538 21.2687 9.59713 21.2687H14.3971C14.8396 21.2687 15.1974 20.9102 15.1974 20.4685ZM9.59713 17.6688H14.3971V20.4685H9.59713V17.6688Z" fill="#49DCFF"/>
<path d="M10.7986 6.86981C10.8511 6.86981 10.903 6.85947 10.9515 6.83938C11 6.81929 11.0441 6.78985 11.0812 6.75273C11.1183 6.71561 11.1478 6.67154 11.1679 6.62304C11.188 6.57454 11.1983 6.52256 11.1983 6.47006C11.1983 6.41757 11.188 6.36558 11.1679 6.31708C11.1478 6.26858 11.1183 6.22452 11.0812 6.1874C11.0441 6.15028 11 6.12083 10.9515 6.10074C10.903 6.08065 10.8511 6.07031 10.7986 6.07031C10.6925 6.07031 10.5909 6.11243 10.5159 6.1874C10.4409 6.26236 10.3988 6.36404 10.3988 6.47006C10.3988 6.57608 10.4409 6.67776 10.5159 6.75273C10.5909 6.8277 10.6925 6.86981 10.7986 6.86981ZM13.1986 6.86981C13.2511 6.86981 13.303 6.85947 13.3515 6.83938C13.4 6.81929 13.4441 6.78985 13.4812 6.75273C13.5183 6.71561 13.5478 6.67154 13.5679 6.62304C13.588 6.57454 13.5983 6.52256 13.5983 6.47006C13.5983 6.41757 13.588 6.36558 13.5679 6.31708C13.5478 6.26858 13.5183 6.22452 13.4812 6.1874C13.4441 6.15028 13.4 6.12083 13.3515 6.10074C13.303 6.08065 13.2511 6.07031 13.1986 6.07031C13.0925 6.07031 12.9909 6.11243 12.9159 6.1874C12.8409 6.26236 12.7988 6.36404 12.7988 6.47006C12.7988 6.57608 12.8409 6.67776 12.9159 6.75273C12.9909 6.8277 13.0925 6.86981 13.1986 6.86981ZM10.7986 8.87006C10.9047 8.87006 11.0065 8.82791 11.0815 8.75287C11.1565 8.67783 11.1987 8.57606 11.1987 8.46994C11.1987 8.36382 11.1565 8.26204 11.0815 8.18701C11.0065 8.11197 10.9047 8.06981 10.7986 8.06981C10.6924 8.06981 10.5907 8.11197 10.5156 8.18701C10.4406 8.26204 10.3984 8.36382 10.3984 8.46994C10.3984 8.57606 10.4406 8.67783 10.5156 8.75287C10.5907 8.82791 10.6924 8.87006 10.7986 8.87006ZM13.1986 8.87006C13.3047 8.87006 13.4065 8.82791 13.4815 8.75287C13.5565 8.67783 13.5987 8.57606 13.5987 8.46994C13.5987 8.36382 13.5565 8.26204 13.4815 8.18701C13.4065 8.11197 13.3047 8.06981 13.1986 8.06981C13.0924 8.06981 12.9907 8.11197 12.9156 8.18701C12.8406 8.26204 12.7984 8.36382 12.7984 8.46994C12.7984 8.57606 12.8406 8.67783 12.9156 8.75287C12.9907 8.82791 13.0924 8.87006 13.1986 8.87006Z" fill="#49DCFF"/>
</g>
</g>
<defs>
<clipPath id="clip0_570_12631">
<rect width="24" height="24" fill="white" transform="translate(0 0.46875)"/>
</clipPath>
</defs>
</svg>
