<svg width="24" height="25" viewBox="0 0 24 25" fill="none" xmlns="http://www.w3.org/2000/svg">
<g clip-path="url(#clip0_570_12645)">
<path d="M19.4739 14.1989V1.61019C19.4739 0.957687 18.9459 0.429688 18.2942 0.429688H5.70394C5.05144 0.429688 4.52344 0.958438 4.52344 1.61019V14.1989C4.52344 14.8507 5.05144 15.3787 5.70394 15.3787V22.0672C5.39085 22.0672 5.09058 22.1916 4.8692 22.4129C4.64781 22.6343 4.52344 22.9346 4.52344 23.2477C4.52344 23.5608 4.64781 23.861 4.8692 24.0824C5.09058 24.3038 5.39085 24.4282 5.70394 24.4282H18.2942C18.6073 24.4282 18.9075 24.3038 19.1289 24.0824C19.3503 23.861 19.4747 23.5608 19.4747 23.2477C19.4747 22.9346 19.3503 22.6343 19.1289 22.4129C18.9075 22.1916 18.6073 22.0672 18.2942 22.0672V15.3787C18.9459 15.3787 19.4739 14.8507 19.4739 14.1989ZM18.6872 23.2484C18.6872 23.4659 18.5109 23.6422 18.2942 23.6422H5.70394C5.59951 23.6422 5.49936 23.6007 5.42551 23.5269C5.35167 23.453 5.31019 23.3529 5.31019 23.2484C5.31019 23.144 5.35167 23.0439 5.42551 22.97C5.49936 22.8962 5.59951 22.8547 5.70394 22.8547H18.2942C18.5117 22.8547 18.6872 23.0317 18.6872 23.2484ZM10.8047 21.5467C11.6556 21.7509 12.5447 21.7333 13.3868 21.4957C14.229 21.2581 14.9962 20.8085 15.615 20.1897C16.2337 19.5709 16.6834 18.8038 16.921 17.9616C17.1586 17.1194 17.1761 16.2303 16.9719 15.3794H17.5067V22.0679H6.49069V15.3794H7.02544C6.70891 16.6985 6.92933 18.0893 7.63821 19.2459C8.34709 20.4025 9.48637 21.2301 10.8054 21.5467H10.8047ZM7.67119 16.5599C7.67152 16.1606 7.72782 15.7632 7.83844 15.3794H16.1597C16.2703 15.7632 16.3266 16.1606 16.3269 16.5599C16.3269 17.7078 15.871 18.8086 15.0593 19.6202C14.2477 20.4318 13.1469 20.8878 11.9991 20.8878C10.8512 20.8878 9.75043 20.4318 8.93879 19.6202C8.12716 18.8086 7.67119 17.7078 7.67119 16.5599ZM5.70394 14.5927C5.59964 14.5927 5.4996 14.5513 5.42578 14.4776C5.35196 14.4039 5.31039 14.304 5.31019 14.1997V1.60944C5.31019 1.39194 5.48644 1.21569 5.70394 1.21569H7.67119V4.36344C7.67561 4.4648 7.71899 4.56053 7.79228 4.63069C7.86557 4.70085 7.96311 4.74001 8.06456 4.74001C8.16602 4.74001 8.26356 4.70085 8.33684 4.63069C8.41013 4.56053 8.45351 4.4648 8.45794 4.36344V1.21569H11.6057V4.36344C11.6101 4.4648 11.6535 4.56053 11.7268 4.63069C11.8001 4.70085 11.8976 4.74001 11.9991 4.74001C12.1005 4.74001 12.1981 4.70085 12.2713 4.63069C12.3446 4.56053 12.388 4.4648 12.3924 4.36344V1.21569H15.5394V4.36344C15.5394 4.46787 15.5809 4.56802 15.6548 4.64186C15.7286 4.7157 15.8288 4.75719 15.9332 4.75719C16.0376 4.75719 16.1378 4.7157 16.2116 4.64186C16.2855 4.56802 16.3269 4.46787 16.3269 4.36344V1.21569H18.2934C18.5109 1.21569 18.6872 1.39194 18.6872 1.60944V14.1989C18.6872 14.4164 18.5109 14.5919 18.2942 14.5919L5.70394 14.5927Z" fill="#49DCFF"/>
<path d="M11.9986 17.347C12.1048 17.3516 12.2109 17.3347 12.3104 17.2973C12.4099 17.2598 12.5008 17.2026 12.5775 17.1291C12.6543 17.0556 12.7155 16.9673 12.7572 16.8695C12.799 16.7718 12.8205 16.6666 12.8205 16.5602C12.8205 16.4539 12.799 16.3487 12.7572 16.251C12.7155 16.1532 12.6543 16.0649 12.5775 15.9914C12.5008 15.9179 12.4099 15.8607 12.3104 15.8232C12.2109 15.7858 12.1048 15.7689 11.9986 15.7735C11.7959 15.7824 11.6044 15.8691 11.4641 16.0157C11.3238 16.1623 11.2455 16.3573 11.2455 16.5602C11.2455 16.7632 11.3238 16.9582 11.4641 17.1048C11.6044 17.2514 11.7959 17.3381 11.9986 17.347ZM6.09687 14.1993C6.2013 14.1993 6.30146 14.1578 6.3753 14.0839C6.44914 14.0101 6.49063 13.9099 6.49063 13.8055C6.49063 13.7011 6.44914 13.6009 6.3753 13.5271C6.30146 13.4532 6.2013 13.4117 6.09687 13.4117C5.99245 13.4117 5.89229 13.4532 5.81845 13.5271C5.74461 13.6009 5.70312 13.7011 5.70312 13.8055C5.70312 13.9099 5.74461 14.0101 5.81845 14.0839C5.89229 14.1578 5.99245 14.1993 6.09687 14.1993ZM17.9004 14.1993C18.0048 14.1993 18.105 14.1578 18.1788 14.0839C18.2526 14.0101 18.2941 13.9099 18.2941 13.8055C18.2941 13.7011 18.2526 13.6009 18.1788 13.5271C18.105 13.4532 18.0048 13.4117 17.9004 13.4117C17.7959 13.4117 17.6958 13.4532 17.622 13.5271C17.5481 13.6009 17.5066 13.7011 17.5066 13.8055C17.5066 13.9099 17.5481 14.0101 17.622 14.0839C17.6958 14.1578 17.7959 14.1993 17.9004 14.1993ZM6.09687 2.3965C6.14998 2.39882 6.203 2.39036 6.25275 2.37164C6.3025 2.35292 6.34794 2.32431 6.38634 2.28756C6.42473 2.2508 6.45529 2.20665 6.47617 2.15777C6.49704 2.10888 6.50781 2.05628 6.50781 2.00313C6.50781 1.94997 6.49704 1.89737 6.47617 1.84848C6.45529 1.7996 6.42473 1.75545 6.38634 1.71869C6.34794 1.68194 6.3025 1.65333 6.25275 1.63461C6.203 1.61589 6.14998 1.60743 6.09687 1.60975C5.99245 1.60975 5.89229 1.65123 5.81845 1.72508C5.74461 1.79892 5.70312 1.89907 5.70312 2.0035C5.70312 2.10793 5.74461 2.20808 5.81845 2.28192C5.89229 2.35577 5.99245 2.39725 6.09687 2.39725V2.3965ZM17.9004 2.3965C17.9535 2.39882 18.0065 2.39036 18.0562 2.37164C18.106 2.35292 18.1514 2.32431 18.1898 2.28756C18.2282 2.2508 18.2588 2.20665 18.2797 2.15777C18.3005 2.10888 18.3113 2.05628 18.3113 2.00313C18.3113 1.94997 18.3005 1.89737 18.2797 1.84848C18.2588 1.7996 18.2282 1.75545 18.1898 1.71869C18.1514 1.68194 18.106 1.65333 18.0562 1.63461C18.0065 1.61589 17.9535 1.60743 17.9004 1.60975C17.7959 1.60975 17.6958 1.65123 17.622 1.72508C17.5481 1.79892 17.5066 1.89907 17.5066 2.0035C17.5066 2.10793 17.5481 2.20808 17.622 2.28192C17.6958 2.35577 17.7959 2.39725 17.9004 2.39725V2.3965Z" fill="#49DCFF"/>
</g>
<defs>
<clipPath id="clip0_570_12645">
<rect width="24" height="24" fill="white" transform="translate(0 0.429688)"/>
</clipPath>
</defs>
</svg>
