<svg width="24" height="25" viewBox="0 0 24 25" fill="none" xmlns="http://www.w3.org/2000/svg">
<mask id="mask0_570_12655" style="mask-type:luminance" maskUnits="userSpaceOnUse" x="0" y="0" width="24" height="25">
<path d="M0 0.382812H24V24.3828H0V0.382812Z" fill="white"/>
</mask>
<g mask="url(#mask0_570_12655)">
<path d="M23.9707 6.03463L23.9685 6.02713L22.7685 3.22738C22.7378 3.15532 22.6866 3.09388 22.6212 3.05068C22.5559 3.00748 22.4793 2.98442 22.401 2.98438H1.59825C1.52001 2.98436 1.44348 3.0073 1.37816 3.05036C1.31283 3.09343 1.26158 3.15471 1.23075 3.22663L0.03075 6.02713V6.03463C0.0138625 6.07693 0.00447215 6.12185 0.003 6.16738C0.003 6.17338 0 6.17788 0 6.18388V21.3864C0 21.6069 0.17925 21.7861 0.39975 21.7861H23.6003C23.6529 21.7862 23.705 21.7759 23.7536 21.7558C23.8023 21.7357 23.8465 21.7063 23.8837 21.669C23.9209 21.6318 23.9504 21.5876 23.9705 21.539C23.9906 21.4904 24.0008 21.4382 24.0007 21.3856V6.18463C24.0007 6.17863 23.9977 6.17413 23.9977 6.16738C23.9963 6.12192 23.9872 6.07703 23.9707 6.03463ZM1.86225 3.78463H22.137L22.9935 5.78413H1.00575L1.86225 3.78463ZM23.2005 20.9859H0.79875V6.58438H23.2013L23.2005 20.9859Z" fill="#49DCFF"/>
<path d="M17.3177 12.8671C17.3928 12.9421 17.4947 12.9849 17.6005 12.9849H20.8007C20.8533 12.9848 20.9053 12.9744 20.9538 12.9542C21.0024 12.934 21.0464 12.9044 21.0835 12.8671L22.2835 11.6671C22.3585 11.5921 22.4005 11.4901 22.4005 11.3844V9.38413C22.4005 9.27811 22.3584 9.17643 22.2834 9.10146C22.2084 9.02649 22.1068 8.98438 22.0007 8.98438H16.4005C16.3479 8.98428 16.2959 8.99454 16.2473 9.01459C16.1987 9.03463 16.1545 9.06406 16.1173 9.10119C16.0801 9.13832 16.0506 9.18243 16.0305 9.23097C16.0104 9.27952 16 9.33157 16 9.38413V11.3844C16 11.4909 16.0427 11.5921 16.1177 11.6671L17.3177 12.8671ZM16.8002 9.78463H21.6002V11.2186L20.635 12.1846H17.7662L16.8002 11.2186V9.78463Z" fill="#49DCFF"/>
<path d="M18.2837 10.8658C18.3189 10.8268 18.3472 10.7822 18.3677 10.7338C18.4035 10.6413 18.4037 10.5388 18.3681 10.4461C18.3326 10.3535 18.2639 10.2774 18.1753 10.2326C18.0868 10.1878 17.9848 10.1776 17.8891 10.2039C17.7934 10.2301 17.7109 10.291 17.6577 10.3747C17.6044 10.4584 17.5842 10.559 17.6009 10.6568C17.6176 10.7545 17.6701 10.8426 17.7482 10.9039C17.8263 10.9651 17.9243 10.9951 18.0233 10.9881C18.1222 10.9811 18.215 10.9375 18.2837 10.8658ZM19.0479 11.7508C19.1964 11.8146 19.3697 11.7808 19.4837 11.6668C19.5189 11.6279 19.5473 11.5832 19.5677 11.5348C19.5884 11.4864 19.5993 11.4344 19.5997 11.3817C19.6001 11.3291 19.5901 11.2768 19.5701 11.2281C19.5501 11.1794 19.5207 11.1351 19.4834 11.0979C19.4462 11.0607 19.4019 11.0312 19.3532 11.0113C19.2922 10.9859 19.226 10.976 19.1603 10.9825C19.0946 10.9889 19.0315 11.0116 18.9767 11.0483C18.9219 11.0851 18.8771 11.1349 18.8462 11.1932C18.8153 11.2515 18.7993 11.3166 18.7997 11.3826C18.7989 11.4354 18.8089 11.4879 18.8288 11.5369C18.8488 11.5858 18.8784 11.6303 18.9159 11.6676C18.9548 11.7027 18.9995 11.7308 19.0479 11.7508ZM20.1159 10.8658C20.1916 10.9402 20.2936 10.982 20.3998 10.982C20.506 10.982 20.6079 10.9402 20.6837 10.8658C20.7189 10.8268 20.7473 10.7822 20.7677 10.7338C20.7882 10.6859 20.7992 10.6344 20.7999 10.5823C20.7986 10.476 20.7571 10.3742 20.6837 10.2973C20.6363 10.2513 20.5784 10.2174 20.515 10.1988C20.4517 10.1801 20.3847 10.1771 20.3199 10.1901C20.2948 10.1944 20.2706 10.2025 20.2479 10.2141C20.2225 10.2229 20.1983 10.235 20.1759 10.2501C20.155 10.2649 20.1349 10.2809 20.1159 10.2981C20.0424 10.3746 20.0008 10.4762 19.9997 10.5823C19.9982 10.6347 20.0093 10.6866 20.0319 10.7338C20.0522 10.7823 20.0806 10.8269 20.1159 10.8658ZM21.6002 16.1833H16.8002C16.7475 16.1832 16.6954 16.1935 16.6468 16.2136C16.5981 16.2337 16.554 16.2632 16.5167 16.3004C16.4795 16.3376 16.45 16.3818 16.4299 16.4304C16.4098 16.4791 16.3996 16.5312 16.3997 16.5838V18.9838C16.3997 19.2051 16.5789 19.3836 16.7994 19.3836H21.5994C21.652 19.3837 21.704 19.3734 21.7526 19.3533C21.8012 19.3333 21.8454 19.3039 21.8826 19.2667C21.9198 19.2296 21.9493 19.1855 21.9694 19.137C21.9895 19.0884 21.9999 19.0364 21.9999 18.9838V16.5838C22 16.5313 21.9897 16.4792 21.9697 16.4306C21.9496 16.382 21.9202 16.3379 21.8831 16.3007C21.846 16.2635 21.8019 16.234 21.7533 16.2138C21.7048 16.1937 21.6527 16.1833 21.6002 16.1833ZM17.1999 16.9836H18.7997V18.5841H17.1999V16.9836ZM21.2004 18.5841H19.5999V16.9836H21.2004V18.5841ZM1.99816 20.1838H3.59866V19.3836H2.39866V18.1836H1.59766V19.7833C1.59766 20.0038 1.77691 20.1831 1.99741 20.1831L1.99816 20.1838ZM13.5992 9.38306H14.4002V7.78256C14.4002 7.67654 14.358 7.57486 14.2831 7.4999C14.2081 7.42493 14.1064 7.38281 14.0004 7.38281H12.3999V8.18306H13.5999L13.5992 9.38306ZM2.39866 8.18306H3.59866V7.38281H1.99816C1.89214 7.38281 1.79046 7.42493 1.71549 7.4999C1.64052 7.57486 1.59841 7.67654 1.59841 7.78256V9.38381H2.39866V8.18306ZM13.5992 19.3836H12.3992V20.1831H13.9997C14.1057 20.1831 14.2074 20.1409 14.2823 20.066C14.3573 19.991 14.3994 19.8893 14.3994 19.7833V18.1828H13.5992V19.3836ZM7.99891 7.78256C6.81222 7.78256 5.65218 8.13446 4.66548 8.79375C3.67879 9.45303 2.90975 10.3901 2.45563 11.4865C2.0015 12.5828 1.88268 13.7892 2.11419 14.9531C2.34571 16.117 2.91715 17.1861 3.75627 18.0252C4.59538 18.8643 5.66448 19.4358 6.82836 19.6673C7.99225 19.8988 9.19865 19.78 10.295 19.3258C11.3914 18.8717 12.3284 18.1027 12.9877 17.116C13.647 16.1293 13.9989 14.9693 13.9989 13.7826C13.9969 12.1919 13.3641 10.6669 12.2394 9.54211C11.1146 8.41733 9.5896 7.78455 7.99891 7.78256ZM11.3784 16.5973C12.0381 15.808 12.3994 14.812 12.3994 13.7833C12.3994 12.7546 12.0381 11.7586 11.3784 10.9693L11.9432 10.4038C12.7533 11.3432 13.1989 12.5424 13.1989 13.7829C13.1989 15.0234 12.7533 16.2226 11.9432 17.1621L11.3784 16.5973ZM9.99841 13.7833C9.99841 14.1748 9.88291 14.5581 9.66541 14.8843L9.07891 14.2971C9.15808 14.1374 9.19928 13.9616 9.19928 13.7833C9.19928 13.6051 9.15808 13.4292 9.07891 13.2696L9.66616 12.6816C9.88366 13.0086 9.99841 13.3918 9.99841 13.7833ZM5.99866 13.7833C5.99866 13.3911 6.11491 13.0078 6.33166 12.6823L6.91891 13.2688C6.83972 13.4286 6.79852 13.6046 6.79852 13.7829C6.79852 13.9613 6.83972 14.1372 6.91891 14.2971L6.33166 14.8843C6.11456 14.5582 5.99871 14.1751 5.99866 13.7833ZM7.59916 13.7833C7.59916 13.6773 7.64127 13.5756 7.71624 13.5006C7.79121 13.4257 7.89289 13.3836 7.99891 13.3836C8.10493 13.3836 8.2066 13.4257 8.28157 13.5006C8.35654 13.5756 8.39866 13.6773 8.39866 13.7833C8.39866 13.8893 8.35654 13.991 8.28157 14.066C8.2066 14.1409 8.10493 14.1831 7.99891 14.1831C7.89289 14.1831 7.79121 14.1409 7.71624 14.066C7.64127 13.991 7.59916 13.8893 7.59916 13.7833ZM8.51266 12.7033C8.35295 12.6242 8.17713 12.583 7.99891 12.583C7.82068 12.583 7.64486 12.6242 7.48516 12.7033L6.89716 12.1161C7.22334 11.8987 7.60655 11.7827 7.99853 11.7827C8.39051 11.7827 8.77373 11.8987 9.09991 12.1161L8.51266 12.7033ZM7.48516 14.8633C7.80841 15.0238 8.18866 15.0238 8.51266 14.8633L9.09991 15.4506C8.77373 15.6676 8.39069 15.7834 7.99891 15.7834C7.60712 15.7834 7.22408 15.6676 6.89791 15.4506L7.48516 14.8633ZM9.67216 11.5431C9.19007 11.1792 8.60253 10.9823 7.99853 10.9823C7.39453 10.9823 6.80699 11.1792 6.32491 11.5431L5.75416 10.9723C6.39055 10.4609 7.18249 10.1821 7.99891 10.1821C8.81532 10.1821 9.60727 10.4609 10.2437 10.9723L9.67291 11.5423L9.67216 11.5431ZM5.75866 12.1093C5.39459 12.5915 5.19764 13.1792 5.19764 13.7833C5.19764 14.3875 5.39459 14.9752 5.75866 15.4573L5.18791 16.0273C4.67668 15.391 4.39802 14.5992 4.39802 13.7829C4.39802 12.9667 4.67668 12.1749 5.18791 11.5386L5.75866 12.1093ZM6.32491 16.0236C6.80699 16.3874 7.39453 16.5843 7.99853 16.5843C8.60253 16.5843 9.19007 16.3874 9.67216 16.0236L10.2429 16.5936C9.60658 17.1048 8.81478 17.3835 7.99853 17.3835C7.18228 17.3835 6.39049 17.1048 5.75416 16.5936L6.32491 16.0236ZM10.2392 15.4573C10.6032 14.9752 10.8002 14.3875 10.8002 13.7833C10.8002 13.1792 10.6032 12.5915 10.2392 12.1093L10.8092 11.5393C11.3204 12.1756 11.599 12.9674 11.599 13.7837C11.599 14.5999 11.3204 15.3917 10.8092 16.0281L10.2392 15.4573ZM11.3792 9.83831L10.8129 10.4038C10.0236 9.74436 9.02779 9.38309 7.99928 9.38309C6.97077 9.38309 5.97493 9.74436 5.18566 10.4038L4.62016 9.83831C5.55965 9.02834 6.75883 8.58277 7.99928 8.58277C9.23973 8.58277 10.4389 9.02834 11.3784 9.83831H11.3792ZM4.05391 10.4038L4.61941 10.9693C3.95989 11.7587 3.5986 12.7547 3.5986 13.7833C3.5986 14.812 3.95989 15.8079 4.61941 16.5973L4.05391 17.1621C3.24413 16.2226 2.79869 15.0236 2.79869 13.7833C2.79869 12.543 3.24413 11.344 4.05391 10.4046V10.4038ZM4.61941 17.7276L5.18491 17.1628C5.97412 17.8224 6.96998 18.1838 7.99853 18.1838C9.02708 18.1838 10.0229 17.8224 10.8122 17.1628L11.3777 17.7276C10.4382 18.5373 9.23918 18.9828 7.99891 18.9828C6.75863 18.9828 5.55885 18.5373 4.61941 17.7276Z" fill="#49DCFF"/>
</g>
</svg>
