<svg width="24" height="25" viewBox="0 0 24 25" fill="none" xmlns="http://www.w3.org/2000/svg">
<g clip-path="url(#clip0_570_7892)">
<path d="M22 0.90625H2C1.46973 0.906779 0.961329 1.11766 0.586371 1.49262C0.211413 1.86758 0.000529477 2.37598 0 2.90625L0 22.9062C0.000529477 23.4365 0.211413 23.9449 0.586371 24.3199C0.961329 24.6948 1.46973 24.9057 2 24.9062H22C22.5303 24.9057 23.0387 24.6948 23.4136 24.3199C23.7886 23.9449 23.9995 23.4365 24 22.9062V2.90625C23.9995 2.37598 23.7886 1.86758 23.4136 1.49262C23.0387 1.11766 22.5303 0.906779 22 0.90625ZM0.8 2.90625C0.8 2.58799 0.926428 2.28277 1.15147 2.05772C1.37652 1.83268 1.68174 1.70625 2 1.70625H7.7C6.13273 2.31235 4.70937 3.2392 3.52116 4.42741C2.33295 5.61562 1.4061 7.03898 0.8 8.60625V2.90625ZM12 1.70625C18.186 1.70625 23.2 6.72025 23.2 12.9062C23.2 19.0923 18.186 24.1063 12 24.1063C5.814 24.1063 0.8 19.0923 0.8 12.9062C0.807 6.72325 5.817 1.71325 12 1.70625ZM2 24.1063C1.68174 24.1063 1.37652 23.9798 1.15147 23.7548C0.926428 23.5297 0.8 23.2245 0.8 22.9062V17.2062C1.4061 18.7735 2.33295 20.1969 3.52116 21.3851C4.70937 22.5733 6.13273 23.5002 7.7 24.1063H2ZM23.2 22.9062C23.2 23.2245 23.0736 23.5297 22.8485 23.7548C22.6235 23.9798 22.3183 24.1063 22 24.1063H16.3C17.8673 23.5002 19.2906 22.5733 20.4788 21.3851C21.667 20.1969 22.5939 18.7735 23.2 17.2062V22.9062ZM16.3 1.70625H22C22.3183 1.70625 22.6235 1.83268 22.8485 2.05772C23.0736 2.28277 23.2 2.58799 23.2 2.90625V8.60625C22.5939 7.03898 21.667 5.61562 20.4788 4.42741C19.2906 3.2392 17.8673 2.31235 16.3 1.70625Z" fill="#49DCFF"/>
<path d="M2.39922 2.10938C2.08096 2.10938 1.77573 2.2358 1.55069 2.46085C1.32565 2.68589 1.19922 2.99112 1.19922 3.30938C1.19922 3.62763 1.32565 3.93286 1.55069 4.1579C1.77573 4.38295 2.08096 4.50937 2.39922 4.50937C2.71748 4.50937 3.0227 4.38295 3.24775 4.1579C3.47279 3.93286 3.59922 3.62763 3.59922 3.30938C3.59922 2.99112 3.47279 2.68589 3.24775 2.46085C3.0227 2.2358 2.71748 2.10938 2.39922 2.10938ZM2.39922 3.70937C2.29313 3.70937 2.19139 3.66723 2.11638 3.59222C2.04136 3.5172 1.99922 3.41546 1.99922 3.30938C1.99922 3.20329 2.04136 3.10155 2.11638 3.02653C2.19139 2.95152 2.29313 2.90937 2.39922 2.90937C2.50531 2.90937 2.60705 2.95152 2.68206 3.02653C2.75708 3.10155 2.79922 3.20329 2.79922 3.30938C2.79922 3.41546 2.75708 3.5172 2.68206 3.59222C2.60705 3.66723 2.50531 3.70937 2.39922 3.70937ZM2.39922 21.3094C2.24163 21.3094 2.08559 21.3404 1.94 21.4007C1.79441 21.461 1.66212 21.5494 1.55069 21.6608C1.43926 21.7723 1.35087 21.9046 1.29056 22.0502C1.23026 22.1957 1.19922 22.3518 1.19922 22.5094C1.19922 22.667 1.23026 22.823 1.29056 22.9686C1.35087 23.1142 1.43926 23.2465 1.55069 23.3579C1.66212 23.4693 1.79441 23.5577 1.94 23.618C2.08559 23.6783 2.24163 23.7094 2.39922 23.7094C2.71748 23.7094 3.0227 23.5829 3.24775 23.3579C3.47279 23.1329 3.59922 22.8276 3.59922 22.5094C3.59922 22.1911 3.47279 21.8859 3.24775 21.6608C3.0227 21.4358 2.71748 21.3094 2.39922 21.3094ZM2.39922 22.9094C2.29313 22.9094 2.19139 22.8672 2.11638 22.7922C2.04136 22.7172 1.99922 22.6155 1.99922 22.5094C1.99922 22.4033 2.04136 22.3015 2.11638 22.2265C2.19139 22.1515 2.29313 22.1094 2.39922 22.1094C2.50531 22.1094 2.60705 22.1515 2.68206 22.2265C2.75708 22.3015 2.79922 22.4033 2.79922 22.5094C2.79922 22.6155 2.75708 22.7172 2.68206 22.7922C2.60705 22.8672 2.50531 22.9094 2.39922 22.9094ZM21.5992 23.7094C21.7568 23.7094 21.9128 23.6783 22.0584 23.618C22.204 23.5577 22.3363 23.4693 22.4477 23.3579C22.5592 23.2465 22.6476 23.1142 22.7079 22.9686C22.7682 22.823 22.7992 22.667 22.7992 22.5094C22.7992 22.3518 22.7682 22.1957 22.7079 22.0502C22.6476 21.9046 22.5592 21.7723 22.4477 21.6608C22.3363 21.5494 22.204 21.461 22.0584 21.4007C21.9128 21.3404 21.7568 21.3094 21.5992 21.3094C21.281 21.3094 20.9757 21.4358 20.7507 21.6608C20.5256 21.8859 20.3992 22.1911 20.3992 22.5094C20.3992 22.8276 20.5256 23.1329 20.7507 23.3579C20.9757 23.5829 21.281 23.7094 21.5992 23.7094ZM21.5992 22.1094C21.7053 22.1094 21.807 22.1515 21.8821 22.2265C21.9571 22.3015 21.9992 22.4033 21.9992 22.5094C21.9992 22.6155 21.9571 22.7172 21.8821 22.7922C21.807 22.8672 21.7053 22.9094 21.5992 22.9094C21.4931 22.9094 21.3914 22.8672 21.3164 22.7922C21.2414 22.7172 21.1992 22.6155 21.1992 22.5094C21.1992 22.4033 21.2414 22.3015 21.3164 22.2265C21.3914 22.1515 21.4931 22.1094 21.5992 22.1094ZM21.5992 2.10938C21.4416 2.10937 21.2856 2.14041 21.14 2.20072C20.9944 2.26103 20.8621 2.34942 20.7507 2.46085C20.6393 2.57228 20.5509 2.70456 20.4906 2.85015C20.4303 2.99575 20.3992 3.15179 20.3992 3.30938C20.3992 3.46696 20.4303 3.623 20.4906 3.76859C20.5509 3.91419 20.6393 4.04647 20.7507 4.1579C20.8621 4.26933 20.9944 4.35772 21.14 4.41803C21.2856 4.47834 21.4416 4.50937 21.5992 4.50937C21.9175 4.50937 22.2227 4.38295 22.4477 4.1579C22.6728 3.93286 22.7992 3.62763 22.7992 3.30938C22.7992 2.99112 22.6728 2.68589 22.4477 2.46085C22.2227 2.2358 21.9175 2.10938 21.5992 2.10938ZM21.5992 3.70937C21.4931 3.70937 21.3914 3.66723 21.3164 3.59222C21.2414 3.5172 21.1992 3.41546 21.1992 3.30938C21.1992 3.20329 21.2414 3.10155 21.3164 3.02653C21.3914 2.95152 21.4931 2.90937 21.5992 2.90937C21.7053 2.90937 21.807 2.95152 21.8821 3.02653C21.9571 3.10155 21.9992 3.20329 21.9992 3.30938C21.9992 3.41546 21.9571 3.5172 21.8821 3.59222C21.807 3.66723 21.7053 3.70937 21.5992 3.70937ZM1.86222 11.5494C1.91056 11.5943 1.96929 11.6266 2.03315 11.6434C2.09701 11.6601 2.16403 11.6608 2.22822 11.6454C4.16003 11.1818 6.19538 11.4575 7.93422 12.4184C5.66091 12.6662 3.5752 13.7949 2.12422 15.5624C2.08206 15.6132 2.05315 15.6737 2.04006 15.7384C2.02697 15.8032 2.03012 15.8702 2.04922 15.9334C2.64178 17.893 3.80157 19.6332 5.38222 20.9344C5.43314 20.9769 5.49383 21.0061 5.55883 21.0193C5.62383 21.0325 5.6911 21.0293 5.75457 21.0101C5.81805 20.9908 5.87575 20.9561 5.92247 20.909C5.96919 20.862 6.00347 20.804 6.02222 20.7404C6.58605 18.8352 7.84245 17.2099 9.54422 16.1844C9.05151 17.2942 8.79768 18.4951 8.79922 19.7094C8.79922 20.7614 8.98922 21.8044 9.35922 22.7894C9.38225 22.8512 9.42024 22.9065 9.46979 22.9501C9.51935 22.9937 9.57893 23.0244 9.64322 23.0394C11.6364 23.5031 13.7222 23.3685 15.6392 22.6524C15.7011 22.6292 15.7563 22.5911 15.7998 22.5414C15.8434 22.4917 15.874 22.4321 15.8888 22.3677C15.9037 22.3033 15.9024 22.2362 15.885 22.1725C15.8676 22.1087 15.8347 22.0503 15.7892 22.0024C14.4218 20.5613 13.6431 18.6607 13.6062 16.6744C14.9571 18.519 16.9766 19.7613 19.2322 20.1354C19.2973 20.1461 19.3641 20.1406 19.4265 20.1194C19.489 20.0981 19.5452 20.0617 19.5902 20.0134C20.9894 18.5195 21.9165 16.6459 22.2552 14.6274C22.2661 14.5622 22.2607 14.4953 22.2395 14.4327C22.2182 14.3701 22.1818 14.3138 22.1335 14.2687C22.0852 14.2237 22.0264 14.1913 21.9625 14.1745C21.8986 14.1576 21.8315 14.1569 21.7672 14.1724C19.8355 14.636 17.8003 14.3606 16.0612 13.4004C18.3345 13.1514 20.4201 12.023 21.8722 10.2564C21.9144 10.2053 21.9432 10.1446 21.9561 10.0797C21.969 10.0148 21.9656 9.94766 21.9462 9.88438C21.3542 7.92548 20.1955 6.18569 18.6162 4.88437C18.5653 4.84232 18.5048 4.81353 18.44 4.80057C18.3753 4.78761 18.3083 4.79088 18.2451 4.81009C18.182 4.8293 18.1245 4.86386 18.0779 4.91067C18.0314 4.95748 17.9971 5.0151 17.9782 5.07838C17.415 6.98331 16.1593 8.60854 14.4582 9.63438C15.3784 7.54074 15.4434 5.17026 14.6392 3.02937C14.6162 2.9675 14.5782 2.91229 14.5286 2.86867C14.4791 2.82505 14.4195 2.79437 14.3552 2.77937C12.3619 2.31635 10.2764 2.45096 8.35922 3.16637C8.29733 3.18952 8.24215 3.22764 8.19859 3.27732C8.15503 3.327 8.12446 3.3867 8.1096 3.45108C8.09475 3.51546 8.09607 3.58252 8.11345 3.64626C8.13083 3.71 8.16374 3.76845 8.20922 3.81638C9.57701 5.25734 10.3561 7.15796 10.3932 9.14437C9.04223 7.29983 7.02278 6.05751 4.76722 5.68338C4.70213 5.67236 4.63532 5.67755 4.57271 5.69848C4.5101 5.71941 4.4536 5.75543 4.40822 5.80338C3.00775 7.29776 2.07993 9.17254 1.74122 11.1924C1.73049 11.2572 1.73592 11.3238 1.75703 11.386C1.77813 11.4483 1.81426 11.5044 1.86222 11.5494ZM11.9992 9.70938C12.7544 9.70932 13.4852 9.9765 14.0623 10.4636C14.6393 10.9507 15.0254 11.6263 15.1521 12.3708C15.2788 13.1152 15.138 13.8805 14.7546 14.5311C14.3712 15.1817 13.7699 15.6756 13.0572 15.9254L13.0512 15.9284C12.6114 16.0829 12.1432 16.1395 11.6792 16.0942C11.2153 16.0489 10.7669 15.9028 10.3653 15.6661C9.96372 15.4293 9.61871 15.1077 9.3544 14.7238C9.09009 14.3398 8.91287 13.9027 8.83512 13.4431C8.75737 12.9835 8.78097 12.5124 8.90429 12.0629C9.0276 11.6133 9.24763 11.1961 9.54901 10.8405C9.85038 10.4849 10.2258 10.1994 10.649 10.004C11.0723 9.80863 11.5331 9.70808 11.9992 9.70938ZM5.44922 19.9294C4.26731 18.8263 3.38328 17.4425 2.87922 15.9064C3.45802 15.2385 4.14408 14.6717 4.90922 14.2294C5.86213 13.6773 6.92024 13.3312 8.01522 13.2134C8.08122 14.0874 8.43522 14.9144 9.01922 15.5674C7.38015 16.5872 6.12483 18.121 5.44922 19.9294ZM10.0352 22.3054C9.38091 20.4132 9.46556 18.3438 10.2722 16.5114C11.0609 16.894 11.9541 17.0044 12.8122 16.8254C12.8769 18.7526 13.5769 20.6043 14.8032 22.0924C13.2571 22.5632 11.6172 22.6365 10.0352 22.3054ZM21.3552 15.0724C20.9902 16.6474 20.2335 18.1048 19.1552 19.3094C17.1892 18.933 15.4406 17.8216 14.2652 16.2014C14.9833 15.7056 15.5204 14.9895 15.7952 14.1614C17.497 15.07 19.4515 15.3903 21.3542 15.0724H21.3552ZM18.5492 5.88937C19.7312 6.99242 20.6152 8.37626 21.1192 9.91238C20.5404 10.5802 19.8543 11.147 19.0892 11.5894C18.1364 12.1417 17.0783 12.4879 15.9832 12.6054C15.9171 11.7315 15.5642 10.904 14.9792 10.2514C16.6183 9.23154 17.8736 7.69774 18.5492 5.88937ZM13.9632 3.51338C14.6175 5.40552 14.5329 7.47499 13.7262 9.30737C12.9375 8.92482 12.0443 8.8144 11.1862 8.99337C11.1218 7.06631 10.4222 5.21458 9.19622 3.72637C10.742 3.25569 12.3816 3.18243 13.9632 3.51338ZM3.68522 8.10938C4.01522 7.53737 4.40522 7.00137 4.84522 6.50937C6.81049 6.88483 8.5586 7.99564 9.73322 9.61538C9.01514 10.1111 8.47806 10.8272 8.20322 11.6554C6.50157 10.7475 4.54754 10.4276 2.64522 10.7454C2.8593 9.82001 3.2098 8.93163 3.68522 8.10938Z" fill="#49DCFF"/>
</g>
<defs>
<clipPath id="clip0_570_7892">
<rect width="24" height="24" fill="white" transform="translate(0 0.90625)"/>
</clipPath>
</defs>
</svg>
