<svg width="24" height="25" viewBox="0 0 24 25" fill="none" xmlns="http://www.w3.org/2000/svg">
<g clip-path="url(#clip0_570_7882)">
<path d="M20.4 3.23494V0.960938H19.6V2.99294C19.4676 2.97279 19.3339 2.96209 19.2 2.96094H18.4V0.960938H17.6V2.96094H16.4V0.960938H15.6V2.96094H14.4V0.960938H13.6V2.96094H12.4V0.960938H11.6V2.96094H10.4V0.960938H9.6V2.96094H8.4V0.960938H7.6V2.96094H6.4V0.960938H5.6V2.96094H4.8C4.66608 2.96209 4.5324 2.97279 4.4 2.99294V0.960938H3.6V3.23494C3.01939 3.51233 2.55139 3.98033 2.274 4.56094H0V5.36094H2.032C2.01185 5.49334 2.00115 5.62701 2 5.76094V6.56094H0V7.36094H2V8.56094H0V9.36094H2V10.5609H0V11.3609H2V12.5609H0V13.3609H2V14.5609H0V15.3609H2V16.5609H0V17.3609H2V18.5609H0V19.3609H2V20.1609C2.001 20.2949 2.012 20.4289 2.032 20.5609H0V21.3609H2.274C2.551 21.9409 3.019 22.4099 3.6 22.6869V24.9609H4.4V22.9289C4.532 22.9489 4.666 22.9589 4.8 22.9609H5.6V24.9609H6.4V22.9609H7.6V24.9609H8.4V22.9609H9.6V24.9609H10.4V22.9609H11.6V24.9609H12.4V22.9609H13.6V24.9609H14.4V22.9609H15.6V24.9609H16.4V22.9609H17.6V24.9609H18.4V22.9609H19.2C19.334 22.9599 19.468 22.9489 19.6 22.9289V24.9609H20.4V22.6869C20.9806 22.4095 21.4486 21.9415 21.726 21.3609H24V20.5609H21.968C21.988 20.4279 21.998 20.2949 22 20.1609V19.3609H24V18.5609H22V17.3609H24V16.5609H22V15.3609H24V14.5609H22V13.3609H24V12.5609H22V11.3609H24V10.5609H22V9.36094H24V8.56094H22V7.36094H24V6.56094H22V5.76094C21.9989 5.62701 21.9882 5.49334 21.968 5.36094H24V4.56094H21.726C21.4486 3.98033 20.9806 3.51233 20.4 3.23494ZM21.2 20.1609C21.1992 20.6911 20.9882 21.1994 20.6133 21.5743C20.2384 21.9492 19.7302 22.1601 19.2 22.1609H4.8C4.26981 22.1601 3.76156 21.9492 3.38666 21.5743C3.01176 21.1994 2.80079 20.6911 2.8 20.1609V5.76094C2.80079 5.23075 3.01176 4.7225 3.38666 4.3476C3.76156 3.9727 4.26981 3.76173 4.8 3.76094H19.2C19.7302 3.76173 20.2384 3.9727 20.6133 4.3476C20.9882 4.7225 21.1992 5.23075 21.2 5.76094V20.1609Z" fill="#49DCFF"/>
<path d="M18.8 4.96094H5.2C4.88174 4.96094 4.57652 5.08737 4.35147 5.31241C4.12643 5.53745 4 5.84268 4 6.16094V19.7609C4 20.0792 4.12643 20.3844 4.35147 20.6095C4.57652 20.8345 4.88174 20.9609 5.2 20.9609H18.8C19.1183 20.9609 19.4235 20.8345 19.6485 20.6095C19.8736 20.3844 20 20.0792 20 19.7609V6.16094C20 5.84268 19.8736 5.53745 19.6485 5.31241C19.4235 5.08737 19.1183 4.96094 18.8 4.96094ZM19.2 19.7609C19.2 19.867 19.1579 19.9688 19.0828 20.0438C19.0078 20.1188 18.9061 20.1609 18.8 20.1609H5.2C5.09391 20.1609 4.99217 20.1188 4.91716 20.0438C4.84214 19.9688 4.8 19.867 4.8 19.7609V6.16094C4.8 6.05485 4.84214 5.95311 4.91716 5.87809C4.99217 5.80308 5.09391 5.76094 5.2 5.76094H18.8C18.9061 5.76094 19.0078 5.80308 19.0828 5.87809C19.1579 5.95311 19.2 6.05485 19.2 6.16094V19.7609Z" fill="#49DCFF"/>
<path d="M17.6016 6.5625H18.4016V7.3625H17.6016V6.5625ZM5.60156 18.5625H6.40156V19.3625H5.60156V18.5625ZM5.60156 7.3625V8.5625H6.40156V7.3625H7.60156V6.5625H6.40156C6.18939 6.5625 5.98591 6.64679 5.83588 6.79681C5.68585 6.94684 5.60156 7.15033 5.60156 7.3625ZM17.6016 18.5625H16.4016V19.3625H18.4016V17.3625H17.6016V18.5625Z" fill="#49DCFF"/>
</g>
<defs>
<clipPath id="clip0_570_7882">
<rect width="24" height="24" fill="white" transform="translate(0 0.960938)"/>
</clipPath>
</defs>
</svg>
