<svg width="24" height="25" viewBox="0 0 24 25" fill="none" xmlns="http://www.w3.org/2000/svg">
<g clip-path="url(#clip0_570_7920)">
<mask id="mask0_570_7920" style="mask-type:luminance" maskUnits="userSpaceOnUse" x="0" y="0" width="32" height="33">
<path d="M0 0.765625H32V32.7656H0V0.765625Z" fill="white"/>
</mask>
<g mask="url(#mask0_570_7920)">
<path d="M21.3754 22.9256C21.2821 22.9256 21.1925 22.9627 21.1265 23.0287C21.0605 23.0947 21.0234 23.1843 21.0234 23.2776V24.0626H2.97744V3.75962C2.97744 3.66627 2.94035 3.57674 2.87434 3.51072C2.80833 3.44471 2.71879 3.40762 2.62544 3.40762C2.53208 3.40762 2.44255 3.44471 2.37654 3.51072C2.31052 3.57674 2.27344 3.66627 2.27344 3.75962V24.4136C2.27344 24.6086 2.43144 24.7656 2.62544 24.7656H21.3754C21.4688 24.7656 21.5583 24.7285 21.6243 24.6625C21.6904 24.5965 21.7274 24.507 21.7274 24.4136V23.2776C21.7274 23.1843 21.6904 23.0947 21.6243 23.0287C21.5583 22.9627 21.4688 22.9256 21.3754 22.9256ZM21.3754 0.765625H2.62544C2.53208 0.765625 2.44255 0.802711 2.37654 0.868723C2.31052 0.934736 2.27344 1.02427 2.27344 1.11762V2.24762C2.27344 2.34098 2.31052 2.43051 2.37654 2.49653C2.44255 2.56254 2.53208 2.59962 2.62544 2.59962C2.71879 2.59962 2.80833 2.56254 2.87434 2.49653C2.94035 2.43051 2.97744 2.34098 2.97744 2.24762V1.46863H21.0234V21.7596C21.0234 21.853 21.0605 21.9425 21.1265 22.0085C21.1925 22.0745 21.2821 22.1116 21.3754 22.1116C21.4688 22.1116 21.5583 22.0745 21.6243 22.0085C21.6904 21.9425 21.7274 21.853 21.7274 21.7596V1.11762C21.7274 1.02427 21.6904 0.934736 21.6243 0.868723C21.5583 0.802711 21.4688 0.765625 21.3754 0.765625Z" fill="#49DCFF"/>
<path d="M20.3207 18.1394C20.3207 17.9956 20.2778 17.8552 20.1977 17.7359C20.1176 17.6165 20.0037 17.5238 19.8707 17.4694C19.738 17.4143 19.592 17.3999 19.4511 17.428C19.3103 17.4561 19.181 17.5255 19.0797 17.6274L18.2657 18.4434L17.9117 17.8924L20.2017 15.6024C20.2345 15.5698 20.2606 15.531 20.2785 15.4882C20.2963 15.4455 20.3056 15.3997 20.3057 15.3534L20.3187 2.53938C20.3207 2.52438 20.3187 2.53938 20.3187 2.52438V2.51438L20.3177 2.48938L20.3137 2.46538C20.3137 2.46137 20.3137 2.45838 20.3117 2.45538C20.3098 2.4456 20.3075 2.43592 20.3047 2.42637V2.42238C20.3015 2.41255 20.2978 2.40287 20.2937 2.39337L20.2917 2.38938C20.2881 2.38054 20.2841 2.37187 20.2797 2.36338L20.2777 2.35838C20.2734 2.3505 20.2687 2.34283 20.2637 2.33538L20.2597 2.32937C20.255 2.32219 20.25 2.31518 20.2447 2.30838L20.2397 2.30137C20.2327 2.29304 20.2254 2.28503 20.2177 2.27738L20.2157 2.27637C20.2078 2.26796 20.1994 2.25994 20.1907 2.25237L20.1847 2.24837C20.1776 2.24274 20.1702 2.2374 20.1627 2.23237L20.1577 2.22938C20.1499 2.22407 20.1419 2.21907 20.1337 2.21437L20.1297 2.21237C20.1209 2.20766 20.1119 2.20332 20.1027 2.19937H20.0987C20.0889 2.19525 20.0788 2.19158 20.0687 2.18838H20.0657C20.0558 2.18495 20.0458 2.18194 20.0357 2.17937H20.0277L20.0017 2.17437C19.9901 2.17301 19.9784 2.17234 19.9667 2.17238H16.5087C16.4187 2.17718 16.334 2.2163 16.272 2.2817C16.21 2.34709 16.1754 2.43377 16.1754 2.52388C16.1754 2.61398 16.21 2.70066 16.272 2.76605C16.334 2.83145 16.4187 2.87057 16.5087 2.87537H16.6867V2.96938C16.6875 3.65922 16.9619 4.32059 17.4497 4.80839C17.9375 5.29619 18.5988 5.57058 19.2887 5.57137H19.6117L19.6017 15.2074L17.5217 17.2864L16.9617 16.4104C17.6522 15.7433 18.2015 14.9442 18.5767 14.0604C18.9519 13.1767 19.1454 12.2265 19.1457 11.2664C19.1457 7.32437 15.9397 4.11837 11.9977 4.11837C8.05569 4.11837 4.84969 7.32437 4.84969 11.2664C4.84969 15.2084 8.05569 18.4144 11.9977 18.4144C13.098 18.4142 14.1835 18.1603 15.1697 17.6724L15.7837 19.0244L14.5157 20.2934C14.4498 20.3591 14.4128 20.4483 14.4127 20.5414V22.6574H8.95869L4.38169 18.0804V5.57037H4.70769C5.39727 5.56985 6.05849 5.29581 6.54629 4.80839C7.03409 4.32097 7.30863 3.65996 7.30969 2.97038V2.87537H15.0097C15.0574 2.87792 15.1052 2.87072 15.15 2.8542C15.1949 2.83769 15.2359 2.81221 15.2706 2.77932C15.3053 2.74643 15.3329 2.70682 15.3518 2.6629C15.3707 2.61898 15.3804 2.57168 15.3804 2.52388C15.3804 2.47607 15.3707 2.42877 15.3518 2.38485C15.3329 2.34093 15.3053 2.30132 15.2706 2.26843C15.2359 2.23554 15.1949 2.21006 15.15 2.19355C15.1052 2.17703 15.0574 2.16983 15.0097 2.17238H4.03069C3.9375 2.17264 3.84823 2.20984 3.78243 2.27583C3.71664 2.34181 3.67969 2.43119 3.67969 2.52438V18.2254C3.67969 18.3184 3.71669 18.4084 3.78269 18.4744L8.56569 23.2574C8.6315 23.3231 8.72066 23.3602 8.81369 23.3604H14.7667C14.8129 23.3604 14.8587 23.3513 14.9014 23.3336C14.9441 23.3159 14.9829 23.29 15.0156 23.2573C15.0483 23.2246 15.0742 23.1858 15.0919 23.1431C15.1096 23.1004 15.1187 23.0546 15.1187 23.0084V20.6874L16.0967 19.7084L16.3807 20.3354L15.9987 20.7184C15.9222 20.7951 15.8616 20.8862 15.8204 20.9864C15.7792 21.0866 15.7582 21.194 15.7587 21.3024L15.7647 22.5404C15.7667 22.9904 16.1347 23.3564 16.5847 23.3564H19.4147C19.5349 23.3568 19.654 23.3333 19.7651 23.2873C19.8761 23.2413 19.977 23.1737 20.0617 23.0884C20.1469 23.0034 20.2144 22.9024 20.2602 22.7912C20.3061 22.6799 20.3293 22.5607 20.3287 22.4404L20.3217 18.1404L20.3207 18.1394ZM19.2887 4.86838C18.7851 4.86811 18.3023 4.66795 17.9462 4.31188C17.5901 3.9558 17.39 3.47294 17.3897 2.96938V2.87637H19.6147L19.6127 4.86938L19.2887 4.86838ZM4.38169 2.87537H6.60669V2.96938C6.60642 3.47294 6.40626 3.9558 6.05019 4.31188C5.69412 4.66795 5.21125 4.86811 4.70769 4.86838H4.38169V2.87537ZM14.3617 14.7604L14.5547 16.1104C14.5827 16.3094 14.6397 16.5034 14.7237 16.6874L14.8797 17.0324C13.9851 17.4793 12.9988 17.7121 11.9987 17.7124C10.2898 17.7103 8.65161 17.0304 7.44337 15.822C6.23513 14.6136 5.55554 12.9752 5.55369 11.2664C5.5558 9.5577 6.23551 7.91962 7.44372 6.71141C8.65194 5.5032 10.29 4.82349 11.9987 4.82137C13.7074 4.82349 15.3454 5.5032 16.5537 6.71141C17.7619 7.91962 18.4416 9.5577 18.4437 11.2664C18.4428 12.9667 17.7708 14.5979 16.5737 15.8054L16.5137 15.7124C16.4052 15.5429 16.2732 15.3897 16.1217 15.2574L15.0937 14.3614C15.0255 14.3013 14.9403 14.2637 14.8499 14.2539C14.7595 14.244 14.6683 14.2624 14.5887 14.3064C14.5086 14.3494 14.4437 14.4161 14.4029 14.4973C14.3621 14.5786 14.3484 14.6704 14.3617 14.7604ZM15.3637 16.3964C15.3078 16.2734 15.2698 16.1431 15.2507 16.0094L15.1557 15.3474L15.6597 15.7874C15.7617 15.8754 15.8497 15.9774 15.9227 16.0924L18.6147 20.2924L18.6737 20.3854C18.758 20.5442 18.776 20.7299 18.7237 20.902C18.6714 21.074 18.5531 21.2183 18.3947 21.3034C18.2368 21.3889 18.0517 21.4089 17.8792 21.3592C17.7067 21.3094 17.5607 21.1938 17.4727 21.0374L17.4287 20.9414L17.1267 20.2784L17.1257 20.2754L15.3637 16.3954V16.3964ZM19.5637 22.5914C19.5441 22.6111 19.5207 22.6268 19.4949 22.6375C19.4692 22.6481 19.4416 22.6535 19.4137 22.6534H16.5837C16.5527 22.6531 16.5231 22.6407 16.5012 22.6188C16.4794 22.5969 16.4669 22.5673 16.4667 22.5364L16.4607 21.2974C16.4607 21.2674 16.4727 21.2374 16.4947 21.2154L16.6907 21.0194L16.7897 21.2354L16.8407 21.3454C16.9573 21.5706 17.1339 21.7593 17.3509 21.8906C17.5679 22.0219 17.817 22.0907 18.0707 22.0894C18.2987 22.0894 18.5247 22.0334 18.7307 21.9204C19.0567 21.7434 19.2937 21.4504 19.3987 21.0954C19.4516 20.9175 19.4679 20.7307 19.4468 20.5463C19.4256 20.3619 19.3674 20.1837 19.2757 20.0224L19.2087 19.9154L18.6537 19.0494L19.5777 18.1244C19.5827 18.1184 19.5877 18.1134 19.6027 18.1194C19.6177 18.1254 19.6177 18.1324 19.6177 18.1404L19.6247 22.4424C19.6247 22.4701 19.6192 22.4975 19.6086 22.5231C19.5979 22.5486 19.5823 22.5719 19.5627 22.5914H19.5637Z" fill="#49DCFF"/>
<path d="M11.9999 8.10156C11.1611 8.10262 10.357 8.43631 9.76382 9.02945C9.17068 9.62258 8.837 10.4267 8.83594 11.2656C8.837 12.1044 9.17068 12.9085 9.76382 13.5017C10.357 14.0948 11.1611 14.4285 11.9999 14.4296C12.8388 14.4285 13.6429 14.0948 14.2361 13.5017C14.8292 12.9085 15.1629 12.1044 15.1639 11.2656C15.1629 10.4267 14.8292 9.62258 14.2361 9.02945C13.6429 8.43631 12.8388 8.10262 11.9999 8.10156ZM11.9999 13.7266C11.3477 13.7255 10.7224 13.4658 10.2613 13.0045C9.80013 12.5432 9.54073 11.9178 9.53994 11.2656C9.54099 10.6135 9.80051 9.98836 10.2616 9.52725C10.7227 9.06614 11.3478 8.80662 11.9999 8.80556C12.652 8.80662 13.2771 9.06614 13.7383 9.52725C14.1994 9.98836 14.4589 10.6135 14.4599 11.2656C14.4589 11.9177 14.1994 12.5428 13.7383 13.0039C13.2771 13.465 12.652 13.7245 11.9999 13.7256V13.7266Z" fill="#49DCFF"/>
<path d="M12.0022 9.97656C11.2922 9.97656 10.7122 10.5566 10.7122 11.2666C10.7122 11.9766 11.2922 12.5566 12.0022 12.5566C12.3353 12.5434 12.6504 12.4019 12.8814 12.1616C13.1124 11.9213 13.2415 11.6009 13.2415 11.2676C13.2415 10.9342 13.1124 10.6138 12.8814 10.3735C12.6504 10.1332 12.3353 9.99168 12.0022 9.97856V9.97656ZM12.0022 11.8526C11.9232 11.8558 11.8443 11.8429 11.7703 11.8149C11.6963 11.7868 11.6288 11.7441 11.5717 11.6892C11.5147 11.6344 11.4693 11.5686 11.4384 11.4958C11.4074 11.423 11.3915 11.3447 11.3915 11.2655C11.3916 11.1864 11.4077 11.1081 11.4388 11.0354C11.4698 10.9626 11.5153 10.8969 11.5725 10.8421C11.6296 10.7874 11.6972 10.7448 11.7712 10.7169C11.8453 10.6889 11.9242 10.6762 12.0032 10.6796C12.1546 10.6859 12.2976 10.7506 12.4024 10.86C12.5072 10.9694 12.5657 11.1151 12.5655 11.2665C12.5654 11.418 12.5067 11.5636 12.4017 11.6728C12.2967 11.782 12.1536 11.8464 12.0022 11.8526ZM4.87724 21.1806C4.60539 21.1924 4.34859 21.3087 4.16041 21.5053C3.97223 21.7018 3.86719 21.9634 3.86719 22.2356C3.86719 22.5077 3.97223 22.7693 4.16041 22.9658C4.34859 23.1624 4.60539 23.2787 4.87724 23.2906C5.1491 23.2787 5.40589 23.1624 5.59407 22.9658C5.78225 22.7693 5.8873 22.5077 5.8873 22.2356C5.8873 21.9634 5.78225 21.7018 5.59407 21.5053C5.40589 21.3087 5.1491 21.1924 4.87724 21.1806ZM4.87724 22.5866C4.78389 22.5866 4.69435 22.5495 4.62834 22.4835C4.56233 22.4175 4.52524 22.3279 4.52524 22.2346C4.52524 22.1412 4.56233 22.0517 4.62834 21.9857C4.69435 21.9196 4.78389 21.8826 4.87724 21.8826C4.9706 21.8826 5.06013 21.9196 5.12614 21.9857C5.19216 22.0517 5.22924 22.1412 5.22924 22.2346C5.22924 22.3279 5.19216 22.4175 5.12614 22.4835C5.06013 22.5495 4.9706 22.5866 4.87724 22.5866ZM18.1072 21.0666C18.2006 21.0666 18.2901 21.0295 18.3561 20.9635C18.4222 20.8975 18.4592 20.8079 18.4592 20.7146C18.4592 20.6212 18.4222 20.5317 18.3561 20.4657C18.2901 20.3996 18.2006 20.3626 18.1072 20.3626C18.0173 20.3674 17.9325 20.4065 17.8706 20.4719C17.8086 20.5373 17.774 20.624 17.774 20.7141C17.774 20.8042 17.8086 20.8909 17.8706 20.9562C17.9325 21.0216 18.0173 21.0618 18.1072 21.0666Z" fill="#49DCFF"/>
</g>
</g>
<defs>
<clipPath id="clip0_570_7920">
<rect width="24" height="24" fill="white" transform="translate(0 0.765625)"/>
</clipPath>
</defs>
</svg>
