<svg width="24" height="25" viewBox="0 0 24 25" fill="none" xmlns="http://www.w3.org/2000/svg">
<g clip-path="url(#clip0_570_7910)">
<path d="M22.8 0.820312H1.2C0.88174 0.820313 0.576516 0.946741 0.351472 1.17178C0.126428 1.39683 0 1.70205 0 2.02031L0 23.6203C0 23.9386 0.126428 24.2438 0.351472 24.4688C0.576516 24.6939 0.88174 24.8203 1.2 24.8203H22.8C23.1183 24.8203 23.4235 24.6939 23.6485 24.4688C23.8736 24.2438 24 23.9386 24 23.6203V2.02031C24 1.70205 23.8736 1.39683 23.6485 1.17178C23.4235 0.946741 23.1183 0.820313 22.8 0.820312ZM23.2 23.6203C23.2 23.7264 23.1579 23.8281 23.0828 23.9032C23.0078 23.9782 22.9061 24.0203 22.8 24.0203H1.2C1.09391 24.0203 0.992172 23.9782 0.917157 23.9032C0.842143 23.8281 0.8 23.7264 0.8 23.6203V2.02031C0.8 1.80031 0.98 1.62031 1.2 1.62031H22.8C23.02 1.62031 23.2 1.80031 23.2 2.02031V23.6203Z" fill="#49DCFF"/>
<path d="M21.2 3.21875H8.4C8.29391 3.21875 8.19217 3.26089 8.11716 3.33591C8.04214 3.41092 8 3.51266 8 3.61875V5.21875C8 5.43875 8.179 5.61875 8.4 5.61875H21.2C21.3061 5.61875 21.4078 5.57661 21.4828 5.50159C21.5579 5.42658 21.6 5.32484 21.6 5.21875V3.61875C21.6 3.51266 21.5579 3.41092 21.4828 3.33591C21.4078 3.26089 21.3061 3.21875 21.2 3.21875ZM20.8 4.81875H8.8V4.01875H20.8V4.81875ZM21.2 6.41875H8.4C8.29391 6.41875 8.19217 6.46089 8.11716 6.53591C8.04214 6.61092 8 6.71266 8 6.81875V8.41875C8 8.63875 8.179 8.81875 8.4 8.81875H21.2C21.3061 8.81875 21.4078 8.77661 21.4828 8.70159C21.5579 8.62658 21.6 8.52484 21.6 8.41875V6.81875C21.6 6.71266 21.5579 6.61092 21.4828 6.53591C21.4078 6.46089 21.3061 6.41875 21.2 6.41875ZM20.8 8.01875H8.8V7.21875H20.8V8.01875ZM21.2 9.61875H8.4C8.29391 9.61875 8.19217 9.66089 8.11716 9.73591C8.04214 9.81092 8 9.91266 8 10.0187V11.6187C8 11.8387 8.179 12.0187 8.4 12.0187H21.2C21.3061 12.0187 21.4078 11.9766 21.4828 11.9016C21.5579 11.8266 21.6 11.7248 21.6 11.6187V10.0187C21.6 9.91266 21.5579 9.81092 21.4828 9.73591C21.4078 9.66089 21.3061 9.61875 21.2 9.61875ZM20.8 11.2187H8.8V10.4188H20.8V11.2187ZM20.4 13.6187C20.0817 13.6187 19.7765 13.7452 19.5515 13.9702C19.3264 14.1953 19.2 14.5005 19.2 14.8188C19.2 15.137 19.3264 15.4422 19.5515 15.6673C19.7765 15.8923 20.0817 16.0187 20.4 16.0187C20.7183 16.0187 21.0235 15.8923 21.2485 15.6673C21.4736 15.4422 21.6 15.137 21.6 14.8188C21.6 14.5005 21.4736 14.1953 21.2485 13.9702C21.0235 13.7452 20.7183 13.6187 20.4 13.6187ZM20.4 15.2188C20.2939 15.2188 20.1922 15.1766 20.1172 15.1016C20.0421 15.0266 20 14.9248 20 14.8188C20 14.7127 20.0421 14.6109 20.1172 14.5359C20.1922 14.4609 20.2939 14.4188 20.4 14.4188C20.5061 14.4188 20.6078 14.4609 20.6828 14.5359C20.7579 14.6109 20.8 14.7127 20.8 14.8188C20.8 14.9248 20.7579 15.0266 20.6828 15.1016C20.6078 15.1766 20.5061 15.2188 20.4 15.2188ZM20.4 16.8188C20.0817 16.8188 19.7765 16.9452 19.5515 17.1702C19.3264 17.3953 19.2 17.7005 19.2 18.0188C19.2 18.337 19.3264 18.6422 19.5515 18.8673C19.7765 19.0923 20.0817 19.2188 20.4 19.2188C20.7183 19.2188 21.0235 19.0923 21.2485 18.8673C21.4736 18.6422 21.6 18.337 21.6 18.0188C21.6 17.7005 21.4736 17.3953 21.2485 17.1702C21.0235 16.9452 20.7183 16.8188 20.4 16.8188ZM20.4 18.4188C20.2939 18.4188 20.1922 18.3766 20.1172 18.3016C20.0421 18.2266 20 18.1248 20 18.0188C20 17.9127 20.0421 17.8109 20.1172 17.7359C20.1922 17.6609 20.2939 17.6187 20.4 17.6187C20.5061 17.6187 20.6078 17.6609 20.6828 17.7359C20.7579 17.8109 20.8 17.9127 20.8 18.0188C20.8 18.1248 20.7579 18.2266 20.6828 18.3016C20.6078 18.3766 20.5061 18.4188 20.4 18.4188ZM20.4 20.0188C20.0817 20.0188 19.7765 20.1452 19.5515 20.3702C19.3264 20.5953 19.2 20.9005 19.2 21.2188C19.2 21.537 19.3264 21.8422 19.5515 22.0673C19.7765 22.2923 20.0817 22.4188 20.4 22.4188C20.7183 22.4188 21.0235 22.2923 21.2485 22.0673C21.4736 21.8422 21.6 21.537 21.6 21.2188C21.6 20.9005 21.4736 20.5953 21.2485 20.3702C21.0235 20.1452 20.7183 20.0188 20.4 20.0188ZM20.4 21.6187C20.2939 21.6187 20.1922 21.5766 20.1172 21.5016C20.0421 21.4266 20 21.3248 20 21.2188C20 21.1127 20.0421 21.0109 20.1172 20.9359C20.1922 20.8609 20.2939 20.8188 20.4 20.8188C20.5061 20.8188 20.6078 20.8609 20.6828 20.9359C20.7579 21.0109 20.8 21.1127 20.8 21.2188C20.8 21.3248 20.7579 21.4266 20.6828 21.5016C20.6078 21.5766 20.5061 21.6187 20.4 21.6187ZM17.6 13.6187H10.4C10.1878 13.6187 9.98434 13.703 9.83431 13.8531C9.68429 14.0031 9.6 14.2066 9.6 14.4188V21.6187C9.6 21.8309 9.68429 22.0344 9.83431 22.1844C9.98434 22.3345 10.1878 22.4188 10.4 22.4188H17.6C17.8122 22.4188 18.0157 22.3345 18.1657 22.1844C18.3157 22.0344 18.4 21.8309 18.4 21.6187V14.4188C18.4 14.2066 18.3157 14.0031 18.1657 13.8531C18.0157 13.703 17.8122 13.6187 17.6 13.6187ZM17.6 21.6187H10.4V14.4188H17.6V21.6187Z" fill="#49DCFF"/>
<path d="M12.3984 20.4188H15.5984C15.8106 20.4188 16.0141 20.3345 16.1641 20.1844C16.3142 20.0344 16.3984 19.8309 16.3984 19.6187V16.4188C16.3984 16.2066 16.3142 16.0031 16.1641 15.8531C16.0141 15.703 15.8106 15.6187 15.5984 15.6187H12.3984C12.1863 15.6187 11.9828 15.703 11.8328 15.8531C11.6827 16.0031 11.5984 16.2066 11.5984 16.4188V19.6187C11.5984 19.8309 11.6827 20.0344 11.8328 20.1844C11.9828 20.3345 12.1863 20.4188 12.3984 20.4188ZM12.3984 16.4188H15.5984V19.6187H12.3984V16.4188ZM2.79844 12.0187H6.79844C6.90452 12.0187 7.00627 11.9766 7.08128 11.9016C7.15629 11.8266 7.19844 11.7248 7.19844 11.6187V7.61875C7.19844 7.51266 7.15629 7.41092 7.08128 7.33591C7.00627 7.26089 6.90452 7.21875 6.79844 7.21875H2.79844C2.69235 7.21875 2.59061 7.26089 2.51559 7.33591C2.44058 7.41092 2.39844 7.51266 2.39844 7.61875V11.6187C2.39844 11.8397 2.57844 12.0187 2.79844 12.0187ZM3.19844 8.01875H6.39844V11.2187H3.19844V8.01875ZM2.79844 6.41875H6.79844C6.90452 6.41875 7.00627 6.37661 7.08128 6.30159C7.15629 6.22658 7.19844 6.12484 7.19844 6.01875V3.61875C7.19844 3.51266 7.15629 3.41092 7.08128 3.33591C7.00627 3.26089 6.90452 3.21875 6.79844 3.21875H2.79844C2.69235 3.21875 2.59061 3.26089 2.51559 3.33591C2.44058 3.41092 2.39844 3.51266 2.39844 3.61875V6.01875C2.39844 6.23875 2.57844 6.41875 2.79844 6.41875ZM3.19844 4.01875H6.39844V5.61875H3.19844V4.01875ZM7.59844 14.4188H2.79844C2.74591 14.4188 2.69389 14.4291 2.64536 14.4492C2.59683 14.4693 2.55274 14.4988 2.51559 14.5359C2.47845 14.5731 2.44899 14.6171 2.42889 14.6657C2.40878 14.7142 2.39844 14.7662 2.39844 14.8188V22.0188C2.39844 22.2398 2.57844 22.4188 2.79844 22.4188H7.59844C7.70452 22.4188 7.80627 22.3766 7.88128 22.3016C7.95629 22.2266 7.99844 22.1248 7.99844 22.0188V14.8188C7.99844 14.7127 7.95629 14.6109 7.88128 14.5359C7.80627 14.4609 7.70452 14.4188 7.59844 14.4188ZM5.59844 17.6187H7.19844V19.2188H5.59844V17.6187ZM4.79844 19.2188H3.19844V17.6187H4.79844V19.2188ZM7.19844 15.2188V16.8188H5.59844V15.2188H7.19844ZM3.19844 15.2188H4.79844V16.8188H3.19844V15.2188ZM3.19844 20.0188H4.79844V21.6187H3.19844V20.0188ZM7.19844 21.6187H5.59844V20.0188H7.19844V21.6187Z" fill="#49DCFF"/>
</g>
<defs>
<clipPath id="clip0_570_7910">
<rect width="24" height="24" fill="white" transform="translate(0 0.820312)"/>
</clipPath>
</defs>
</svg>
