<svg width="24" height="25" viewBox="0 0 24 25" fill="none" xmlns="http://www.w3.org/2000/svg">
<g clip-path="url(#clip0_570_7949)">
<path d="M19.4739 14.4489V1.86019C19.4739 1.20769 18.9459 0.679688 18.2942 0.679688H5.70394C5.05144 0.679688 4.52344 1.20844 4.52344 1.86019V14.4489C4.52344 15.1007 5.05144 15.6287 5.70394 15.6287V22.3172C5.39085 22.3172 5.09058 22.4416 4.8692 22.6629C4.64781 22.8843 4.52344 23.1846 4.52344 23.4977C4.52344 23.8108 4.64781 24.111 4.8692 24.3324C5.09058 24.5538 5.39085 24.6782 5.70394 24.6782H18.2942C18.6073 24.6782 18.9075 24.5538 19.1289 24.3324C19.3503 24.111 19.4747 23.8108 19.4747 23.4977C19.4747 23.1846 19.3503 22.8843 19.1289 22.6629C18.9075 22.4416 18.6073 22.3172 18.2942 22.3172V15.6287C18.9459 15.6287 19.4739 15.1007 19.4739 14.4489ZM18.6872 23.4984C18.6872 23.7159 18.5109 23.8922 18.2942 23.8922H5.70394C5.59951 23.8922 5.49936 23.8507 5.42551 23.7769C5.35167 23.703 5.31019 23.6029 5.31019 23.4984C5.31019 23.394 5.35167 23.2939 5.42551 23.22C5.49936 23.1462 5.59951 23.1047 5.70394 23.1047H18.2942C18.5117 23.1047 18.6872 23.2817 18.6872 23.4984ZM10.8047 21.7967C11.6556 22.0009 12.5447 21.9833 13.3868 21.7457C14.229 21.5081 14.9962 21.0585 15.615 20.4397C16.2337 19.8209 16.6834 19.0538 16.921 18.2116C17.1586 17.3694 17.1761 16.4803 16.9719 15.6294H17.5067V22.3179H6.49069V15.6294H7.02544C6.70891 16.9485 6.92933 18.3393 7.63821 19.4959C8.34709 20.6525 9.48637 21.4801 10.8054 21.7967H10.8047ZM7.67119 16.8099C7.67152 16.4106 7.72782 16.0132 7.83844 15.6294H16.1597C16.2703 16.0132 16.3266 16.4106 16.3269 16.8099C16.3269 17.9578 15.871 19.0586 15.0593 19.8702C14.2477 20.6818 13.1469 21.1378 11.9991 21.1378C10.8512 21.1378 9.75043 20.6818 8.93879 19.8702C8.12716 19.0586 7.67119 17.9578 7.67119 16.8099ZM5.70394 14.8427C5.59964 14.8427 5.4996 14.8013 5.42578 14.7276C5.35196 14.6539 5.31039 14.554 5.31019 14.4497V1.85944C5.31019 1.64194 5.48644 1.46569 5.70394 1.46569H7.67119V4.61344C7.67561 4.7148 7.71899 4.81053 7.79228 4.88069C7.86557 4.95085 7.96311 4.99001 8.06456 4.99001C8.16602 4.99001 8.26356 4.95085 8.33684 4.88069C8.41013 4.81053 8.45351 4.7148 8.45794 4.61344V1.46569H11.6057V4.61344C11.6101 4.7148 11.6535 4.81053 11.7268 4.88069C11.8001 4.95085 11.8976 4.99001 11.9991 4.99001C12.1005 4.99001 12.1981 4.95085 12.2713 4.88069C12.3446 4.81053 12.388 4.7148 12.3924 4.61344V1.46569H15.5394V4.61344C15.5394 4.71787 15.5809 4.81802 15.6548 4.89186C15.7286 4.9657 15.8288 5.00719 15.9332 5.00719C16.0376 5.00719 16.1378 4.9657 16.2116 4.89186C16.2855 4.81802 16.3269 4.71787 16.3269 4.61344V1.46569H18.2934C18.5109 1.46569 18.6872 1.64194 18.6872 1.85944V14.4489C18.6872 14.6664 18.5109 14.8419 18.2942 14.8419L5.70394 14.8427Z" fill="#49DCFF"/>
<path d="M11.9986 17.597C12.1048 17.6016 12.2109 17.5847 12.3104 17.5473C12.4099 17.5098 12.5008 17.4526 12.5775 17.3791C12.6543 17.3056 12.7155 17.2173 12.7572 17.1195C12.799 17.0218 12.8205 16.9166 12.8205 16.8102C12.8205 16.7039 12.799 16.5987 12.7572 16.501C12.7155 16.4032 12.6543 16.3149 12.5775 16.2414C12.5008 16.1679 12.4099 16.1107 12.3104 16.0732C12.2109 16.0358 12.1048 16.0189 11.9986 16.0235C11.7959 16.0324 11.6044 16.1191 11.4641 16.2657C11.3238 16.4123 11.2455 16.6073 11.2455 16.8102C11.2455 17.0132 11.3238 17.2082 11.4641 17.3548C11.6044 17.5014 11.7959 17.5881 11.9986 17.597ZM6.09687 14.4493C6.2013 14.4493 6.30146 14.4078 6.3753 14.3339C6.44914 14.2601 6.49063 14.1599 6.49063 14.0555C6.49063 13.9511 6.44914 13.8509 6.3753 13.7771C6.30146 13.7032 6.2013 13.6617 6.09687 13.6617C5.99245 13.6617 5.89229 13.7032 5.81845 13.7771C5.74461 13.8509 5.70312 13.9511 5.70312 14.0555C5.70312 14.1599 5.74461 14.2601 5.81845 14.3339C5.89229 14.4078 5.99245 14.4493 6.09687 14.4493ZM17.9004 14.4493C18.0048 14.4493 18.105 14.4078 18.1788 14.3339C18.2526 14.2601 18.2941 14.1599 18.2941 14.0555C18.2941 13.9511 18.2526 13.8509 18.1788 13.7771C18.105 13.7032 18.0048 13.6617 17.9004 13.6617C17.7959 13.6617 17.6958 13.7032 17.622 13.7771C17.5481 13.8509 17.5066 13.9511 17.5066 14.0555C17.5066 14.1599 17.5481 14.2601 17.622 14.3339C17.6958 14.4078 17.7959 14.4493 17.9004 14.4493ZM6.09687 2.6465C6.14998 2.64882 6.203 2.64036 6.25275 2.62164C6.3025 2.60292 6.34794 2.57431 6.38634 2.53756C6.42473 2.5008 6.45529 2.45665 6.47617 2.40777C6.49704 2.35888 6.50781 2.30628 6.50781 2.25313C6.50781 2.19997 6.49704 2.14737 6.47617 2.09848C6.45529 2.0496 6.42473 2.00545 6.38634 1.96869C6.34794 1.93194 6.3025 1.90333 6.25275 1.88461C6.203 1.86589 6.14998 1.85743 6.09687 1.85975C5.99245 1.85975 5.89229 1.90123 5.81845 1.97508C5.74461 2.04892 5.70312 2.14907 5.70312 2.2535C5.70312 2.35793 5.74461 2.45808 5.81845 2.53192C5.89229 2.60577 5.99245 2.64725 6.09687 2.64725V2.6465ZM17.9004 2.6465C17.9535 2.64882 18.0065 2.64036 18.0562 2.62164C18.106 2.60292 18.1514 2.57431 18.1898 2.53756C18.2282 2.5008 18.2588 2.45665 18.2797 2.40777C18.3005 2.35888 18.3113 2.30628 18.3113 2.25313C18.3113 2.19997 18.3005 2.14737 18.2797 2.09848C18.2588 2.0496 18.2282 2.00545 18.1898 1.96869C18.1514 1.93194 18.106 1.90333 18.0562 1.88461C18.0065 1.86589 17.9535 1.85743 17.9004 1.85975C17.7959 1.85975 17.6958 1.90123 17.622 1.97508C17.5481 2.04892 17.5066 2.14907 17.5066 2.2535C17.5066 2.35793 17.5481 2.45808 17.622 2.53192C17.6958 2.60577 17.7959 2.64725 17.9004 2.64725V2.6465Z" fill="#49DCFF"/>
</g>
<defs>
<clipPath id="clip0_570_7949">
<rect width="24" height="24" fill="white" transform="translate(0 0.679688)"/>
</clipPath>
</defs>
</svg>
