<svg width="80" height="56" viewBox="0 0 80 56" fill="none" xmlns="http://www.w3.org/2000/svg">
<path d="M79.2061 19.799C79.2061 19.799 71.815 9.90023 71.8106 9.8946C71.8087 9.89196 71.6475 9.60506 71.1509 9.44666L40.3512 0.727681C40.1248 0.66369 39.8857 0.66369 39.6593 0.727681L8.85955 9.44666C8.85955 9.44666 8.43905 9.56832 8.18637 9.91025C8.08519 10.0472 0.80453 19.799 0.80453 19.799C0.560438 20.1263 0.48714 20.5511 0.607783 20.9415C0.728602 21.332 1.02863 21.6409 1.41458 21.7722L7.93263 23.9899V41.7236C7.93263 42.2401 8.24318 42.7054 8.71944 42.9027L39.5193 55.6624C39.6109 55.7004 39.727 55.7593 40.0052 55.7593C40.2835 55.7593 40.4911 55.6624 40.4911 55.6624L71.2912 42.9027C71.7675 42.7054 72.0779 42.2399 72.0779 41.7236V23.9895L78.5959 21.7718C78.9819 21.6405 79.2819 21.3315 79.4027 20.9412C79.5233 20.5511 79.4501 20.1263 79.2061 19.799ZM3.89337 19.9205L9.70423 12.1361L12.0545 12.7851L25.2815 16.4379L37.7904 19.8927L30.4541 28.9578L3.89337 19.9205ZM38.7327 52.575L10.4781 40.8701V24.8557L30.4753 31.6606C30.6093 31.7065 30.7473 31.7281 30.8843 31.7281C31.2604 31.7281 31.6262 31.5606 31.8724 31.2559L38.7329 22.779L38.7327 52.575ZM40.0052 17.858L13.9425 10.6597L40.0052 3.28135L66.068 10.6597L40.0052 17.858ZM69.5326 40.8701L41.2778 52.575V22.7793L48.1383 31.2562C48.3845 31.5606 48.7503 31.7284 49.1264 31.7284C49.2634 31.7284 49.4014 31.7068 49.5355 31.6609L69.5326 24.8561V40.8701ZM49.5566 28.9582L42.2203 19.8931L70.3064 12.1361L76.1175 19.9205L49.5566 28.9582Z" fill="#49DCFF"/>
</svg>
