<svg width="15" height="15" viewBox="0 0 15 15" fill="none" xmlns="http://www.w3.org/2000/svg">
<path d="M7.5 5.49219V8.49219" stroke="#5A5A5A" stroke-linecap="round" stroke-linejoin="round"/>
<path d="M7.5 11.9922C7.77614 11.9922 8 11.7683 8 11.4922C8 11.216 7.77614 10.9922 7.5 10.9922C7.22386 10.9922 7 11.216 7 11.4922C7 11.7683 7.22386 11.9922 7.5 11.9922Z" stroke="#5A5A5A" stroke-linecap="round" stroke-linejoin="round"/>
<path d="M8.38697 1.54404C8.30306 1.38024 8.17556 1.24277 8.01853 1.14678C7.8615 1.05079 7.68102 1 7.49697 1C7.31293 1 7.13245 1.05079 6.97542 1.14678C6.81839 1.24277 6.69089 1.38024 6.60697 1.54404L1.10697 12.544C1.03026 12.6963 0.993742 12.8656 1.00088 13.0359C1.00801 13.2062 1.05856 13.3719 1.14774 13.5172C1.23691 13.6624 1.36174 13.7825 1.51037 13.866C1.65901 13.9494 1.82651 13.9935 1.99697 13.994H12.997C13.1674 13.9935 13.3349 13.9494 13.4836 13.866C13.6322 13.7825 13.757 13.6624 13.8462 13.5172C13.9354 13.3719 13.9859 13.2062 13.9931 13.0359C14.0002 12.8656 13.9637 12.6963 13.887 12.544L8.38697 1.54404Z" stroke="#5A5A5A" stroke-linecap="round" stroke-linejoin="round"/>
</svg>
