<svg width="12" height="14" viewBox="0 0 12 14" fill="none" xmlns="http://www.w3.org/2000/svg">
<path d="M11.5725 9.84376C11.5728 9.95575 11.5424 10.0657 11.4847 10.1616C11.4269 10.2575 11.3439 10.3358 11.2448 10.3879L6.35398 13.1365C6.25151 13.2108 6.1277 13.2499 6.00112 13.2479C5.87454 13.2499 5.75073 13.2108 5.64826 13.1365L0.757478 10.3879C0.658339 10.3358 0.575369 10.2575 0.517581 10.1616C0.459793 10.0657 0.429396 9.95575 0.429693 9.84376V4.27233C0.429226 4.16018 0.459543 4.05006 0.51734 3.95395C0.575137 3.85784 0.658199 3.77943 0.757478 3.72726L5.64826 0.97869C5.75073 0.904347 5.87454 0.865247 6.00112 0.867262C6.13112 0.867262 6.25462 0.904404 6.35398 0.97869L11.2448 3.72726C11.344 3.77943 11.4271 3.85784 11.4849 3.95395C11.5427 4.05006 11.573 4.16018 11.5725 4.27233V9.84376ZM6.00112 2.1979L4.83112 2.8609L8.47762 4.95948L9.69033 4.27233L6.00112 2.1979ZM2.31191 4.27233L6.00112 6.34583L7.21476 5.66519L3.57476 3.56012L2.31191 4.27233ZM1.66748 9.4779L5.38176 11.5709V7.41648L1.66748 5.3309V9.4779ZM10.3348 9.4779V5.3309L6.62048 7.41648V11.5709L10.3348 9.4779Z" fill="#8490A4"/>
</svg>
