<svg width="24" height="25" viewBox="0 0 24 25" fill="none" xmlns="http://www.w3.org/2000/svg">
<g clip-path="url(#clip0_570_7957)">
<mask id="mask0_570_7957" style="mask-type:luminance" maskUnits="userSpaceOnUse" x="0" y="0" width="24" height="25">
<path d="M0 0.632812H24V24.6328H0V0.632812Z" fill="white"/>
</mask>
<g mask="url(#mask0_570_7957)">
<path d="M23.9707 6.28463L23.9685 6.27713L22.7685 3.47738C22.7378 3.40532 22.6866 3.34388 22.6212 3.30068C22.5559 3.25748 22.4793 3.23442 22.401 3.23438H1.59825C1.52001 3.23436 1.44348 3.2573 1.37816 3.30036C1.31283 3.34343 1.26158 3.40471 1.23075 3.47663L0.03075 6.27713V6.28463C0.0138625 6.32693 0.00447215 6.37185 0.003 6.41738C0.003 6.42338 0 6.42788 0 6.43388V21.6364C0 21.8569 0.17925 22.0361 0.39975 22.0361H23.6003C23.6529 22.0362 23.705 22.0259 23.7536 22.0058C23.8023 21.9857 23.8465 21.9563 23.8837 21.919C23.9209 21.8818 23.9504 21.8376 23.9705 21.789C23.9906 21.7404 24.0008 21.6882 24.0007 21.6356V6.43463C24.0007 6.42863 23.9977 6.42413 23.9977 6.41738C23.9963 6.37192 23.9872 6.32703 23.9707 6.28463ZM1.86225 4.03463H22.137L22.9935 6.03413H1.00575L1.86225 4.03463ZM23.2005 21.2359H0.79875V6.83438H23.2013L23.2005 21.2359Z" fill="#49DCFF"/>
<path d="M17.3177 13.1171C17.3928 13.1921 17.4947 13.2349 17.6005 13.2349H20.8007C20.8533 13.2348 20.9053 13.2244 20.9538 13.2042C21.0024 13.184 21.0464 13.1544 21.0835 13.1171L22.2835 11.9171C22.3585 11.8421 22.4005 11.7401 22.4005 11.6344V9.63413C22.4005 9.52811 22.3584 9.42643 22.2834 9.35146C22.2084 9.27649 22.1068 9.23438 22.0007 9.23438H16.4005C16.3479 9.23428 16.2959 9.24454 16.2473 9.26459C16.1987 9.28463 16.1545 9.31406 16.1173 9.35119C16.0801 9.38832 16.0506 9.43243 16.0305 9.48097C16.0104 9.52952 16 9.58157 16 9.63413V11.6344C16 11.7409 16.0427 11.8421 16.1177 11.9171L17.3177 13.1171ZM16.8002 10.0346H21.6002V11.4686L20.635 12.4346H17.7662L16.8002 11.4686V10.0346Z" fill="#49DCFF"/>
<path d="M18.2837 11.1158C18.3189 11.0768 18.3472 11.0322 18.3677 10.9838C18.4035 10.8913 18.4037 10.7888 18.3681 10.6961C18.3326 10.6035 18.2639 10.5274 18.1753 10.4826C18.0868 10.4378 17.9848 10.4276 17.8891 10.4539C17.7934 10.4801 17.7109 10.541 17.6577 10.6247C17.6044 10.7084 17.5842 10.809 17.6009 10.9068C17.6176 11.0045 17.6701 11.0926 17.7482 11.1539C17.8263 11.2151 17.9243 11.2451 18.0233 11.2381C18.1222 11.2311 18.215 11.1875 18.2837 11.1158ZM19.0479 12.0008C19.1964 12.0646 19.3697 12.0308 19.4837 11.9168C19.5189 11.8779 19.5473 11.8332 19.5677 11.7848C19.5884 11.7364 19.5993 11.6844 19.5997 11.6317C19.6001 11.5791 19.5901 11.5268 19.5701 11.4781C19.5501 11.4294 19.5207 11.3851 19.4834 11.3479C19.4462 11.3107 19.4019 11.2812 19.3532 11.2613C19.2922 11.2359 19.226 11.226 19.1603 11.2325C19.0946 11.2389 19.0315 11.2616 18.9767 11.2983C18.9219 11.3351 18.8771 11.3849 18.8462 11.4432C18.8153 11.5015 18.7993 11.5666 18.7997 11.6326C18.7989 11.6854 18.8089 11.7379 18.8288 11.7869C18.8488 11.8358 18.8784 11.8803 18.9159 11.9176C18.9548 11.9527 18.9995 11.9808 19.0479 12.0008ZM20.1159 11.1158C20.1916 11.1902 20.2936 11.232 20.3998 11.232C20.506 11.232 20.6079 11.1902 20.6837 11.1158C20.7189 11.0768 20.7473 11.0322 20.7677 10.9838C20.7882 10.9359 20.7992 10.8844 20.7999 10.8323C20.7986 10.726 20.7571 10.6242 20.6837 10.5473C20.6363 10.5013 20.5784 10.4674 20.515 10.4488C20.4517 10.4301 20.3847 10.4271 20.3199 10.4401C20.2948 10.4444 20.2706 10.4525 20.2479 10.4641C20.2225 10.4729 20.1983 10.485 20.1759 10.5001C20.155 10.5149 20.1349 10.5309 20.1159 10.5481C20.0424 10.6246 20.0008 10.7262 19.9997 10.8323C19.9982 10.8847 20.0093 10.9366 20.0319 10.9838C20.0522 11.0323 20.0806 11.0769 20.1159 11.1158ZM21.6002 16.4333H16.8002C16.7475 16.4332 16.6954 16.4435 16.6468 16.4636C16.5981 16.4837 16.554 16.5132 16.5167 16.5504C16.4795 16.5876 16.45 16.6318 16.4299 16.6804C16.4098 16.7291 16.3996 16.7812 16.3997 16.8338V19.2338C16.3997 19.4551 16.5789 19.6336 16.7994 19.6336H21.5994C21.652 19.6337 21.704 19.6234 21.7526 19.6033C21.8012 19.5833 21.8454 19.5539 21.8826 19.5167C21.9198 19.4796 21.9493 19.4355 21.9694 19.387C21.9895 19.3384 21.9999 19.2864 21.9999 19.2338V16.8338C22 16.7813 21.9897 16.7292 21.9697 16.6806C21.9496 16.632 21.9202 16.5879 21.8831 16.5507C21.846 16.5135 21.8019 16.484 21.7533 16.4638C21.7048 16.4437 21.6527 16.4333 21.6002 16.4333ZM17.1999 17.2336H18.7997V18.8341H17.1999V17.2336ZM21.2004 18.8341H19.5999V17.2336H21.2004V18.8341ZM1.99816 20.4338H3.59866V19.6336H2.39866V18.4336H1.59766V20.0333C1.59766 20.2538 1.77691 20.4331 1.99741 20.4331L1.99816 20.4338ZM13.5992 9.63306H14.4002V8.03256C14.4002 7.92654 14.358 7.82486 14.2831 7.7499C14.2081 7.67493 14.1064 7.63281 14.0004 7.63281H12.3999V8.43306H13.5999L13.5992 9.63306ZM2.39866 8.43306H3.59866V7.63281H1.99816C1.89214 7.63281 1.79046 7.67493 1.71549 7.7499C1.64052 7.82486 1.59841 7.92654 1.59841 8.03256V9.63381H2.39866V8.43306ZM13.5992 19.6336H12.3992V20.4331H13.9997C14.1057 20.4331 14.2074 20.3909 14.2823 20.316C14.3573 20.241 14.3994 20.1393 14.3994 20.0333V18.4328H13.5992V19.6336ZM7.99891 8.03256C6.81222 8.03256 5.65218 8.38446 4.66548 9.04375C3.67879 9.70303 2.90975 10.6401 2.45563 11.7365C2.0015 12.8328 1.88268 14.0392 2.11419 15.2031C2.34571 16.367 2.91715 17.4361 3.75627 18.2752C4.59538 19.1143 5.66448 19.6858 6.82836 19.9173C7.99225 20.1488 9.19865 20.03 10.295 19.5758C11.3914 19.1217 12.3284 18.3527 12.9877 17.366C13.647 16.3793 13.9989 15.2193 13.9989 14.0326C13.9969 12.4419 13.3641 10.9169 12.2394 9.79211C11.1146 8.66733 9.5896 8.03455 7.99891 8.03256ZM11.3784 16.8473C12.0381 16.058 12.3994 15.062 12.3994 14.0333C12.3994 13.0046 12.0381 12.0086 11.3784 11.2193L11.9432 10.6538C12.7533 11.5932 13.1989 12.7924 13.1989 14.0329C13.1989 15.2734 12.7533 16.4726 11.9432 17.4121L11.3784 16.8473ZM9.99841 14.0333C9.99841 14.4248 9.88291 14.8081 9.66541 15.1343L9.07891 14.5471C9.15808 14.3874 9.19928 14.2116 9.19928 14.0333C9.19928 13.8551 9.15808 13.6792 9.07891 13.5196L9.66616 12.9316C9.88366 13.2586 9.99841 13.6418 9.99841 14.0333ZM5.99866 14.0333C5.99866 13.6411 6.11491 13.2578 6.33166 12.9323L6.91891 13.5188C6.83972 13.6786 6.79852 13.8546 6.79852 14.0329C6.79852 14.2113 6.83972 14.3872 6.91891 14.5471L6.33166 15.1343C6.11456 14.8082 5.99871 14.4251 5.99866 14.0333ZM7.59916 14.0333C7.59916 13.9273 7.64127 13.8256 7.71624 13.7506C7.79121 13.6757 7.89289 13.6336 7.99891 13.6336C8.10493 13.6336 8.2066 13.6757 8.28157 13.7506C8.35654 13.8256 8.39866 13.9273 8.39866 14.0333C8.39866 14.1393 8.35654 14.241 8.28157 14.316C8.2066 14.3909 8.10493 14.4331 7.99891 14.4331C7.89289 14.4331 7.79121 14.3909 7.71624 14.316C7.64127 14.241 7.59916 14.1393 7.59916 14.0333ZM8.51266 12.9533C8.35295 12.8742 8.17713 12.833 7.99891 12.833C7.82068 12.833 7.64486 12.8742 7.48516 12.9533L6.89716 12.3661C7.22334 12.1487 7.60655 12.0327 7.99853 12.0327C8.39051 12.0327 8.77373 12.1487 9.09991 12.3661L8.51266 12.9533ZM7.48516 15.1133C7.80841 15.2738 8.18866 15.2738 8.51266 15.1133L9.09991 15.7006C8.77373 15.9176 8.39069 16.0334 7.99891 16.0334C7.60712 16.0334 7.22408 15.9176 6.89791 15.7006L7.48516 15.1133ZM9.67216 11.7931C9.19007 11.4292 8.60253 11.2323 7.99853 11.2323C7.39453 11.2323 6.80699 11.4292 6.32491 11.7931L5.75416 11.2223C6.39055 10.7109 7.18249 10.4321 7.99891 10.4321C8.81532 10.4321 9.60727 10.7109 10.2437 11.2223L9.67291 11.7923L9.67216 11.7931ZM5.75866 12.3593C5.39459 12.8415 5.19764 13.4292 5.19764 14.0333C5.19764 14.6375 5.39459 15.2252 5.75866 15.7073L5.18791 16.2773C4.67668 15.641 4.39802 14.8492 4.39802 14.0329C4.39802 13.2167 4.67668 12.4249 5.18791 11.7886L5.75866 12.3593ZM6.32491 16.2736C6.80699 16.6374 7.39453 16.8343 7.99853 16.8343C8.60253 16.8343 9.19007 16.6374 9.67216 16.2736L10.2429 16.8436C9.60658 17.3548 8.81478 17.6335 7.99853 17.6335C7.18228 17.6335 6.39049 17.3548 5.75416 16.8436L6.32491 16.2736ZM10.2392 15.7073C10.6032 15.2252 10.8002 14.6375 10.8002 14.0333C10.8002 13.4292 10.6032 12.8415 10.2392 12.3593L10.8092 11.7893C11.3204 12.4256 11.599 13.2174 11.599 14.0337C11.599 14.8499 11.3204 15.6417 10.8092 16.2781L10.2392 15.7073ZM11.3792 10.0883L10.8129 10.6538C10.0236 9.99436 9.02779 9.63309 7.99928 9.63309C6.97077 9.63309 5.97493 9.99436 5.18566 10.6538L4.62016 10.0883C5.55965 9.27834 6.75883 8.83277 7.99928 8.83277C9.23973 8.83277 10.4389 9.27834 11.3784 10.0883H11.3792ZM4.05391 10.6538L4.61941 11.2193C3.95989 12.0087 3.5986 13.0047 3.5986 14.0333C3.5986 15.062 3.95989 16.0579 4.61941 16.8473L4.05391 17.4121C3.24413 16.4726 2.79869 15.2736 2.79869 14.0333C2.79869 12.793 3.24413 11.594 4.05391 10.6546V10.6538ZM4.61941 17.9776L5.18491 17.4128C5.97412 18.0724 6.96998 18.4338 7.99853 18.4338C9.02708 18.4338 10.0229 18.0724 10.8122 17.4128L11.3777 17.9776C10.4382 18.7873 9.23918 19.2328 7.99891 19.2328C6.75863 19.2328 5.55885 18.7873 4.61941 17.9776Z" fill="#49DCFF"/>
</g>
</g>
<defs>
<clipPath id="clip0_570_7957">
<rect width="24" height="24" fill="white" transform="translate(0 0.632812)"/>
</clipPath>
</defs>
</svg>
