<svg width="24" height="25" viewBox="0 0 24 25" fill="none" xmlns="http://www.w3.org/2000/svg">
<g clip-path="url(#clip0_570_7901)">
<path d="M2.43811 19.2021C2.47286 19.237 2.51415 19.2646 2.55963 19.2835C2.60511 19.3024 2.65386 19.3121 2.70311 19.3121C2.75235 19.3121 2.80111 19.3024 2.84659 19.2835C2.89206 19.2646 2.93336 19.237 2.96811 19.2021L3.26511 18.9051C3.27911 18.8888 3.29632 18.8756 3.31567 18.8663C3.33501 18.857 3.35607 18.8517 3.37752 18.8509C3.39897 18.8501 3.42036 18.8538 3.44035 18.8616C3.46033 18.8694 3.47848 18.8813 3.49366 18.8965C3.50884 18.9117 3.52073 18.9298 3.52857 18.9498C3.53641 18.9698 3.54005 18.9912 3.53925 19.0127C3.53844 19.0341 3.53322 19.0552 3.5239 19.0745C3.51459 19.0938 3.50138 19.1111 3.48511 19.1251L3.18711 19.4221C3.11688 19.4924 3.07744 19.5877 3.07744 19.6871C3.07744 19.7864 3.11688 19.8818 3.18711 19.9521L4.12511 20.8901C4.19543 20.9603 4.29071 20.9999 4.39011 21.0001C4.43951 21.0002 4.48846 20.9906 4.53412 20.9717C4.57977 20.9528 4.62123 20.9251 4.65611 20.8901L4.92011 20.6241C4.93455 20.6096 4.95171 20.5982 4.97059 20.5905C4.98948 20.5828 5.00971 20.5789 5.03011 20.5791C5.06088 20.5789 5.091 20.5879 5.11664 20.6049C5.14228 20.622 5.16227 20.6462 5.17407 20.6746C5.18586 20.7031 5.18893 20.7344 5.18289 20.7645C5.17684 20.7947 5.16195 20.8224 5.14011 20.8441L4.87511 21.1091C4.80488 21.1794 4.76544 21.2747 4.76544 21.3741C4.76544 21.4734 4.80488 21.5688 4.87511 21.6391L7.23511 23.9991C7.30511 24.0691 7.40111 24.1091 7.50011 24.1091H7.50211C7.55173 24.1089 7.60082 24.0988 7.6465 24.0794C7.69217 24.06 7.73352 24.0316 7.76811 23.9961L23.1431 8.24606C23.212 8.17548 23.2504 8.08059 23.2498 7.98195C23.2492 7.88331 23.2098 7.78886 23.1401 7.71906L20.8901 5.46906C20.8198 5.39884 20.7245 5.35939 20.6251 5.35939C20.5257 5.35939 20.4304 5.39884 20.3601 5.46906L20.1401 5.68906C20.1257 5.70351 20.1085 5.71497 20.0896 5.72279C20.0708 5.7306 20.0505 5.73463 20.0301 5.73463C20.0097 5.73463 19.9895 5.7306 19.9706 5.72279C19.9517 5.71497 19.9346 5.70351 19.9201 5.68906C19.9057 5.67462 19.8942 5.65747 19.8864 5.6386C19.8786 5.61972 19.8745 5.59949 19.8745 5.57906C19.8745 5.55863 19.8786 5.53841 19.8864 5.51953C19.8942 5.50066 19.9057 5.48351 19.9201 5.46906L20.1401 5.24906C20.2103 5.17875 20.2498 5.08344 20.2498 4.98406C20.2498 4.88469 20.2103 4.78938 20.1401 4.71906L19.3901 3.96906C19.3198 3.89884 19.2245 3.85939 19.1251 3.85939C19.0257 3.85939 18.9304 3.89884 18.8601 3.96906L18.6401 4.18906C18.6109 4.21824 18.5714 4.23463 18.5301 4.23463C18.4889 4.23463 18.4493 4.21824 18.4201 4.18906C18.3909 4.15989 18.3745 4.12032 18.3745 4.07906C18.3745 4.03781 18.3909 3.99824 18.4201 3.96906L18.6401 3.74906C18.7103 3.67875 18.7498 3.58344 18.7498 3.48406C18.7498 3.38469 18.7103 3.28938 18.6401 3.21906L17.1401 1.71906C17.0703 1.64935 16.9759 1.60994 16.8772 1.60938C16.7786 1.60882 16.6837 1.64715 16.6131 1.71606L0.863108 17.0911C0.827567 17.1257 0.799264 17.167 0.779846 17.2126C0.760429 17.2583 0.750285 17.3073 0.750006 17.3569C0.749727 17.4065 0.759318 17.4557 0.77822 17.5016C0.797122 17.5474 0.824959 17.5891 0.860108 17.6241L2.43811 19.2021ZM19.1461 10.0351L19.7541 10.6441L19.1671 11.2461L18.5601 10.6391L19.1461 10.0351ZM19.6681 9.49706L20.2541 8.89306L20.8661 9.50506L20.2781 10.1071L19.6681 9.49706ZM18.0381 11.1771L18.6431 11.7831L18.0551 12.3841L17.4521 11.7801L18.0381 11.1771ZM16.9291 12.3191L17.5321 12.9211L16.9441 13.5231L16.3441 12.9231L16.9291 12.3191ZM15.8211 13.4611L16.4211 14.0601L15.8331 14.6611L15.2351 14.0641L15.8211 13.4611ZM14.7131 14.6021L15.3091 15.1981L14.7211 15.8001L14.1271 15.2061L14.7131 14.6021ZM13.6051 15.7441L14.1971 16.3371L13.6101 16.9381L13.0191 16.3481L13.6051 15.7441ZM12.4961 16.8861L13.0861 17.4761L12.4981 18.0771L11.9111 17.4901L12.4961 16.8861ZM11.3881 18.0281L11.9741 18.6141L11.3871 19.2161L10.8021 18.6311L11.3881 18.0281ZM10.2801 19.1691L10.8631 19.7511L10.2751 20.3531L9.69511 19.7731L10.2801 19.1691ZM9.17211 20.3101L9.75211 20.8901L8.97911 21.6811L8.40111 21.1041L9.17111 20.3101H9.17211ZM16.8721 2.51006L17.8461 3.48506C17.695 3.65787 17.6152 3.88163 17.6229 4.11105C17.6306 4.34047 17.7251 4.5584 17.8875 4.72071C18.0498 4.88303 18.2677 4.9776 18.4971 4.98528C18.7265 4.99295 18.9503 4.91316 19.1231 4.76206L19.3461 4.98506C19.195 5.15787 19.1152 5.38163 19.1229 5.61105C19.1306 5.84047 19.2251 6.0584 19.3875 6.22071C19.5498 6.38303 19.7677 6.4776 19.9971 6.48528C20.2265 6.49295 20.4503 6.41316 20.6231 6.26206L22.3481 7.98606L21.3901 8.96806L20.5151 8.09306C20.4804 8.05819 20.4391 8.03052 20.3936 8.01164C20.3481 7.99276 20.2993 7.98305 20.2501 7.98306H20.2471C20.1974 7.9835 20.1483 7.9938 20.1027 8.01337C20.057 8.03294 20.0157 8.06139 19.9811 8.09706L7.60611 20.8481C7.53763 20.9187 7.49967 21.0135 7.50042 21.1119C7.50116 21.2103 7.54056 21.3044 7.61011 21.3741L8.45511 22.2191L7.49711 23.2011L5.67011 21.3741C5.7967 21.2475 5.88292 21.0862 5.91785 20.9107C5.95278 20.7351 5.93486 20.5531 5.86635 20.3877C5.79784 20.2223 5.68182 20.081 5.53297 19.9815C5.38412 19.8821 5.20912 19.829 5.03011 19.8291C4.91121 19.8288 4.79344 19.852 4.68359 19.8975C4.57374 19.943 4.47399 20.0098 4.39011 20.0941L3.98311 19.6871L4.01511 19.6541C4.09915 19.57 4.16582 19.4702 4.21131 19.3604C4.25679 19.2506 4.28021 19.1329 4.28021 19.0141C4.28021 18.8952 4.25679 18.7775 4.21131 18.6677C4.16582 18.5579 4.09915 18.4581 4.01511 18.3741C3.93106 18.29 3.83129 18.2233 3.72147 18.1779C3.61166 18.1324 3.49397 18.109 3.37511 18.109C3.25625 18.109 3.13855 18.1324 3.02874 18.1779C2.91893 18.2233 2.81915 18.29 2.73511 18.3741L2.70311 18.4061L1.65911 17.3621L16.8721 2.51206V2.51006Z" fill="#49DCFF"/>
<path d="M6.48467 20.249C6.55498 20.3193 6.65029 20.3587 6.74967 20.3587C6.84905 20.3587 6.94436 20.3193 7.01467 20.249L12.6397 14.624C12.7097 14.5536 12.7489 14.4583 12.7489 14.359C12.7489 14.2598 12.7097 14.1645 12.6397 14.094L9.63967 11.094C9.56936 11.0238 9.47405 10.9844 9.37467 10.9844C9.27529 10.9844 9.17998 11.0238 9.10967 11.094L3.48467 16.719C3.41444 16.7894 3.375 16.8847 3.375 16.984C3.375 17.0834 3.41444 17.1787 3.48467 17.249L6.48467 20.249ZM9.37467 11.889L11.8447 14.359L10.4997 15.704L8.02967 13.234L9.37467 11.889ZM7.49967 13.764L9.96967 16.234L8.62467 17.579L6.15467 15.109L7.49967 13.764ZM5.62467 15.639L8.09467 18.109L6.74967 19.454L4.27967 16.984L5.62467 15.639ZM13.2347 13.499C13.305 13.5693 13.4003 13.6087 13.4997 13.6087C13.599 13.6087 13.6944 13.5693 13.7647 13.499L19.3897 7.87404C19.4597 7.8036 19.4989 7.70834 19.4989 7.60905C19.4989 7.50975 19.4597 7.41449 19.3897 7.34405L16.3897 4.34404C16.3194 4.27382 16.224 4.23438 16.1247 4.23438C16.0253 4.23438 15.93 4.27382 15.8597 4.34404L10.2347 9.96904C10.1647 10.0395 10.1254 10.1348 10.1254 10.234C10.1254 10.3333 10.1647 10.4286 10.2347 10.499L13.2347 13.499ZM16.1247 5.13905L18.5947 7.60905L17.2497 8.95405L14.7797 6.48405L16.1247 5.13905ZM14.2497 7.01405L16.7197 9.48405L15.3747 10.829L12.9047 8.35905L14.2497 7.01405ZM12.3747 8.88904L14.8447 11.359L13.4997 12.704L11.0297 10.234L12.3747 8.88904Z" fill="#49DCFF"/>
</g>
<defs>
<clipPath id="clip0_570_7901">
<rect width="24" height="24" fill="white" transform="translate(0 0.859375)"/>
</clipPath>
</defs>
</svg>
