<svg width="19" height="19" viewBox="0 0 19 19" fill="none" xmlns="http://www.w3.org/2000/svg">
<circle cx="9.62891" cy="9.82031" r="9" fill="#49DCFF"/>
<path d="M9.5831 13.4354C8.84399 13.4354 8.20762 13.268 7.67401 12.9332C7.1437 12.5952 6.73603 12.1295 6.45099 11.5362C6.16596 10.9429 6.02344 10.2635 6.02344 9.49787C6.02344 8.7223 6.16927 8.03788 6.46094 7.4446C6.7526 6.84801 7.16359 6.38234 7.69389 6.04758C8.2242 5.71283 8.84896 5.54545 9.56818 5.54545C10.1482 5.54545 10.6652 5.65317 11.1193 5.86861C11.5734 6.08073 11.9396 6.37902 12.218 6.76349C12.4998 7.14796 12.6671 7.59706 12.7202 8.1108H11.2734C11.1939 7.75284 11.0116 7.4446 10.7266 7.18608C10.4448 6.92756 10.067 6.7983 9.59304 6.7983C9.17874 6.7983 8.81581 6.90767 8.50426 7.12642C8.19602 7.34186 7.95573 7.65009 7.78338 8.05114C7.61103 8.44886 7.52486 8.91951 7.52486 9.46307C7.52486 10.0199 7.60938 10.5005 7.77841 10.9048C7.94744 11.3092 8.18608 11.6224 8.49432 11.8445C8.80587 12.0665 9.17211 12.1776 9.59304 12.1776C9.87476 12.1776 10.13 12.1262 10.3587 12.0234C10.5907 11.9174 10.7846 11.7666 10.9403 11.571C11.0994 11.3755 11.2105 11.1402 11.2734 10.8651H12.7202C12.6671 11.3589 12.5064 11.7997 12.2379 12.1875C11.9695 12.5753 11.6098 12.8802 11.1591 13.1023C10.7116 13.3243 10.1863 13.4354 9.5831 13.4354Z" fill="#1C232E"/>
</svg>
