<svg width="24" height="25" viewBox="0 0 24 25" fill="none" xmlns="http://www.w3.org/2000/svg">
<g clip-path="url(#clip0_570_7935)">
<mask id="mask0_570_7935" style="mask-type:luminance" maskUnits="userSpaceOnUse" x="0" y="0" width="24" height="25">
<path d="M0 0.71875H24V24.7188H0V0.71875Z" fill="white"/>
</mask>
<g mask="url(#mask0_570_7935)">
<path d="M7.19869 24.7188H10.3989C10.505 24.7188 10.6066 24.6766 10.6816 24.6017C10.7566 24.5267 10.7987 24.425 10.7987 24.319C10.7987 24.0007 10.9251 23.6955 11.1502 23.4705C11.3752 23.2454 11.6804 23.119 11.9987 23.119C12.3169 23.119 12.6222 23.2454 12.8472 23.4705C13.0723 23.6955 13.1987 24.0007 13.1987 24.319C13.1987 24.5395 13.3779 24.7188 13.5984 24.7188H16.7987C17.2412 24.7188 17.5989 24.3603 17.5989 23.9185V21.5185C17.5989 21.0767 17.2404 20.719 16.7987 20.719V19.9188C17.2412 19.9188 17.5989 19.5603 17.5989 19.1185V14.3185C17.5989 13.8767 17.2404 13.519 16.7987 13.519V12.7188C17.2412 12.7188 17.5989 12.3602 17.5989 11.9185V7.1185C17.5989 6.67675 17.2404 6.319 16.7987 6.319V5.51875C17.2412 5.51875 17.5989 5.16025 17.5989 4.7185V3.919C17.5989 3.4765 17.2404 3.11875 16.7987 3.11875V1.519C16.7987 1.0765 16.4409 0.71875 15.9984 0.71875H7.99894C7.55644 0.71875 7.19869 1.07725 7.19869 1.519V3.11875C6.75694 3.11875 6.39844 3.47725 6.39844 3.919V4.7185C6.39844 5.161 6.75694 5.51875 7.19869 5.51875V6.319C6.75694 6.319 6.39844 6.67675 6.39844 7.1185V11.9185C6.39844 12.361 6.75694 12.7188 7.19869 12.7188V13.519C6.75694 13.519 6.39844 13.8767 6.39844 14.3185V19.1185C6.39844 19.561 6.75694 19.9188 7.19869 19.9188V20.719C6.75694 20.719 6.39844 21.0767 6.39844 21.5185V23.9185C6.39844 24.361 6.75694 24.7188 7.19869 24.7188ZM7.99894 1.519H9.19894V1.91875C9.19894 2.02477 9.24105 2.12645 9.31602 2.20142C9.39099 2.27638 9.49267 2.3185 9.59869 2.3185C9.70471 2.3185 9.80639 2.27638 9.88135 2.20142C9.95632 2.12645 9.99844 2.02477 9.99844 1.91875V1.519H10.7987V1.91875C10.7987 2.02487 10.8408 2.12664 10.9159 2.20168C10.9909 2.27672 11.0927 2.31888 11.1988 2.31888C11.3049 2.31888 11.4067 2.27672 11.4817 2.20168C11.5568 2.12664 11.5989 2.02487 11.5989 1.91875V1.519H12.3984V1.91875C12.3984 2.02487 12.4406 2.12664 12.5156 2.20168C12.5907 2.27672 12.6924 2.31887 12.7986 2.31887C12.9047 2.31887 13.0065 2.27672 13.0815 2.20168C13.1565 2.12664 13.1987 2.02487 13.1987 1.91875V1.519H13.9989V1.91875C13.9989 2.02477 14.0411 2.12645 14.116 2.20142C14.191 2.27638 14.2927 2.3185 14.3987 2.3185C14.5047 2.3185 14.6064 2.27638 14.6814 2.20142C14.7563 2.12645 14.7984 2.02477 14.7984 1.91875V1.519H15.9984V3.11875H7.99894V1.519ZM7.19869 21.5185C7.64119 21.5185 7.99894 21.1607 7.99894 20.719V19.9188C7.99894 19.4762 7.64044 19.1185 7.19869 19.1185V14.3185C7.64119 14.3185 7.99894 13.9607 7.99894 13.519V12.7188C7.99894 12.2762 7.64044 11.9185 7.19869 11.9185V7.1185C7.64119 7.1185 7.99894 6.76075 7.99894 6.319V5.51875C7.99894 5.07625 7.64044 4.7185 7.19869 4.7185V3.919H16.7987V4.7185C16.3569 4.7185 15.9984 5.077 15.9984 5.51875V6.319C15.9984 6.76075 16.3569 7.1185 16.7987 7.1185V11.9185C16.3569 11.9185 15.9984 12.277 15.9984 12.7188V13.519C15.9984 13.9607 16.3569 14.3185 16.7987 14.3185V19.1185C16.3569 19.1185 15.9984 19.477 15.9984 19.9188V20.719C15.9984 21.1607 16.3569 21.5185 16.7987 21.5185V23.9185H13.9584C13.8661 23.4669 13.6207 23.061 13.2636 22.7695C12.9065 22.4779 12.4597 22.3187 11.9987 22.3187C11.5377 22.3187 11.0909 22.4779 10.7338 22.7695C10.3767 23.061 10.1312 23.4669 10.0389 23.9185H7.19869V21.5185Z" fill="#49DCFF"/>
<path d="M9.59713 10.7187H14.3971C14.8396 10.7187 15.1974 10.3602 15.1974 9.9185V5.519C15.1974 5.0765 14.8389 4.71875 14.3971 4.71875H9.59713C9.15538 4.71875 8.79688 5.07725 8.79688 5.519V9.9185C8.79688 10.361 9.15538 10.7187 9.59713 10.7187ZM9.59713 5.519H14.3971V9.9185H9.59713V5.519ZM9.59713 16.3182H10.7971C11.2396 16.3182 11.5974 15.9605 11.5974 15.5187V12.3185C11.5974 11.8767 11.2389 11.5182 10.7971 11.5182H9.59713C9.15538 11.5182 8.79688 11.8767 8.79688 12.3185V15.5187C8.79688 15.9605 9.15538 16.3182 9.59713 16.3182ZM9.59713 12.3185H10.7971V15.5187H9.59713V12.3185ZM14.3971 11.5182H13.1971C12.7554 11.5182 12.3969 11.8767 12.3969 12.3185V15.5187C12.3969 15.9605 12.7554 16.3182 13.1971 16.3182H14.3971C14.8396 16.3182 15.1974 15.9605 15.1974 15.5187V12.3185C15.1974 11.8767 14.8389 11.5182 14.3971 11.5182ZM13.1971 15.5187V12.3185H14.3971V15.5187H13.1971ZM15.1974 20.7185V17.9188C15.1974 17.4763 14.8389 17.1185 14.3971 17.1185H9.59713C9.15538 17.1185 8.79688 17.477 8.79688 17.9188V20.7185C8.79688 21.161 9.15538 21.5187 9.59713 21.5187H14.3971C14.8396 21.5187 15.1974 21.1602 15.1974 20.7185ZM9.59713 17.9188H14.3971V20.7185H9.59713V17.9188Z" fill="#49DCFF"/>
<path d="M10.7986 7.11981C10.8511 7.11981 10.903 7.10947 10.9515 7.08938C11 7.06929 11.0441 7.03985 11.0812 7.00273C11.1183 6.96561 11.1478 6.92154 11.1679 6.87304C11.188 6.82454 11.1983 6.77256 11.1983 6.72006C11.1983 6.66757 11.188 6.61558 11.1679 6.56708C11.1478 6.51858 11.1183 6.47452 11.0812 6.4374C11.0441 6.40028 11 6.37083 10.9515 6.35074C10.903 6.33065 10.8511 6.32031 10.7986 6.32031C10.6925 6.32031 10.5909 6.36243 10.5159 6.4374C10.4409 6.51236 10.3988 6.61404 10.3988 6.72006C10.3988 6.82608 10.4409 6.92776 10.5159 7.00273C10.5909 7.0777 10.6925 7.11981 10.7986 7.11981ZM13.1986 7.11981C13.2511 7.11981 13.303 7.10947 13.3515 7.08938C13.4 7.06929 13.4441 7.03985 13.4812 7.00273C13.5183 6.96561 13.5478 6.92154 13.5679 6.87304C13.588 6.82454 13.5983 6.77256 13.5983 6.72006C13.5983 6.66757 13.588 6.61558 13.5679 6.56708C13.5478 6.51858 13.5183 6.47452 13.4812 6.4374C13.4441 6.40028 13.4 6.37083 13.3515 6.35074C13.303 6.33065 13.2511 6.32031 13.1986 6.32031C13.0925 6.32031 12.9909 6.36243 12.9159 6.4374C12.8409 6.51236 12.7988 6.61404 12.7988 6.72006C12.7988 6.82608 12.8409 6.92776 12.9159 7.00273C12.9909 7.0777 13.0925 7.11981 13.1986 7.11981ZM10.7986 9.12006C10.9047 9.12006 11.0065 9.07791 11.0815 9.00287C11.1565 8.92783 11.1987 8.82606 11.1987 8.71994C11.1987 8.61382 11.1565 8.51204 11.0815 8.43701C11.0065 8.36197 10.9047 8.31981 10.7986 8.31981C10.6924 8.31981 10.5907 8.36197 10.5156 8.43701C10.4406 8.51204 10.3984 8.61382 10.3984 8.71994C10.3984 8.82606 10.4406 8.92783 10.5156 9.00287C10.5907 9.07791 10.6924 9.12006 10.7986 9.12006ZM13.1986 9.12006C13.3047 9.12006 13.4065 9.07791 13.4815 9.00287C13.5565 8.92783 13.5987 8.82606 13.5987 8.71994C13.5987 8.61382 13.5565 8.51204 13.4815 8.43701C13.4065 8.36197 13.3047 8.31981 13.1986 8.31981C13.0924 8.31981 12.9907 8.36197 12.9156 8.43701C12.8406 8.51204 12.7984 8.61382 12.7984 8.71994C12.7984 8.82606 12.8406 8.92783 12.9156 9.00287C12.9907 9.07791 13.0924 9.12006 13.1986 9.12006Z" fill="#49DCFF"/>
</g>
</g>
<defs>
<clipPath id="clip0_570_7935">
<rect width="24" height="24" fill="white" transform="translate(0 0.71875)"/>
</clipPath>
</defs>
</svg>
