<svg width="14" height="14" viewBox="0 0 14 14" fill="none" xmlns="http://www.w3.org/2000/svg">
<g clip-path="url(#clip0_570_7667)">
<path d="M13.4912 12.1355L12.6128 13.0139C12.4968 13.1292 12.3399 13.1938 12.1764 13.1938C12.0128 13.1938 11.856 13.1292 11.7399 13.0139L4.38564 5.67264C4.18423 5.73099 3.97595 5.76222 3.76628 5.7655C3.37209 5.76518 2.98366 5.67077 2.6333 5.49011C2.28294 5.30946 1.98077 5.04777 1.75191 4.72682C1.52304 4.40586 1.3741 4.03491 1.31747 3.64481C1.26083 3.2547 1.29814 2.85671 1.42628 2.48393L2.99836 4.05693L3.32707 3.72821L4.2055 2.84979L4.53421 2.52107L2.96121 0.949C3.334 0.820853 3.73199 0.783547 4.12209 0.840182C4.5122 0.896817 4.88315 1.04576 5.2041 1.27462C5.52506 1.50349 5.78674 1.80566 5.9674 2.15602C6.14806 2.50638 6.24247 2.8948 6.24278 3.289C6.2395 3.49866 6.20827 3.70695 6.14993 3.90836L13.4912 11.2626C13.6064 11.3787 13.6711 11.5356 13.6711 11.6991C13.6711 11.8626 13.6064 12.0195 13.4912 12.1355ZM1.46993 11.2626C1.3547 11.3787 1.29004 11.5356 1.29004 11.6991C1.29004 11.8626 1.3547 12.0195 1.46993 12.1355L2.34836 13.0139C2.46438 13.1292 2.62127 13.1938 2.78478 13.1938C2.9483 13.1938 3.10519 13.1292 3.22121 13.0139L6.60771 9.63393L4.8555 7.88264L1.46993 11.2626ZM12.4326 0.8125L9.95707 2.05121V3.289L8.61343 4.63264L9.85121 5.87043L11.1949 4.52679H12.4326L13.6714 2.05121L12.4326 0.8125Z" fill="#49DCFF"/>
</g>
<defs>
<clipPath id="clip0_570_7667">
<rect width="13" height="13" fill="white" transform="translate(0.980469 0.5)"/>
</clipPath>
</defs>
</svg>
