<svg width="15" height="14" viewBox="0 0 15 14" fill="none" xmlns="http://www.w3.org/2000/svg">
<g clip-path="url(#clip0_570_12503)">
<path d="M14.6853 5.28568C14.5874 5.18777 14.5874 5.18777 14.4895 5.18777L9.3986 4.89407L7.53846 0.0968641C7.44056 -0.00103802 7.24476 -0.00103802 7.14685 0.0968641L5.28671 4.89407L0.195804 5.18777H0.0979021L0 5.28568V5.38358C0 5.38358 0 5.48148 0.0979021 5.48148L4.11189 8.81015L2.74126 13.7053C2.74126 13.8032 2.74126 13.9011 2.83916 13.9011H3.03497L7.34266 11.0619L11.6503 13.9011H11.8462L11.9441 13.8032V13.7053L10.5734 8.81015L14.5874 5.57938L14.6853 5.48148V5.28568Z" fill="#49DCFF"/>
</g>
<defs>
<clipPath id="clip0_570_12503">
<rect width="14.6853" height="14" fill="white"/>
</clipPath>
</defs>
</svg>
