<svg width="15" height="15" viewBox="0 0 15 15" fill="none" xmlns="http://www.w3.org/2000/svg">
<g clip-path="url(#clip0_570_7639)">
<g clip-path="url(#clip1_570_7639)">
<path d="M7.63047 1.42188C11.1665 1.42188 14.0305 4.28588 14.0305 7.82188C14.0305 11.3579 11.1665 14.2219 7.63047 14.2219C6.78994 14.2221 5.95759 14.0568 5.18098 13.7352C4.40438 13.4137 3.69875 12.9423 3.1044 12.3479C2.51005 11.7536 2.03864 11.048 1.7171 10.2714C1.39557 9.49476 1.23021 8.66241 1.23047 7.82188C1.23047 4.28588 4.09447 1.42188 7.63047 1.42188ZM8.43047 4.62187C8.43047 4.18187 8.07047 3.82188 7.63047 3.82188C7.19047 3.82188 6.83047 4.18187 6.83047 4.62187C6.83047 5.06187 7.19047 5.42188 7.63047 5.42188C8.07047 5.42188 8.43047 5.06187 8.43047 4.62187ZM8.43047 11.8219V7.02187H6.83047V11.8219H8.43047Z" fill="#5F697A"/>
</g>
</g>
<defs>
<clipPath id="clip0_570_7639">
<rect width="14" height="14" fill="white" transform="translate(0.628906 0.820312)"/>
</clipPath>
<clipPath id="clip1_570_7639">
<rect width="14" height="14" fill="white" transform="translate(0.628906 0.820312)"/>
</clipPath>
</defs>
</svg>
