<svg width="48" height="40" viewBox="0 0 48 40" fill="none" xmlns="http://www.w3.org/2000/svg">
<rect x="5" y="1" width="38" height="38" rx="19" stroke="#2C3849" stroke-width="2"/>
<path d="M20.786 25.0078V23.8942L24.2314 20.3246C24.5993 19.9368 24.9025 19.5971 25.1412 19.3054C25.3831 19.0104 25.5637 18.7304 25.6831 18.4652C25.8024 18.2 25.862 17.9183 25.862 17.62C25.862 17.282 25.7825 16.9903 25.6234 16.745C25.4643 16.4964 25.2472 16.3059 24.9721 16.1733C24.697 16.0374 24.3871 15.9695 24.0424 15.9695C23.6779 15.9695 23.3597 16.044 23.0879 16.1932C22.8161 16.3423 22.6073 16.5528 22.4615 16.8246C22.3156 17.0964 22.2427 17.4145 22.2427 17.7791H20.7761C20.7761 17.1593 20.9186 16.6174 21.2037 16.1534C21.4887 15.6894 21.8798 15.3298 22.377 15.0746C22.8741 14.8161 23.4392 14.6868 24.0723 14.6868C24.7119 14.6868 25.2754 14.8144 25.7626 15.0696C26.2531 15.3215 26.6359 15.6662 26.911 16.1037C27.1861 16.5379 27.3237 17.0284 27.3237 17.5753C27.3237 17.9531 27.2524 18.3227 27.1099 18.6839C26.9707 19.0452 26.7271 19.4479 26.3791 19.892C26.0311 20.3329 25.5472 20.8681 24.9274 21.4979L22.9039 23.6158V23.6903H27.4877V25.0078H20.786Z" fill="white"/>
</svg>
