<svg width="24" height="24" viewBox="0 0 24 24" fill="none" xmlns="http://www.w3.org/2000/svg">
<g clip-path="url(#clip0_570_7859)">
<mask id="mask0_570_7859" style="mask-type:luminance" maskUnits="userSpaceOnUse" x="0" y="0" width="24" height="24">
<path d="M0 0H24V24H0V0Z" fill="white"/>
</mask>
<g mask="url(#mask0_570_7859)">
<path d="M2.8 4.40156H0.4C0.293913 4.40156 0.192172 4.35942 0.117157 4.28441C0.0421427 4.20939 0 4.10765 0 4.00156C0 3.89548 0.0421427 3.79373 0.117157 3.71872C0.192172 3.64371 0.293913 3.60156 0.4 3.60156H2.8C2.90609 3.60156 3.00783 3.64371 3.08284 3.71872C3.15786 3.79373 3.2 3.89548 3.2 4.00156C3.2 4.10765 3.15786 4.20939 3.08284 4.28441C3.00783 4.35942 2.90609 4.40156 2.8 4.40156Z" fill="#49DCFF"/>
<path d="M2.79844 20.4016C2.69235 20.4016 2.59061 20.3594 2.51559 20.2844C2.44058 20.2094 2.39844 20.1076 2.39844 20.0016V4.00156C2.39844 3.89548 2.44058 3.79373 2.51559 3.71872C2.59061 3.64371 2.69235 3.60156 2.79844 3.60156C2.90452 3.60156 3.00627 3.64371 3.08128 3.71872C3.15629 3.79373 3.19844 3.89548 3.19844 4.00156V20.0016C3.19844 20.1076 3.15629 20.2094 3.08128 20.2844C3.00627 20.3594 2.90452 20.4016 2.79844 20.4016Z" fill="#49DCFF"/>
<path d="M2.80078 12H1.20078C1.09469 12 0.992953 11.9579 0.917939 11.8828C0.842924 11.8078 0.800781 11.7061 0.800781 11.6V8.4C0.800781 8.29391 0.842924 8.19217 0.917939 8.11716C0.992953 8.04214 1.09469 8 1.20078 8H2.80078C3.02078 8 3.20078 8.18 3.20078 8.4V11.6C3.20078 11.7061 3.15864 11.8078 3.08362 11.8828C3.00861 11.9579 2.90687 12 2.80078 12ZM1.60078 11.2H2.40078V8.8H1.60078V11.2ZM2.80078 18.4H1.20078C1.09469 18.4 0.992953 18.3579 0.917939 18.2828C0.842924 18.2078 0.800781 18.1061 0.800781 18V14.8C0.800781 14.6939 0.842924 14.5922 0.917939 14.5172C0.992953 14.4421 1.09469 14.4 1.20078 14.4H2.80078C3.02078 14.4 3.20078 14.58 3.20078 14.8V18C3.20078 18.1061 3.15864 18.2078 3.08362 18.2828C3.00861 18.3579 2.90687 18.4 2.80078 18.4ZM1.60078 17.6H2.40078V15.2H1.60078V17.6ZM14.4008 20.4H5.60078C5.49469 20.4 5.39295 20.3579 5.31794 20.2828C5.24292 20.2078 5.20078 20.1061 5.20078 20V17.2C5.20078 17.0939 5.24292 16.9922 5.31794 16.9172C5.39295 16.8421 5.49469 16.8 5.60078 16.8H14.4008C14.5069 16.8 14.6086 16.8421 14.6836 16.9172C14.7586 16.9922 14.8008 17.0939 14.8008 17.2V20C14.8008 20.1061 14.7586 20.2078 14.6836 20.2828C14.6086 20.3579 14.5069 20.4 14.4008 20.4ZM6.00078 19.6H14.0008V17.6H6.00078V19.6Z" fill="#49DCFF"/>
<path d="M7.59922 20.4062C7.49313 20.4062 7.39139 20.3641 7.31638 20.2891C7.24136 20.2141 7.19922 20.1123 7.19922 20.0063V18.8062C7.19922 18.7002 7.24136 18.5984 7.31638 18.5234C7.39139 18.4484 7.49313 18.4063 7.59922 18.4062C7.70531 18.4063 7.80705 18.4484 7.88206 18.5234C7.95708 18.5984 7.99922 18.7002 7.99922 18.8062V20.0063C7.99922 20.1123 7.95708 20.2141 7.88206 20.2891C7.80705 20.3641 7.70531 20.4062 7.59922 20.4062ZM12.3992 20.4062C12.2931 20.4062 12.1914 20.3641 12.1164 20.2891C12.0414 20.2141 11.9992 20.1123 11.9992 20.0063V18.8062C11.9992 18.7002 12.0414 18.5984 12.1164 18.5234C12.1914 18.4484 12.2931 18.4062 12.3992 18.4062C12.5053 18.4062 12.607 18.4484 12.6821 18.5234C12.7571 18.5984 12.7992 18.7002 12.7992 18.8062V20.0063C12.7992 20.1123 12.7571 20.2141 12.6821 20.2891C12.607 20.3641 12.5053 20.4062 12.3992 20.4062ZM18.3992 20.4062C18.2931 20.4062 18.1914 20.3641 18.1164 20.2891C18.0414 20.2141 17.9992 20.1123 17.9992 20.0063V18.8062C17.9992 18.7002 18.0414 18.5984 18.1164 18.5234C18.1914 18.4484 18.2931 18.4062 18.3992 18.4062C18.5053 18.4062 18.607 18.4484 18.6821 18.5234C18.7571 18.5984 18.7992 18.7002 18.7992 18.8062V20.0063C18.7992 20.1123 18.7571 20.2141 18.6821 20.2891C18.607 20.3641 18.5053 20.4062 18.3992 20.4062ZM10.7992 20.4062C10.6931 20.4062 10.5914 20.3641 10.5164 20.2891C10.4414 20.2141 10.3992 20.1123 10.3992 20.0063V18.8062C10.3992 18.7002 10.4414 18.5984 10.5164 18.5234C10.5914 18.4484 10.6931 18.4062 10.7992 18.4062C10.9053 18.4062 11.007 18.4484 11.0821 18.5234C11.1571 18.5984 11.1992 18.7002 11.1992 18.8062V20.0063C11.1992 20.0588 11.1889 20.1108 11.1688 20.1593C11.1487 20.2079 11.1192 20.2519 11.0821 20.2891C11.0449 20.3262 11.0008 20.3557 10.9523 20.3758C10.9038 20.3959 10.8517 20.4062 10.7992 20.4062ZM9.19922 20.4062C9.09313 20.4062 8.99139 20.3641 8.91638 20.2891C8.84136 20.2141 8.79922 20.1123 8.79922 20.0063V18.8062C8.79922 18.7002 8.84136 18.5984 8.91638 18.5234C8.99139 18.4484 9.09313 18.4062 9.19922 18.4062C9.30531 18.4062 9.40705 18.4484 9.48206 18.5234C9.55708 18.5984 9.59922 18.7002 9.59922 18.8062V20.0063C9.59922 20.1123 9.55708 20.2141 9.48206 20.2891C9.40705 20.3641 9.30531 20.4062 9.19922 20.4062Z" fill="#49DCFF"/>
<path d="M20.0008 20.4062H16.8008C16.6947 20.4062 16.593 20.3641 16.5179 20.2891C16.4429 20.2141 16.4008 20.1123 16.4008 20.0063V17.2063C16.4008 17.1002 16.4429 16.9984 16.5179 16.9234C16.593 16.8484 16.6947 16.8062 16.8008 16.8062H20.0008C20.1069 16.8062 20.2086 16.8484 20.2836 16.9234C20.3586 16.9984 20.4008 17.1002 20.4008 17.2063V20.0063C20.4008 20.1123 20.3586 20.2141 20.2836 20.2891C20.2086 20.3641 20.1069 20.4062 20.0008 20.4062ZM17.2008 19.6063H19.6008V17.6063H17.2008V19.6063ZM2.80078 7.20625H1.20078C1.09469 7.20625 0.992953 7.16411 0.917939 7.08909C0.842924 7.01408 0.800781 6.91234 0.800781 6.80625C0.800781 6.70016 0.842924 6.59842 0.917939 6.52341C0.992953 6.44839 1.09469 6.40625 1.20078 6.40625H2.80078C2.90687 6.40625 3.00861 6.44839 3.08362 6.52341C3.15864 6.59842 3.20078 6.70016 3.20078 6.80625C3.20078 6.91234 3.15864 7.01408 3.08362 7.08909C3.00861 7.16411 2.90687 7.20625 2.80078 7.20625ZM2.80078 13.6063H1.20078C1.09469 13.6063 0.992953 13.5641 0.917939 13.4891C0.842924 13.4141 0.800781 13.3123 0.800781 13.2062C0.800781 13.1002 0.842924 12.9984 0.917939 12.9234C0.992953 12.8484 1.09469 12.8063 1.20078 12.8063H2.80078C2.90687 12.8063 3.00861 12.8484 3.08362 12.9234C3.15864 12.9984 3.20078 13.1002 3.20078 13.2062C3.20078 13.3123 3.15864 13.4141 3.08362 13.4891C3.00861 13.5641 2.90687 13.6063 2.80078 13.6063ZM8.40078 16.0063C7.23423 16.0049 6.11585 15.5409 5.29097 14.7161C4.4661 13.8912 4.0021 12.7728 4.00078 11.6063C4.00078 9.18025 5.97478 7.20625 8.40078 7.20625C10.8268 7.20625 12.8008 9.18025 12.8008 11.6063C12.8008 14.0323 10.8268 16.0063 8.40078 16.0063ZM8.40078 8.00625C7.44633 8.00731 6.53127 8.38693 5.85637 9.06183C5.18146 9.73674 4.80184 10.6518 4.80078 11.6063C4.80078 13.5913 6.41578 15.2062 8.40078 15.2062C10.3858 15.2062 12.0008 13.5913 12.0008 11.6063C12.0008 9.62125 10.3858 8.00625 8.40078 8.00625Z" fill="#49DCFF"/>
<path d="M8.40078 13.2C8.08433 13.2 7.77499 13.1062 7.51187 12.9304C7.24875 12.7545 7.04367 12.5047 6.92257 12.2123C6.80147 11.9199 6.76979 11.5982 6.83153 11.2879C6.89326 10.9775 7.04565 10.6924 7.26941 10.4686C7.49317 10.2449 7.77827 10.0925 8.08864 10.0307C8.39901 9.96901 8.72071 10.0007 9.01308 10.1218C9.30544 10.2429 9.55532 10.448 9.73113 10.7111C9.90694 10.9742 10.0008 11.2836 10.0008 11.6C10.0008 12.482 9.28278 13.2 8.40078 13.2ZM8.40078 10.8C8.29566 10.8001 8.19158 10.8208 8.09448 10.8611C7.99739 10.9014 7.90918 10.9604 7.83489 11.0348C7.7606 11.1092 7.70169 11.1975 7.66152 11.2946C7.62136 11.3918 7.60072 11.4959 7.60078 11.601C7.60085 11.7061 7.62162 11.8102 7.66191 11.9073C7.7022 12.0044 7.76122 12.0926 7.8356 12.1669C7.90998 12.2412 7.99826 12.3001 8.09541 12.3403C8.19255 12.3804 8.29666 12.4011 8.40178 12.401C8.61409 12.4009 8.81764 12.3164 8.96767 12.1662C9.1177 12.016 9.20191 11.8123 9.20178 11.6C9.20165 11.3877 9.11718 11.1841 8.96697 11.0341C8.81675 10.8841 8.61309 10.7999 8.40078 10.8Z" fill="#49DCFF"/>
<path d="M21.5984 17.6016H2.79844C2.69235 17.6016 2.59061 17.5594 2.51559 17.4844C2.44058 17.4094 2.39844 17.3076 2.39844 17.2016V6.00156C2.39844 5.78156 2.57844 5.60156 2.79844 5.60156H21.5984C22.9234 5.60156 23.9984 6.67756 23.9984 8.00156V15.2016C23.9984 16.5256 22.9224 17.6016 21.5984 17.6016ZM3.19844 16.8016H21.5984C22.4814 16.8016 23.1984 16.0836 23.1984 15.2016V8.00156C23.1984 7.57722 23.0299 7.17025 22.7298 6.87019C22.4298 6.57013 22.0228 6.40156 21.5984 6.40156H3.19844V16.8016Z" fill="#49DCFF"/>
<path d="M8.40078 10.8C8.29469 10.8 8.19295 10.7579 8.11794 10.6828C8.04292 10.6078 8.00078 10.5061 8.00078 10.4C8.00078 9.538 6.90078 8.8 6.00078 8.8C5.89469 8.8 5.79295 8.75786 5.71794 8.68284C5.64292 8.60783 5.60078 8.50609 5.60078 8.4C5.60078 8.29391 5.64292 8.19217 5.71794 8.11716C5.79295 8.04214 5.89469 8 6.00078 8C7.29578 8 8.80078 9.048 8.80078 10.4C8.80078 10.5061 8.75864 10.6078 8.68362 10.6828C8.60861 10.7579 8.50687 10.8 8.40078 10.8ZM10.8008 15.2C9.50578 15.2 8.00078 14.15 8.00078 12.8C8.00078 12.6939 8.04292 12.5922 8.11794 12.5172C8.19295 12.4421 8.29469 12.4 8.40078 12.4C8.50687 12.4 8.60861 12.4421 8.68362 12.5172C8.75864 12.5922 8.80078 12.6939 8.80078 12.8C8.80078 13.661 9.90078 14.4 10.8008 14.4C10.9069 14.4 11.0086 14.4421 11.0836 14.5172C11.1586 14.5922 11.2008 14.6939 11.2008 14.8C11.2008 14.9061 11.1586 15.0078 11.0836 15.0828C11.0086 15.1579 10.9069 15.2 10.8008 15.2ZM5.20078 14.4C5.09469 14.4 4.99295 14.3579 4.91794 14.2828C4.84292 14.2078 4.80078 14.1061 4.80078 14C4.80078 12.705 5.84878 11.2 7.20078 11.2C7.30687 11.2 7.40861 11.2421 7.48362 11.3172C7.55864 11.3922 7.60078 11.4939 7.60078 11.6C7.60078 11.7061 7.55864 11.8078 7.48362 11.8828C7.40861 11.9579 7.30687 12 7.20078 12C6.33878 12 5.60078 13.1 5.60078 14C5.60078 14.1061 5.55864 14.2078 5.48362 14.2828C5.40861 14.3579 5.30687 14.4 5.20078 14.4ZM9.60078 12C9.49469 12 9.39295 11.9579 9.31794 11.8828C9.24292 11.8078 9.20078 11.7061 9.20078 11.6C9.20078 11.4939 9.24292 11.3922 9.31794 11.3172C9.39295 11.2421 9.49469 11.2 9.60078 11.2C10.4628 11.2 11.2008 10.1 11.2008 9.2C11.2008 9.09391 11.2429 8.99217 11.3179 8.91716C11.393 8.84214 11.4947 8.8 11.6008 8.8C11.7069 8.8 11.8086 8.84214 11.8836 8.91716C11.9586 8.99217 12.0008 9.09391 12.0008 9.2C12.0008 10.495 10.9528 12 9.60078 12Z" fill="#49DCFF"/>
<path d="M4.43981 11.4381C4.36052 11.4385 4.28293 11.4152 4.21693 11.3712C4.15093 11.3273 4.09952 11.2647 4.06926 11.1914C4.039 11.1181 4.03126 11.0375 4.04704 10.9598C4.06281 10.8821 4.10137 10.8108 4.15781 10.7551C4.60281 10.3101 5.27181 9.99513 5.94781 9.91313C6.71081 9.81912 7.38081 10.0191 7.83381 10.4721C7.90572 10.5477 7.94528 10.6484 7.94404 10.7527C7.94279 10.857 7.90085 10.9567 7.82716 11.0305C7.75346 11.1043 7.65384 11.1464 7.54954 11.1479C7.44523 11.1493 7.3445 11.1099 7.26881 11.0381C6.99681 10.7661 6.55181 10.6461 6.04481 10.7071C5.53981 10.7671 5.04681 10.9971 4.72381 11.3201C4.64846 11.3955 4.54635 11.4379 4.43981 11.4381ZM10.4918 13.3161C9.87881 13.3161 9.34581 13.1161 8.96581 12.7341C8.89686 12.658 8.85982 12.5583 8.86235 12.4557C8.86488 12.3531 8.90678 12.2553 8.97938 12.1827C9.05199 12.1101 9.14973 12.0682 9.25238 12.0657C9.35503 12.0631 9.45472 12.1002 9.53081 12.1691C9.80281 12.4401 10.2488 12.5611 10.7558 12.4991C11.2598 12.4391 11.7538 12.2091 12.0758 11.8861C12.1509 11.8111 12.2527 11.7689 12.3588 11.7689C12.465 11.7689 12.5668 11.8111 12.6418 11.8861C12.7169 11.9612 12.759 12.063 12.759 12.1691C12.759 12.2753 12.7169 12.3771 12.6418 12.4521C12.1968 12.8971 11.5278 13.2121 10.8518 13.2931C10.7324 13.3083 10.6122 13.316 10.4918 13.3161ZM7.83481 15.9631C7.78219 15.9631 7.73009 15.9526 7.68152 15.9324C7.63295 15.9121 7.58887 15.8825 7.55181 15.8451C6.63581 14.9301 6.31381 13.1241 7.26881 12.1681C7.30597 12.131 7.35009 12.1015 7.39865 12.0814C7.44721 12.0613 7.49925 12.0509 7.55181 12.0509C7.60437 12.0509 7.65641 12.0613 7.70497 12.0814C7.75352 12.1015 7.79764 12.131 7.83481 12.1681C7.87197 12.2053 7.90145 12.2494 7.92157 12.298C7.94168 12.3465 7.95203 12.3986 7.95203 12.4511C7.95203 12.5037 7.94168 12.5557 7.92157 12.6043C7.90145 12.6528 7.87197 12.697 7.83481 12.7341C7.22481 13.3441 7.48081 14.6431 8.11681 15.2791C8.1731 15.335 8.21152 15.4062 8.22722 15.484C8.24291 15.5617 8.23515 15.6423 8.20493 15.7156C8.17471 15.7889 8.1234 15.8515 8.0575 15.8956C7.9916 15.9397 7.91409 15.9632 7.83481 15.9631ZM9.24781 11.1551C9.16843 11.1557 9.0907 11.1325 9.02455 11.0887C8.9584 11.0448 8.90683 10.9822 8.87645 10.9089C8.84606 10.8355 8.83824 10.7548 8.85398 10.677C8.86972 10.5992 8.90831 10.5279 8.96481 10.4721C9.57481 9.86212 9.31881 8.56212 8.68281 7.92613C8.64265 7.88974 8.61031 7.84558 8.58774 7.79632C8.56517 7.74706 8.55284 7.69372 8.55151 7.63955C8.55018 7.58538 8.55986 7.53151 8.57998 7.48119C8.6001 7.43088 8.63023 7.38518 8.66855 7.34686C8.70686 7.30855 8.75256 7.27842 8.80288 7.2583C8.85319 7.23818 8.90706 7.22849 8.96123 7.22983C9.0154 7.23116 9.06874 7.24349 9.118 7.26606C9.16726 7.28863 9.21142 7.32097 9.24781 7.36112C10.1638 8.27713 10.4858 10.0821 9.53081 11.0381C9.49363 11.0753 9.44951 11.1047 9.40095 11.1248C9.35239 11.1449 9.30035 11.1552 9.24781 11.1551ZM17.9998 16.0031C16.8333 16.0018 15.7149 15.5378 14.89 14.7129C14.0651 13.8881 13.6011 12.7697 13.5998 11.6031C13.5998 9.17713 15.5738 7.20312 17.9998 7.20312C20.4258 7.20312 22.3998 9.17713 22.3998 11.6031C22.3998 14.0291 20.4258 16.0031 17.9998 16.0031ZM17.9998 8.00313C17.0454 8.00418 16.1303 8.38381 15.4554 9.05871C14.7805 9.73361 14.4009 10.6487 14.3998 11.6031C14.3998 13.5881 16.0148 15.2031 17.9998 15.2031C19.9848 15.2031 21.5998 13.5881 21.5998 11.6031C21.5998 9.61813 19.9848 8.00313 17.9998 8.00313Z" fill="#49DCFF"/>
<path d="M17.9984 13.2C17.1164 13.2 16.3984 12.482 16.3984 11.6C16.3984 11.2836 16.4923 10.9742 16.6681 10.7111C16.8439 10.448 17.0938 10.2429 17.3861 10.1218C17.6785 10.0007 18.0002 9.96901 18.3106 10.0307C18.621 10.0925 18.906 10.2449 19.1298 10.4686C19.3536 10.6924 19.506 10.9775 19.5677 11.2879C19.6294 11.5982 19.5977 11.9199 19.4766 12.2123C19.3555 12.5047 19.1505 12.7545 18.8874 12.9304C18.6242 13.1062 18.3149 13.2 17.9984 13.2ZM17.9984 10.8C17.7861 10.8003 17.5826 10.8849 17.4327 11.0352C17.2828 11.1855 17.1987 11.3892 17.1989 11.6015C17.1992 11.8138 17.2838 12.0173 17.4341 12.1672C17.5844 12.3172 17.7881 12.4013 18.0004 12.401C18.2127 12.4007 18.4162 12.3161 18.5662 12.1658C18.7161 12.0155 18.8002 11.8118 18.7999 11.5995C18.7997 11.3872 18.7151 11.1837 18.5648 11.0338C18.4145 10.8838 18.2107 10.7997 17.9984 10.8Z" fill="#49DCFF"/>
<path d="M17.9984 10.8C17.8924 10.8 17.7906 10.7579 17.7156 10.6828C17.6406 10.6078 17.5984 10.5061 17.5984 10.4C17.5984 9.538 16.4984 8.8 15.5984 8.8C15.4924 8.8 15.3906 8.75786 15.3156 8.68284C15.2406 8.60783 15.1984 8.50609 15.1984 8.4C15.1984 8.29391 15.2406 8.19217 15.3156 8.11716C15.3906 8.04214 15.4924 8 15.5984 8C16.8934 8 18.3984 9.048 18.3984 10.4C18.3984 10.5061 18.3563 10.6078 18.2813 10.6828C18.2063 10.7579 18.1045 10.8 17.9984 10.8ZM20.3984 15.2C19.1034 15.2 17.5984 14.151 17.5984 12.8C17.5984 12.6939 17.6406 12.5922 17.7156 12.5172C17.7906 12.4421 17.8924 12.4 17.9984 12.4C18.1045 12.4 18.2063 12.4421 18.2813 12.5172C18.3563 12.5922 18.3984 12.6939 18.3984 12.8C18.3984 13.661 19.4984 14.4 20.3984 14.4C20.5045 14.4 20.6063 14.4421 20.6813 14.5172C20.7563 14.5922 20.7984 14.6939 20.7984 14.8C20.7984 14.9061 20.7563 15.0078 20.6813 15.0828C20.6063 15.1579 20.5045 15.2 20.3984 15.2ZM14.7984 14.4C14.6924 14.4 14.5906 14.3579 14.5156 14.2828C14.4406 14.2078 14.3984 14.1061 14.3984 14C14.3984 12.705 15.4474 11.2 16.7984 11.2C16.9045 11.2 17.0063 11.2421 17.0813 11.3172C17.1563 11.3922 17.1984 11.4939 17.1984 11.6C17.1984 11.7061 17.1563 11.8078 17.0813 11.8828C17.0063 11.9579 16.9045 12 16.7984 12C15.9364 12 15.1984 13.1 15.1984 14C15.1984 14.1061 15.1563 14.2078 15.0813 14.2828C15.0063 14.3579 14.9045 14.4 14.7984 14.4ZM19.1984 12C19.0924 12 18.9906 11.9579 18.9156 11.8828C18.8406 11.8078 18.7984 11.7061 18.7984 11.6C18.7984 11.4939 18.8406 11.3922 18.9156 11.3172C18.9906 11.2421 19.0924 11.2 19.1984 11.2C20.0604 11.2 20.7984 10.1 20.7984 9.2C20.7984 9.09391 20.8406 8.99217 20.9156 8.91716C20.9906 8.84214 21.0924 8.8 21.1984 8.8C21.3045 8.8 21.4063 8.84214 21.4813 8.91716C21.5563 8.99217 21.5984 9.09391 21.5984 9.2C21.5984 10.495 20.5494 12 19.1984 12Z" fill="#49DCFF"/>
<path d="M14.0399 11.435C13.9609 11.4348 13.8836 11.4113 13.8179 11.3673C13.7522 11.3232 13.7011 11.2607 13.6709 11.1876C13.6407 11.1145 13.6329 11.0342 13.6484 10.9566C13.6639 10.8791 13.702 10.8079 13.7579 10.752C14.2029 10.307 14.8719 9.99198 15.5479 9.90998C16.3109 9.81598 16.9819 10.016 17.4339 10.469C17.5059 10.5445 17.5454 10.6452 17.5442 10.7495C17.5429 10.8538 17.501 10.9535 17.4273 11.0273C17.3536 11.1012 17.254 11.1433 17.1497 11.1447C17.0454 11.1461 16.9446 11.1068 16.8689 11.035C16.5979 10.763 16.1509 10.643 15.6449 10.704C15.1399 10.764 14.6469 10.994 14.3239 11.317C14.2486 11.3923 14.1465 11.4347 14.0399 11.435ZM20.0919 13.313C19.4789 13.313 18.9459 13.113 18.5659 12.731C18.497 12.6549 18.46 12.5552 18.4625 12.4526C18.465 12.3499 18.5069 12.2522 18.5795 12.1796C18.6521 12.107 18.7499 12.0651 18.8525 12.0625C18.9552 12.06 19.0549 12.097 19.1309 12.166C19.4029 12.437 19.8489 12.558 20.3559 12.496C20.8599 12.436 21.3539 12.206 21.6759 11.883C21.7131 11.8458 21.7572 11.8163 21.8058 11.7962C21.8543 11.7761 21.9064 11.7658 21.9589 11.7658C22.0115 11.7658 22.0635 11.7761 22.1121 11.7962C22.1607 11.8163 22.2048 11.8458 22.2419 11.883C22.2791 11.9201 22.3086 11.9643 22.3287 12.0128C22.3488 12.0614 22.3592 12.1134 22.3592 12.166C22.3592 12.2185 22.3488 12.2706 22.3287 12.3191C22.3086 12.3677 22.2791 12.4118 22.2419 12.449C21.7969 12.894 21.1269 13.209 20.4519 13.29C20.3325 13.3052 20.2123 13.3128 20.0919 13.313ZM17.4339 15.96C17.3815 15.9598 17.3296 15.9493 17.2812 15.9291C17.2328 15.9088 17.1889 15.8792 17.1519 15.842C16.2359 14.927 15.9129 13.121 16.8689 12.165C16.944 12.0899 17.0458 12.0478 17.1519 12.0478C17.2581 12.0478 17.3599 12.0899 17.4349 12.165C17.51 12.24 17.5522 12.3418 17.5522 12.448C17.5522 12.5541 17.51 12.6559 17.4349 12.731C16.8249 13.341 17.0809 14.64 17.7169 15.276C17.7732 15.3318 17.8117 15.4031 17.8273 15.4808C17.843 15.5585 17.8353 15.6392 17.8051 15.7124C17.7748 15.7857 17.7235 15.8484 17.6576 15.8925C17.5917 15.9365 17.5132 15.96 17.4339 15.96ZM18.8479 11.152C18.7687 11.1523 18.6911 11.129 18.6251 11.0851C18.5591 11.0412 18.5077 10.9785 18.4774 10.9053C18.4471 10.832 18.4394 10.7513 18.4552 10.6736C18.4709 10.5959 18.5095 10.5247 18.5659 10.469C19.1749 9.85898 18.9199 8.55898 18.2829 7.92298C18.2428 7.8866 18.2104 7.84244 18.1879 7.79317C18.1653 7.74391 18.153 7.69058 18.1516 7.63641C18.1503 7.58224 18.16 7.52836 18.1801 7.47805C18.2002 7.42774 18.2304 7.38204 18.2687 7.34372C18.307 7.3054 18.3527 7.27527 18.403 7.25515C18.4533 7.23504 18.5072 7.22535 18.5614 7.22668C18.6155 7.22802 18.6689 7.24034 18.7181 7.26291C18.7674 7.28548 18.8116 7.31783 18.8479 7.35798C19.7639 8.27398 20.0869 10.079 19.1309 11.035C19.0938 11.0721 19.0496 11.1016 19.0011 11.1216C18.9525 11.1417 18.9005 11.152 18.8479 11.152Z" fill="#49DCFF"/>
</g>
</g>
<defs>
<clipPath id="clip0_570_7859">
<rect width="24" height="24" fill="white"/>
</clipPath>
</defs>
</svg>
