<svg width="24" height="25" viewBox="0 0 24 25" fill="none" xmlns="http://www.w3.org/2000/svg">
<path d="M16.533 23.8281C16.922 23.8279 17.295 23.6733 17.5701 23.3982C17.8452 23.1232 17.9998 22.7501 18 22.3611V2.79513C17.9998 2.40611 17.8452 2.03309 17.5701 1.75802C17.295 1.48295 16.922 1.32832 16.533 1.32813H7.46775C7.07874 1.32812 6.70564 1.48256 6.43042 1.75749C6.15521 2.03242 6.0004 2.40536 6 2.79437V22.3619C6.0006 22.7507 6.15537 23.1234 6.43038 23.3983C6.70539 23.6731 7.07818 23.8277 7.467 23.8281H16.533ZM6.75 22.3611V2.79513C6.7502 2.60503 6.8258 2.42277 6.96022 2.28835C7.09464 2.15393 7.2769 2.07832 7.467 2.07812H16.533C16.723 2.07812 16.9053 2.15356 17.0397 2.28786C17.1742 2.42217 17.2498 2.60434 17.25 2.79437V22.3619C17.2498 22.5519 17.1742 22.7341 17.0397 22.8684C16.9053 23.0027 16.723 23.0781 16.533 23.0781H7.46775C7.37353 23.0782 7.28021 23.0598 7.19314 23.0238C7.10606 22.9878 7.02693 22.935 6.96027 22.8684C6.89361 22.8018 6.84073 22.7227 6.80465 22.6357C6.76857 22.5486 6.75 22.4553 6.75 22.3611Z" fill="#49DCFF"/>
<path d="M7.875 8.07812H16.125C16.2245 8.07812 16.3198 8.03862 16.3902 7.96829C16.4605 7.89796 16.5 7.80258 16.5 7.70312V3.20312C16.5 3.10367 16.4605 3.00829 16.3902 2.93796C16.3198 2.86763 16.2245 2.82812 16.125 2.82812H7.875C7.77554 2.82812 7.68016 2.86763 7.60983 2.93796C7.53951 3.00829 7.5 3.10367 7.5 3.20312V7.70312C7.5 7.80258 7.53951 7.89796 7.60983 7.96829C7.68016 8.03862 7.77554 8.07812 7.875 8.07812ZM15.75 7.32812H8.25V5.82812H15.75V7.32812ZM8.25 3.57812H15.75V5.07812H8.25V3.57812ZM13.3125 15.5549L12.9375 16.2036C13.295 16.41 13.5743 16.7286 13.7323 17.1099C13.8902 17.4912 13.9179 17.914 13.8111 18.3127C13.7043 18.7114 13.4689 19.0637 13.1414 19.315C12.814 19.5662 12.4128 19.7024 12 19.7024C11.5872 19.7024 11.186 19.5662 10.8586 19.315C10.5311 19.0637 10.2957 18.7114 10.1889 18.3127C10.0821 17.914 10.1098 17.4912 10.2677 17.1099C10.4257 16.7286 10.705 16.41 11.0625 16.2036L10.6875 15.5549C10.1871 15.8438 9.79595 16.2898 9.57482 16.8236C9.35368 17.3575 9.31489 17.9494 9.46444 18.5076C9.614 19.0658 9.94356 19.559 10.402 19.9107C10.8604 20.2625 11.4221 20.4532 12 20.4532C12.5779 20.4532 13.1396 20.2625 13.598 19.9107C14.0564 19.559 14.386 19.0658 14.5356 18.5076C14.6851 17.9494 14.6463 17.3575 14.4252 16.8236C14.204 16.2898 13.8129 15.8438 13.3125 15.5549Z" fill="#49DCFF"/>
<path d="M11.625 14.4531H12.375V17.8281H11.625V14.4531ZM10.125 21.5781H11.25V22.3281H10.125V21.5781ZM12.75 21.5781H13.875V22.3281H12.75V21.5781ZM12 8.82812C11.6684 8.82937 11.3466 8.94044 11.0848 9.14399C10.8231 9.34753 10.6361 9.63207 10.5533 9.95312H8.625V10.7031H10.5533C10.6348 11.025 10.8214 11.3104 11.0834 11.5143C11.3454 11.7182 11.668 11.8289 12 11.8289C12.332 11.8289 12.6546 11.7182 12.9166 11.5143C13.1786 11.3104 13.3652 11.025 13.4468 10.7031H15.375V9.95312H13.4468C13.3639 9.63207 13.1769 9.34753 12.9152 9.14399C12.6534 8.94044 12.3316 8.82937 12 8.82812ZM12 11.0781C11.8011 11.0781 11.6103 10.9991 11.4697 10.8585C11.329 10.7178 11.25 10.527 11.25 10.3281C11.25 10.1292 11.329 9.93845 11.4697 9.7978C11.6103 9.65714 11.8011 9.57812 12 9.57812C12.1989 9.57812 12.3897 9.65714 12.5303 9.7978C12.671 9.93845 12.75 10.1292 12.75 10.3281C12.75 10.527 12.671 10.7178 12.5303 10.8585C12.3897 10.9991 12.1989 11.0781 12 11.0781Z" fill="#49DCFF"/>
</svg>
