<svg width="18" height="12" viewBox="0 0 18 12" fill="none" xmlns="http://www.w3.org/2000/svg">
<g clip-path="url(#clip0_570_25204)">
<g clip-path="url(#clip1_570_25204)">
<path d="M9.14618 1.42969C11.7402 1.42969 13.8412 3.5307 13.8412 6.12469C13.8412 8.71868 11.7402 10.8197 9.14618 10.8197C8.52956 10.8199 7.91896 10.6986 7.34925 10.4627C6.77954 10.2268 6.26189 9.881 5.82588 9.44499C5.38987 9.00898 5.04404 8.49133 4.80817 7.92162C4.57229 7.35191 4.45098 6.7413 4.45117 6.12469C4.45117 3.5307 6.55219 1.42969 9.14618 1.42969ZM9.73305 3.77719C9.73305 3.45441 9.46896 3.19031 9.14618 3.19031C8.82339 3.19031 8.5593 3.45441 8.5593 3.77719C8.5593 4.09997 8.82339 4.36406 9.14618 4.36406C9.46896 4.36406 9.73305 4.09997 9.73305 3.77719ZM9.73305 9.05907V5.53782H8.5593V9.05907H9.73305Z" fill="#5F697A"/>
</g>
</g>
<defs>
<clipPath id="clip0_570_25204">
<rect width="10.2703" height="10.2703" fill="white" transform="translate(4.00977 0.988281)"/>
</clipPath>
<clipPath id="clip1_570_25204">
<rect width="10.2703" height="10.2703" fill="white" transform="translate(4.00977 0.988281)"/>
</clipPath>
</defs>
</svg>
