<svg width="13.562500" height="23.000000" viewBox="0 0 13.5625 23" fill="none" xmlns="http://www.w3.org/2000/svg" xmlns:xlink="http://www.w3.org/1999/xlink">
	<desc>
			Created with Pixso.
	</desc>
	<defs/>
	<path id="Vector" d="M6.78 9.71C6.33 9.71 5.9 9.58 5.54 9.32C5.17 9.07 4.89 8.7 4.72 8.27C4.55 7.85 4.5 7.38 4.59 6.93C4.68 6.48 4.89 6.06 5.2 5.73C5.51 5.41 5.91 5.19 6.34 5.1C6.77 5.01 7.22 5.05 7.63 5.23C8.04 5.41 8.38 5.71 8.63 6.09C8.87 6.47 9 6.92 9 7.38C9 8 8.77 8.59 8.35 9.03C7.93 9.47 7.37 9.71 6.78 9.71ZM6.78 3.71C6.08 3.71 5.4 3.92 4.82 4.32C4.24 4.73 3.79 5.3 3.53 5.98C3.26 6.65 3.19 7.39 3.33 8.1C3.46 8.81 3.8 9.47 4.29 9.98C4.78 10.5 5.41 10.85 6.09 10.99C6.77 11.13 7.48 11.06 8.12 10.78C8.76 10.5 9.31 10.03 9.7 9.42C10.09 8.82 10.29 8.11 10.29 7.38C10.29 6.41 9.92 5.47 9.26 4.78C8.6 4.09 7.71 3.71 6.78 3.71ZM11.64 12.49C12.92 10.69 13.75 8.34 13.52 6.07C13.36 4.55 12.74 3.21 11.7 2.12C10.39 0.76 8.62 0 6.78 0C4.93 0 3.16 0.76 1.85 2.12C0.82 3.21 0.19 4.55 0.03 6.07C-0.13 7.67 0.24 9.3 0.9 10.74C1.19 11.35 1.53 11.94 1.92 12.49L6.78 19.35L11.64 12.49L11.64 12.49ZM12.41 20.48C12.41 21.31 11.36 21.93 10.74 22.22C9.53 22.78 8.09 23 6.78 23C5.46 23 4.03 22.78 2.82 22.22C2.19 21.93 1.14 21.31 1.14 20.48C1.14 19.93 1.62 19.47 2.02 19.19C2.63 18.75 3.4 18.46 4.11 18.28L4.37 18.21L6.26 20.88C6.32 20.96 6.4 21.03 6.49 21.08C6.58 21.12 6.68 21.15 6.78 21.15C6.88 21.15 6.98 21.12 7.07 21.08C7.16 21.03 7.23 20.96 7.29 20.88L9.18 18.21L9.44 18.28C10.15 18.46 10.92 18.75 11.53 19.18C11.93 19.47 12.41 19.92 12.41 20.48Z" fill="#49DCFF" fill-opacity="1.000000" fill-rule="evenodd"/>
</svg>
