<svg width="11.142578" height="12.378906" viewBox="0 0 11.1426 12.3789" fill="none" xmlns="http://www.w3.org/2000/svg" xmlns:xlink="http://www.w3.org/1999/xlink">
	<desc>
			Created with Pixso.
	</desc>
	<defs/>
	<path id="Vector" d="M11.14 8.97C11.14 9.08 11.11 9.19 11.05 9.29C10.99 9.39 10.91 9.46 10.81 9.51L5.92 12.26C5.82 12.34 5.69 12.38 5.57 12.37C5.44 12.38 5.32 12.34 5.21 12.26L0.32 9.51C0.22 9.46 0.14 9.39 0.08 9.29C0.03 9.19 0 9.08 0 8.97L0 3.4C0 3.29 0.03 3.18 0.08 3.08C0.14 2.99 0.22 2.91 0.32 2.85L5.21 0.11C5.32 0.03 5.44 0 5.57 0C5.7 0 5.82 0.03 5.92 0.11L10.81 2.85C10.91 2.91 10.99 2.99 11.05 3.08C11.11 3.18 11.14 3.29 11.14 3.4L11.14 8.97ZM5.57 1.33L4.4 1.99L8.04 4.09L9.26 3.4L5.57 1.33ZM1.88 3.4L5.57 5.48L6.78 4.79L3.14 2.69L1.88 3.4ZM1.23 8.6L4.95 10.7L4.95 6.55L1.23 4.46L1.23 8.6ZM9.9 8.6L9.9 4.46L6.19 6.55L6.19 10.7L9.9 8.6Z" fill="#49DCFF" fill-opacity="1.000000" fill-rule="nonzero"/>
</svg>
