<svg width="13.618652" height="11.761719" viewBox="0 0 13.6187 11.7617" fill="none" xmlns="http://www.w3.org/2000/svg" xmlns:xlink="http://www.w3.org/1999/xlink">
	<desc>
			Created with Pixso.
	</desc>
	<defs/>
	<path id="Vector" d="M12.38 4.39L12.38 2.47C12.38 1.79 11.82 1.23 11.14 1.23L6.18 1.23L4.95 0L1.23 0C0.55 0 0 0.55 0 1.23L0 8.66C0 9.34 0.55 9.9 1.23 9.9L5.69 9.9C6.43 11.01 7.79 11.76 9.28 11.76C11.7 11.76 13.61 9.84 13.61 7.42C13.61 6.25 13.12 5.19 12.38 4.39ZM5.13 8.66L1.23 8.66L1.23 2.47L11.14 2.47L11.14 3.52C10.58 3.21 9.96 3.09 9.28 3.09C8.71 3.08 8.15 3.19 7.62 3.41C7.09 3.63 6.61 3.95 6.21 4.35C5.81 4.75 5.49 5.23 5.27 5.76C5.05 6.29 4.94 6.85 4.95 7.42C4.95 7.86 5.01 8.29 5.13 8.66ZM9.28 10.52C8.87 10.52 8.47 10.44 8.09 10.29C7.71 10.14 7.37 9.91 7.08 9.62C6.79 9.33 6.57 8.99 6.41 8.61C6.26 8.24 6.18 7.83 6.18 7.42C6.18 7.01 6.26 6.61 6.41 6.23C6.57 5.86 6.79 5.51 7.08 5.23C7.37 4.94 7.71 4.71 8.09 4.56C8.47 4.4 8.87 4.32 9.28 4.33C9.69 4.32 10.09 4.4 10.47 4.56C10.85 4.71 11.19 4.94 11.48 5.23C11.77 5.51 11.99 5.86 12.15 6.23C12.3 6.61 12.38 7.01 12.38 7.42C12.38 7.83 12.3 8.24 12.15 8.61C11.99 8.99 11.77 9.33 11.48 9.62C11.19 9.91 10.85 10.14 10.47 10.29C10.09 10.44 9.69 10.52 9.28 10.52ZM9.9 6.19L8.66 6.19L8.66 4.95L9.9 4.95L9.9 6.19ZM9.9 9.9L8.66 9.9L8.66 6.8L9.9 6.8L9.9 9.9Z" fill="#49DCFF" fill-opacity="1.000000" fill-rule="nonzero"/>
</svg>
